<svg width="63" height="51" viewBox="0 0 63 51" fill="none" xmlns="http://www.w3.org/2000/svg">
<path d="M13.5019 1.73625C18.3554 -2.06201 23.0606 2.22694 24.2947 3.70676C25.5442 5.20624 28.6594 7.5473 30.6638 7.50461C32.6694 7.45708 34.2884 4.87305 33.3403 3.69762C32.1439 2.21237 30.6981 3.01036 30.4824 4.00855C30.393 4.41941 30.4608 5.36415 29.732 5.36038C29.3548 5.35767 29.0563 4.7911 29.0789 4.16565C29.1016 3.5402 29.3157 2.77971 30.1528 1.97391C31.9034 0.289598 35.6399 1.81879 35.493 4.78174C35.3453 7.65128 33.0598 9.05248 31.1236 9.22731C28.269 9.48735 24.9347 7.40338 23.5815 5.65352C21.871 3.4404 18.035 1.33586 15.1172 3.33891C10.8925 6.23933 15.4431 15.1818 15.4431 15.1818L12.3683 16.4958C12.3683 16.4958 12.0204 14.8962 11.3734 11.322C10.7629 7.95939 10.6469 3.96838 13.5019 1.73625Z" fill="#78DE89"/>
<path d="M19.2338 21.493L13.123 20.7304C13.123 20.7304 13.1695 22.0059 13.0743 22.9018C12.9792 23.7977 12.6311 25.6766 11.9299 25.8977C10.6009 26.318 9.78455 24.3031 6.36273 23.821C4.4763 23.5588 1.54859 23.8407 0.665496 26.2285C-0.281267 28.7959 3.32734 26.6104 5.5125 26.9941C7.08939 27.2717 7.1132 29.1726 7.1132 29.1726C7.1132 29.1726 10.0571 33.4089 10.4044 33.0205C10.7531 32.6274 23.5765 27.3671 23.5765 27.3671L19.2338 21.493Z" fill="#D43330"/>
<path d="M11.5582 20.601C11.5582 20.601 10.5591 23.2476 11.358 23.7049C12.1568 24.1623 13.0849 22.7079 13.0849 22.7079C13.0849 22.7079 13.8938 22.7797 15.3427 23.1679C16.2072 23.3996 17.3437 24.0458 17.3437 24.0458C17.3437 24.0458 16.7395 25.1417 17.4167 25.7632C18.2349 26.5156 21.0967 23.4467 21.0967 23.4467L14.6123 20.4462L11.5582 20.601Z" fill="#FFFAFE"/>
<path d="M7.2418 30.1802C7.2418 30.1802 8.24189 28.2637 8.49876 27.846C8.75564 27.4282 9.29268 26.5058 9.77125 26.5357C10.2498 26.5656 10.6509 27.5996 10.6509 27.5996C10.6509 27.5996 12.6542 26.8268 13.1255 26.7098C13.5968 26.5928 14.952 26.4227 14.952 26.4227C14.952 26.4227 15.2204 25.2471 15.9251 25.3221C17.1527 25.4543 16.8399 27.8966 16.8399 27.8966L10.2267 31.9066L7.2418 30.1802Z" fill="#FFFAFE"/>
<path d="M7.94699 34.619C7.94699 34.619 7.78713 37.1281 11.0419 40.4745C14.2967 43.8209 16.5677 44.8695 17.961 45.3877C19.3544 45.906 20.7791 46.2878 20.9616 45.6068C21.0936 45.1142 20.2337 44.2471 19.0131 43.625C17.7961 43.009 17.3422 42.5199 17.8252 42.0695C18.7 41.2583 21.2903 44.0902 23.7642 45.1931C26.2393 46.2911 31.0602 48.9701 32.0796 47.0588C33.099 45.1475 28.8439 45.5344 29.0228 44.0553C29.203 42.5714 33.1741 43.7856 35.4729 45.2712C37.7705 46.7616 39.342 49.5897 40.2572 49.9799C41.1724 50.3701 42.0624 49.8113 42.0747 48.6448C42.0834 47.3375 41.6079 46.0402 40.4828 44.7915C39.3576 43.5427 33.728 39.2649 33.728 39.2649L20.1387 34.5366L15.0024 33.3053L7.94699 34.619Z" fill="#BCCE46"/>
<path d="M18.1598 14.1808C18.1598 14.1808 18.658 9.86782 21.1565 8.71519C23.6549 7.56257 25.6325 8.60492 26.9039 9.01806C28.1753 9.4312 31.149 11.3927 35.812 12.2073C40.7678 13.0693 45.5273 12.1136 49.8898 12.6976C54.2523 13.2816 57.378 15.2165 56.8429 16.6727C56.3065 18.1336 50.3022 15.7949 50.3563 17.4865C50.4151 19.1794 59.5895 18.6509 59.5299 21.3267C59.4644 24.1406 54.8981 21.1105 54.5899 22.6275C54.1234 24.9095 61.9468 23.7239 62.1202 26.6122C62.3188 29.9472 53.7281 28.0077 54.3278 30.1354C54.9227 32.2619 60.4579 31.1931 60.2667 33.259C60.1032 35.0476 58.4028 35.7722 56.2442 35.7528C54.7514 35.7411 50.078 34.6752 49.7867 35.9171C49.29 38.0409 53.5381 37.1397 54.1307 38.4632C54.7234 39.7867 51.8082 41.4126 47.7453 40.5413C44.9838 39.9515 43.0172 38.3272 42.6766 39.3281C42.3359 40.329 45.0011 41.1622 45.9097 41.944C47.391 43.2158 47.7857 44.1963 46.6734 45.3529C45.5599 46.5142 44.384 44.3926 43.2468 43.9999C41.4478 43.3729 39.0872 43.4702 37.3195 42.9966C35.5519 42.523 32.4925 40.611 32.4925 40.611C32.4925 40.611 32.9234 41.4563 32.1651 41.8329C31.4068 42.2095 29.7912 41.7093 28.0456 40.0717C26.2986 38.4389 24.8933 37.6948 24.28 37.5305C23.6666 37.3661 20.6023 36.6123 20.1668 36.1126C16.7153 32.1285 26.7767 18.9589 26.7767 18.9589L18.1598 14.1808Z" fill="url(#paint0_linear_1323_372)"/>
<path d="M29.8016 14.7017C29.8016 14.7017 34.6456 14.2035 37.6088 12.0314C39.5023 10.6442 41.4357 7.17642 43.5436 8.91108C46.1743 11.0705 39.5477 13.933 40.117 14.2615C40.9159 14.7189 44.0516 13.1779 46.0977 11.8782C48.1438 10.5785 50.2872 10.3453 50.9919 11.9266C51.7821 13.6912 49.1748 15.6171 45.834 16.6682C42.4944 17.7145 39.5876 17.9761 37.7542 17.8058C35.8094 17.6263 32.2625 16.7225 32.2625 16.7225L28.8435 15.708L29.8016 14.7017Z" fill="#FEB30B"/>
<path d="M33.6557 24.6015C33.6557 24.6015 35.2113 26.0019 38.0774 24.6941C39.8582 23.8824 41.9011 23.3479 44.5557 23.3707C47.3558 23.3911 48.2739 24.0409 49.6782 23.9772C51.0765 23.917 52.7645 23.8569 53.6828 23.8493C54.9953 23.8386 55.7021 25.876 53.3466 26.4561C51.7841 26.8398 49.9325 26.8147 48.7069 26.6364C48.0052 26.5312 46.0032 26.5072 45.2742 26.5811C43.7751 26.7281 42.1121 27.6025 42.1121 27.6025C42.1121 27.6025 45.86 27.235 47.8657 27.6119C50.2959 28.0664 52.8825 28.8837 53.7411 28.6738C54.5984 28.4687 57.0213 27.9843 57.4141 29.513C57.8023 31.0198 55.3326 32.1232 53.0939 32.0358C50.8552 31.9485 48.519 31.0274 46.1542 30.87C44.7053 30.7716 41.9015 31.1126 38.7221 32.0827C35.5475 33.0542 32.664 32.939 31.4072 32.4521C30.1539 31.9713 26.8619 34.7334 26.8619 34.7334L18.702 33.6392L12.6864 34.0668C12.6864 34.0668 9.90385 37.1103 6.62836 34.923C3.35286 32.7358 5.30496 28.4448 6.53171 28.4836C7.75846 28.5224 7.92245 30.0934 9.0997 30.0465C10.277 29.9996 13.1798 27.5888 15.2752 27.3997C17.2162 27.2261 19.3829 27.9879 20.0558 25.4765C20.7288 22.965 15.2157 21.9226 13.9528 21.7292C12.6946 21.537 7.64855 21.8621 5.61081 19.1316C3.57307 16.4012 4.8624 8.82677 8.53352 8.76482C11.6065 8.71342 13.1888 13.1439 15.9755 13.8906C18.2212 14.4923 19.3058 12.7435 22.1472 11.3929C24.2416 10.3959 26.3391 10.2954 27.5289 11.3027C28.5154 12.1416 24.5753 12.2609 25.1838 12.7138C25.1838 12.7138 27.8874 12.4185 29.8084 12.8607C31.7293 13.303 32.0388 13.6551 32.1602 14.1483C32.334 14.8523 30.1606 14.2699 30.5614 14.9571C30.961 15.649 33.5063 15.3838 34.9311 16.0554C36.3558 16.7271 36.1552 17.4756 35.7398 17.6542C35.3293 17.8341 32.854 17.6833 32.6377 18.3552C32.4867 18.8221 33.9493 19.333 34.4666 20.3775C34.9874 21.4281 34.5338 22.5799 34.3019 23.1752C34.0616 23.763 33.6557 24.6015 33.6557 24.6015Z" fill="#01AB46"/>
<path d="M24.9042 16.2106C23.4017 15.984 21.3627 12.9685 19.0191 16.0158C17.1194 18.4883 20.5262 21.596 23.4625 20.3743C24.801 19.8219 25.7152 18.9022 26.793 18.2799C27.5034 17.8698 28.34 17.6644 28.6575 17.1749C29.2106 16.3085 26.4757 16.4505 24.9042 16.2106Z" fill="#78DE8A"/>
<path d="M12.6374 34.385C12.6374 34.385 13.9232 31.634 16.7867 31.4178C19.6503 31.2016 24.1978 33.2586 25.3474 33.1991C26.4908 33.1432 28.1153 32.9728 29.1514 30.2844C29.9898 28.102 29.3294 27.7076 29.968 24.7833C30.7106 21.3743 33.1281 21.1421 33.8663 21.3813C34.4706 21.5795 34.8339 22.1168 34.7409 22.5992C34.6055 23.2979 34.3821 23.6677 34.3821 23.6677C34.3821 23.6677 35.5248 24.2327 35.2632 26.2332C34.8702 29.1871 32.3929 29.8744 31.815 31.3553C31.2357 32.841 30.6852 35.5715 27.9068 36.2816C25.1283 36.9917 25.119 36.1765 23.2031 36.2946C22.4504 36.3414 21.0882 36.7115 19.7806 36.1437C18.473 35.5759 18.2473 34.9305 16.4797 34.4569C15.1103 34.1003 12.6374 34.385 12.6374 34.385Z" fill="#78DE8A"/>
<path d="M22.333 18.7361C21.5522 19.293 20.3394 19.1441 19.7476 18.4937C19.1355 17.8224 19.5654 16.5659 20.4834 15.9215C21.4063 15.2785 22.5849 15.439 23.1083 16.1901C23.6331 16.9363 23.2475 18.0857 22.333 18.7361Z" fill="#2A2C33"/>
<path d="M8.46145 11.3906C7.79069 11.8269 8.09696 12.6544 8.23778 12.8629C8.3786 13.0715 8.76649 13.517 8.5725 13.874C8.37721 14.2358 7.58223 14.8458 7.91501 15.3232C8.24779 15.8006 9.54107 15.4173 10.0218 14.164C10.5026 12.9107 10.0902 12.1894 9.86808 11.84C9.65077 11.4919 9.01941 11.0277 8.46145 11.3906Z" fill="#44484A"/>
<defs>
<linearGradient id="paint0_linear_1323_372" x1="67.6987" y1="25.454" x2="21.7647" y2="24.0279" gradientUnits="userSpaceOnUse">
<stop offset="0.171" stop-color="#01AB46"/>
<stop offset="0.499" stop-color="#128A3C"/>
<stop offset="1" stop-color="#2F502A"/>
</linearGradient>
</defs>
</svg>
