<svg width="48" height="39" viewBox="0 0 48 39" fill="none" xmlns="http://www.w3.org/2000/svg">
<path d="M37.8677 1.18938C34.1287 -1.73667 30.504 1.5674 29.5533 2.7074C28.5907 3.86255 26.1908 5.66602 24.6468 5.63314C23.1017 5.59653 21.8545 3.60587 22.5849 2.70036C23.5065 1.55617 24.6203 2.17092 24.7865 2.93989C24.8553 3.25641 24.8031 3.9842 25.3646 3.98129C25.6551 3.97921 25.8851 3.54274 25.8677 3.06092C25.8502 2.57909 25.6853 1.99323 25.0404 1.37247C23.6918 0.0749314 20.8133 1.25297 20.9264 3.53553C21.0402 5.74613 22.8009 6.82557 24.2926 6.96025C26.4916 7.16058 29.0602 5.55515 30.1027 4.20712C31.4204 2.50221 34.3755 0.880935 36.6233 2.42402C39.8779 4.65841 36.3722 11.5474 36.3722 11.5474L38.741 12.5596C38.741 12.5596 39.009 11.3274 39.5074 8.57392C39.9777 5.98349 40.0671 2.90894 37.8677 1.18938Z" fill="#78DE89"/>
<path d="M33.452 16.4093L38.1596 15.8218C38.1596 15.8218 38.1238 16.8044 38.1971 17.4946C38.2704 18.1848 38.5386 19.6322 39.0787 19.8025C40.1026 20.1264 40.7314 18.5741 43.3675 18.2028C44.8207 18.0008 47.0761 18.2179 47.7564 20.0574C48.4858 22.0353 45.7058 20.3516 44.0225 20.6472C42.8077 20.861 42.7893 22.3254 42.7893 22.3254C42.7893 22.3254 40.5215 25.5889 40.2539 25.2898C39.9853 24.9869 30.1066 20.9345 30.1066 20.9345L33.452 16.4093Z" fill="#D43330"/>
<path d="M39.3651 15.7221C39.3651 15.7221 40.1347 17.761 39.5193 18.1133C38.9039 18.4656 38.189 17.3452 38.189 17.3452C38.189 17.3452 37.5657 17.4006 36.4496 17.6997C35.7836 17.8781 34.9081 18.3759 34.9081 18.3759C34.9081 18.3759 35.3736 19.2202 34.8518 19.6989C34.2216 20.2785 32.0169 17.9144 32.0169 17.9144L37.0123 15.6029L39.3651 15.7221Z" fill="#FFFAFE"/>
<path d="M42.6903 23.1017C42.6903 23.1017 41.9198 21.6253 41.7219 21.3035C41.5241 20.9817 41.1103 20.271 40.7417 20.2941C40.373 20.3171 40.064 21.1137 40.064 21.1137C40.064 21.1137 38.5208 20.5183 38.1577 20.4282C37.7946 20.338 36.7506 20.207 36.7506 20.207C36.7506 20.207 36.5438 19.3014 36.001 19.3591C35.0553 19.461 35.2962 21.3424 35.2962 21.3424L40.3908 24.4316L42.6903 23.1017Z" fill="#FFFAFE"/>
<path d="M42.147 26.5211C42.147 26.5211 42.2702 28.4541 39.7628 31.0321C37.2554 33.61 35.5059 34.4178 34.4325 34.817C33.3591 35.2163 32.2616 35.5104 32.121 34.9858C32.0193 34.6063 32.6817 33.9383 33.622 33.4591C34.5596 32.9845 34.9092 32.6077 34.5371 32.2608C33.8632 31.6359 31.8678 33.8175 29.962 34.6671C28.0552 35.513 24.3414 37.5768 23.556 36.1044C22.7707 34.632 26.0487 34.9301 25.9109 33.7906C25.7721 32.6474 22.7129 33.5828 20.9419 34.7272C19.172 35.8754 17.9613 38.0541 17.2563 38.3547C16.5512 38.6553 15.8657 38.2249 15.8561 37.3262C15.8495 36.3191 16.2157 35.3197 17.0825 34.3577C17.9493 33.3957 22.2862 30.1002 22.2862 30.1002L32.7549 26.4577L36.7118 25.5091L42.147 26.5211Z" fill="#BCCE46"/>
<path d="M34.2794 10.7763C34.2794 10.7763 33.8956 7.45368 31.9709 6.56573C30.0461 5.67779 28.5226 6.48078 27.5432 6.79905C26.5638 7.11732 24.273 8.62838 20.6807 9.25595C16.863 9.92002 13.1964 9.18377 9.83564 9.63367C6.47492 10.0836 4.06697 11.5742 4.4792 12.6959C4.89242 13.8214 9.51793 12.0197 9.47632 13.3229C9.43098 14.627 2.36333 14.2199 2.40922 16.2812C2.4597 18.449 5.97746 16.1147 6.21482 17.2833C6.57422 19.0413 0.547315 18.128 0.413759 20.353C0.260769 22.9222 6.87879 21.4281 6.41677 23.0672C5.95847 24.7053 1.69431 23.882 1.84161 25.4735C1.96757 26.8514 3.27756 27.4095 4.94043 27.3946C6.09045 27.3856 9.69066 26.5645 9.91511 27.5212C10.2977 29.1573 7.02516 28.463 6.5686 29.4826C6.11205 30.5022 8.35777 31.7547 11.4877 31.0835C13.6151 30.6292 15.1301 29.3778 15.3925 30.1489C15.6549 30.92 13.6018 31.5619 12.9018 32.1641C11.7606 33.1438 11.4566 33.8992 12.3134 34.7902C13.1713 35.6849 14.0772 34.0504 14.9532 33.7479C16.3391 33.2649 18.1576 33.3399 19.5194 32.975C20.8811 32.6101 23.238 31.1372 23.238 31.1372C23.238 31.1372 22.906 31.7884 23.4902 32.0785C24.0744 32.3686 25.3189 31.9833 26.6637 30.7217C28.0095 29.4639 29.0921 28.8907 29.5646 28.7641C30.0371 28.6375 32.3978 28.0568 32.7333 27.6718C35.3922 24.6026 27.6412 14.4571 27.6412 14.4571L34.2794 10.7763Z" fill="url(#paint0_linear_1323_373)"/>
<path d="M25.3109 11.1775C25.3109 11.1775 21.5792 10.7937 19.2965 9.1204C17.8378 8.05176 16.3484 5.38031 14.7246 6.71664C12.6979 8.38022 17.8029 10.5853 17.3643 10.8384C16.7489 11.1908 14.3332 10.0037 12.757 9.00243C11.1807 8.00117 9.52953 7.82152 8.98662 9.03969C8.37787 10.3991 10.3864 11.8827 12.9601 12.6925C15.5329 13.4985 17.7721 13.7 19.1845 13.5688C20.6827 13.4305 23.4152 12.7343 23.4152 12.7343L26.049 11.9528L25.3109 11.1775Z" fill="#FEB30B"/>
<path d="M22.3419 18.8041C22.3419 18.8041 21.1435 19.8828 18.9355 18.8754C17.5637 18.25 15.9899 17.8383 13.9449 17.8559C11.7878 17.8716 11.0805 18.3722 9.99863 18.3231C8.92149 18.2767 7.62105 18.2304 6.91366 18.2246C5.90256 18.2163 5.35808 19.7858 7.17261 20.2328C8.37634 20.5283 9.80276 20.509 10.7469 20.3716C11.2875 20.2906 12.8298 20.2721 13.3913 20.329C14.5462 20.4423 15.8273 21.1159 15.8273 21.1159C15.8273 21.1159 12.9401 20.8328 11.3949 21.1232C9.52279 21.4733 7.53016 22.1029 6.86873 21.9412C6.2083 21.7832 4.34175 21.41 4.03922 22.5877C3.74013 23.7485 5.64273 24.5985 7.36732 24.5312C9.09191 24.4639 10.8917 23.7543 12.7135 23.633C13.8297 23.5573 15.9896 23.8199 18.4389 24.5673C20.8845 25.3157 23.1058 25.2269 24.074 24.8519C25.0395 24.4815 27.5756 26.6093 27.5756 26.6093L33.8617 25.7664L38.4959 26.0958C38.4959 26.0958 40.6395 28.4404 43.1628 26.7554C45.6862 25.0704 44.1823 21.7648 43.2373 21.7947C42.2922 21.8246 42.1659 23.0348 41.259 22.9987C40.3521 22.9625 38.1158 21.1053 36.5016 20.9596C35.0063 20.8259 33.3372 21.4128 32.8187 19.4781C32.3003 17.5433 36.5474 16.7403 37.5204 16.5913C38.4896 16.4432 42.3769 16.6936 43.9467 14.5902C45.5165 12.4868 44.5233 6.65169 41.6952 6.60396C39.3278 6.56437 38.1089 9.97746 35.9621 10.5527C34.2321 11.0163 33.3965 9.66898 31.2076 8.62851C29.5942 7.86053 27.9783 7.78307 27.0617 8.55904C26.3018 9.2053 29.3371 9.2972 28.8683 9.64612C28.8683 9.64612 26.7856 9.4186 25.3057 9.75931C23.8259 10.1 23.5875 10.3712 23.4939 10.7512C23.3601 11.2935 25.0344 10.8449 24.7256 11.3743C24.4178 11.9073 22.4569 11.703 21.3594 12.2204C20.2618 12.7378 20.4164 13.3145 20.7363 13.4521C21.0526 13.5906 22.9595 13.4745 23.1261 13.9921C23.2424 14.3517 22.1157 14.7453 21.7172 15.55C21.316 16.3593 21.6654 17.2467 21.8441 17.7052C22.0292 18.1581 22.3419 18.8041 22.3419 18.8041Z" fill="#01AB46"/>
<path d="M29.0837 12.3399C30.2412 12.1654 31.812 9.84233 33.6174 12.1899C35.0809 14.0946 32.4564 16.4887 30.1944 15.5475C29.1632 15.122 28.459 14.4135 27.6287 13.9341C27.0814 13.6182 26.4369 13.4599 26.1923 13.0828C25.7662 12.4154 27.8731 12.5247 29.0837 12.3399Z" fill="#78DE8A"/>
<path d="M38.5337 26.3409C38.5337 26.3409 37.5431 24.2216 35.3372 24.0551C33.1312 23.8885 29.6279 25.4732 28.7423 25.4274C27.8615 25.3842 26.61 25.253 25.8118 23.1819C25.166 21.5007 25.6747 21.1969 25.1828 18.9441C24.6107 16.3179 22.7483 16.139 22.1796 16.3233C21.7141 16.476 21.4342 16.8899 21.5059 17.2615C21.6102 17.7998 21.7823 18.0847 21.7823 18.0847C21.7823 18.0847 20.902 18.5199 21.1035 20.061C21.4062 22.3366 23.3147 22.8661 23.7599 24.0069C24.2061 25.1514 24.6302 27.255 26.7706 27.802C28.9111 28.349 28.9183 27.721 30.3942 27.812C30.9741 27.8481 32.0235 28.1331 33.0308 27.6957C34.0381 27.2583 34.212 26.7611 35.5737 26.3963C36.6286 26.1216 38.5337 26.3409 38.5337 26.3409Z" fill="#78DE8A"/>
<path d="M31.0645 14.2855C31.666 14.7146 32.6003 14.5998 33.0562 14.0988C33.5278 13.5817 33.1966 12.6136 32.4894 12.1173C31.7784 11.6219 30.8704 11.7455 30.4672 12.3241C30.063 12.899 30.36 13.7844 31.0645 14.2855Z" fill="#2A2C33"/>
<path d="M41.7507 8.62681C42.2674 8.96289 42.0315 9.60034 41.923 9.761C41.8145 9.92166 41.5157 10.2649 41.6651 10.5399C41.8156 10.8186 42.428 11.2886 42.1716 11.6563C41.9153 12.0241 40.919 11.7288 40.5486 10.7633C40.1783 9.79783 40.4959 9.24216 40.6671 8.97299C40.8345 8.70482 41.3209 8.3472 41.7507 8.62681Z" fill="#44484A"/>
<defs>
<linearGradient id="paint0_linear_1323_373" x1="-3.88373" y1="19.4608" x2="31.5023" y2="18.3621" gradientUnits="userSpaceOnUse">
<stop offset="0.171" stop-color="#01AB46"/>
<stop offset="0.499" stop-color="#128A3C"/>
<stop offset="1" stop-color="#2F502A"/>
</linearGradient>
</defs>
</svg>
