<svg width="420" height="451" viewBox="0 0 420 451" fill="none" xmlns="http://www.w3.org/2000/svg">
<path d="M170.239 287.801C163.04 287.801 163.027 298.99 170.239 298.99C177.44 298.99 177.453 287.801 170.239 287.801ZM170.239 287.801C163.04 287.801 163.027 298.99 170.239 298.99C177.44 298.99 177.453 287.801 170.239 287.801ZM170.239 287.801C163.04 287.801 163.027 298.99 170.239 298.99C177.44 298.99 177.453 287.801 170.239 287.801ZM170.239 287.801C163.04 287.801 163.027 298.99 170.239 298.99C177.44 298.99 177.453 287.801 170.239 287.801ZM170.239 287.801C163.04 287.801 163.027 298.99 170.239 298.99C177.44 298.99 177.453 287.801 170.239 287.801ZM170.239 287.801C163.04 287.801 163.027 298.99 170.239 298.99C177.44 298.99 177.453 287.801 170.239 287.801ZM170.239 287.801C163.04 287.801 163.027 298.99 170.239 298.99C177.44 298.99 177.453 287.801 170.239 287.801ZM170.239 287.801C163.04 287.801 163.027 298.99 170.239 298.99C177.44 298.99 177.453 287.801 170.239 287.801ZM170.239 287.801C163.04 287.801 163.027 298.99 170.239 298.99C177.44 298.99 177.453 287.801 170.239 287.801ZM170.239 287.801C163.04 287.801 163.027 298.99 170.239 298.99C177.44 298.99 177.453 287.801 170.239 287.801ZM170.239 287.801C163.04 287.801 163.027 298.99 170.239 298.99C177.44 298.99 177.453 287.801 170.239 287.801Z" fill="#C0CEDD"/>
<path d="M311.155 125.303C303.955 125.303 303.943 136.492 311.155 136.492C318.357 136.492 318.368 125.303 311.155 125.303Z" fill="#C0CEDD"/>
<path d="M409.191 -0.000430107C401.989 -0.000430107 401.977 11.1885 409.191 11.1885C416.391 11.1885 416.403 -0.000430107 409.191 -0.000430107Z" fill="#C0CEDD"/>
<path d="M350.102 257.718C342.901 257.718 342.888 268.907 350.102 268.907C357.301 268.907 357.314 257.718 350.102 257.718Z" fill="#C0CEDD"/>
<path d="M414.596 72.1871C407.395 72.1871 407.382 83.376 414.596 83.376C421.795 83.376 421.808 72.1871 414.596 72.1871Z" fill="#C0CEDD"/>
<path d="M378.801 355.284C371.6 355.284 371.587 366.473 378.801 366.473C386 366.473 386.013 355.284 378.801 355.284Z" fill="#C0CEDD"/>
<path d="M139.412 439.811C132.213 439.811 132.2 451 139.412 451C146.614 451 146.627 439.811 139.412 439.811Z" fill="#C0CEDD"/>
<path d="M208.229 373.028C201.029 373.028 201.016 384.217 208.229 384.217C215.43 384.217 215.443 373.028 208.229 373.028Z" fill="#C0CEDD"/>
<path d="M5.4062 117.891C-1.79587 117.891 -1.80706 129.08 5.4062 129.08C12.6058 129.08 12.6182 117.891 5.4062 117.891Z" fill="#C0CEDD"/>
<path d="M72.8847 192.789C65.6826 192.789 65.6715 203.978 72.8847 203.978C80.0843 203.978 80.0967 192.789 72.8847 192.789Z" fill="#C0CEDD"/>
<path d="M33.1699 54.3384C25.969 54.3384 25.9566 65.5273 33.1699 65.5273C40.3695 65.5273 40.3819 54.3384 33.1699 54.3384Z" fill="#C0CEDD"/>
</svg>
