<svg width="38" height="32" viewBox="0 0 38 32" fill="none" xmlns="http://www.w3.org/2000/svg">
<path d="M9.51172 4.78828C9.51172 8.53769 14.5786 12.7579 17.112 15.5473C17.602 15.9458 18.7948 16.5037 19.6454 15.5473C22.1789 12.7579 27.2457 9.29146 27.2457 4.78828C27.2457 2.39738 22.1789 -2.38441 18.3787 4.78828C14.5786 -2.38441 9.51172 2.39738 9.51172 4.78828Z" fill="#8F4FC2" stroke="#583276" stroke-width="0.1" stroke-linecap="round" stroke-linejoin="round"/>
<path d="M10.2401 11.748C11.4627 14.0723 15.9797 15.4946 18.4597 16.6268C18.8934 16.7583 19.8147 16.8231 20.0302 16.0298C20.6912 13.7037 22.7018 10.3609 21.2335 7.5694C20.4539 6.08727 15.7538 4.31691 15.7368 9.65872C11.0423 6.10775 9.46052 10.2659 10.2401 11.748Z" fill="#AC68E1" stroke="#583276" stroke-width="0.1" stroke-linecap="round" stroke-linejoin="round"/>
<path d="M5.45636 23.3115C9.86699 23.3115 14.8315 19.0043 18.1128 16.8506C18.5816 16.4341 19.2378 15.4202 18.1128 14.697C14.8315 12.5434 10.7537 8.23615 5.45636 8.23615C2.64382 8.23615 -2.98127 12.5434 5.45636 15.7738C-2.98127 19.0043 2.64382 23.3115 5.45636 23.3115Z" fill="#8F4FC2" stroke="#583276" stroke-width="0.1" stroke-linecap="round" stroke-linejoin="round"/>
<path d="M13.6434 24.4568C16.3776 23.4175 18.0506 19.5777 19.3825 17.4695C19.5373 17.1008 19.6135 16.3176 18.6803 16.1344C15.944 15.5725 12.0117 13.8633 8.72783 15.1115C6.98432 15.7742 4.90174 19.7697 11.1856 19.7841C7.00841 23.7749 11.8999 25.1195 13.6434 24.4568Z" fill="#AC68E1" stroke="#583276" stroke-width="0.1" stroke-linecap="round" stroke-linejoin="round"/>
<path d="M9.51172 27.2117C9.51172 23.4623 14.5786 19.2421 17.112 16.4527C17.602 16.0542 18.7948 15.4963 19.6454 16.4527C22.1789 19.2421 27.2457 22.7085 27.2457 27.2117C27.2457 29.6026 22.1789 34.3844 18.3787 27.2117C14.5786 34.3844 9.51172 29.6026 9.51172 27.2117Z" fill="#8F4FC2" stroke="#583276" stroke-width="0.1" stroke-linecap="round" stroke-linejoin="round"/>
<path d="M17.6007 25.742C16.3782 23.4177 18.1431 19.6076 18.804 17.2815C18.9779 16.919 19.5353 16.2922 20.3745 16.6846C22.8545 17.8168 27.1258 18.7718 28.5941 21.5633C29.3737 23.0455 27.7919 27.2036 23.0974 23.6526C23.0804 28.9945 18.3803 27.2241 17.6007 25.742Z" fill="#AC68E1" stroke="#583276" stroke-width="0.1" stroke-linecap="round" stroke-linejoin="round"/>
<path d="M32.5436 23.3115C28.133 23.3115 23.1685 19.0043 19.8872 16.8506C19.4184 16.4341 18.7622 15.4202 19.8872 14.697C23.1685 12.5434 27.2463 8.23615 32.5436 8.23615C35.3562 8.23615 40.9813 12.5434 32.5436 15.7738C40.9813 19.0043 35.3562 23.3115 32.5436 23.3115Z" fill="#8F4FC2" stroke="#583276" stroke-width="0.1" stroke-linecap="round" stroke-linejoin="round"/>
<path d="M30.1056 18.1999C27.3715 19.2392 22.8895 17.7389 20.1532 17.177C19.7268 17.0293 18.9893 16.5554 19.451 15.842C20.7828 13.7338 21.9063 10.1029 25.1901 8.85465C26.9336 8.19193 31.8251 9.53659 27.6479 13.5273C33.9317 13.5417 31.8492 17.5372 30.1056 18.1999Z" fill="#AC68E1" stroke="#583276" stroke-width="0.1" stroke-linecap="round" stroke-linejoin="round"/>
<path d="M19.4508 15.8416C18.9892 16.555 19.7266 17.0289 20.153 17.1767C21.0402 17.3589 22.1109 17.6397 23.2461 17.9006C22.0493 17.1594 19.8749 15.234 20.7518 13.4615C20.287 14.3259 19.8797 15.1627 19.4508 15.8416Z" fill="#F5CF6C" stroke="#F5CF6C" stroke-width="0.1" stroke-linecap="round" stroke-linejoin="round"/>
<path d="M18.6805 16.1345C19.6137 16.3177 19.5375 17.1009 19.3827 17.4695C18.9509 18.1531 18.4832 19.0187 17.9551 19.9119C18.1033 18.6594 17.865 15.998 15.7264 15.3718C16.7941 15.6536 17.7993 15.9536 18.6805 16.1345Z" fill="#F5CF6C" stroke="#F5CF6C" stroke-width="0.1" stroke-linecap="round" stroke-linejoin="round"/>
<path d="M20.2894 16.7168C19.4633 16.3194 18.9241 16.9394 18.7577 17.299C18.556 18.0484 18.2423 18.9523 17.9521 19.9109C18.7951 18.9045 20.9934 17.0814 23.0435 17.8402C22.0434 17.4387 21.0755 17.0862 20.2894 16.7168Z" fill="#F5CF6C" stroke="#F5CF6C" stroke-width="0.1" stroke-linecap="round" stroke-linejoin="round"/>
<path d="M19.9201 16.0716C19.7418 16.8507 18.8727 16.7661 18.4604 16.6264C17.6922 16.2456 16.7215 15.8299 15.7188 15.3628C17.1093 15.5202 20.0497 15.39 20.6869 13.6099C20.4029 14.4994 20.0972 15.336 19.9201 16.0716Z" fill="#F5CF6C" stroke="#F5CF6C" stroke-width="0.1" stroke-linecap="round" stroke-linejoin="round"/>
<ellipse cx="19.4433" cy="16.6783" rx="0.886699" ry="0.753769" fill="#55794F"/>
</svg>
