<svg width="64" height="53" viewBox="0 0 64 53" fill="none" xmlns="http://www.w3.org/2000/svg">
<path d="M18.4218 3.65012C11.5089 10.9494 25.211 21.1236 28.6055 23.8118L32.0001 26.5L35.3945 23.8118C38.7892 21.1236 52.4911 10.9494 45.5782 3.65014C40.4862 -1.72633 32.5658 2.30604 32 4.99426C31.4342 2.30604 23.5138 -1.72635 18.4218 3.65012Z" fill="#9CCB7F"/>
<path d="M32 4.99426C31.4342 2.30604 23.5138 -1.72635 18.4218 3.65012C11.5089 10.9494 25.211 21.1236 28.6055 23.8118L32.0001 26.5L35.3945 23.8118C38.7892 21.1236 52.4911 10.9494 45.5782 3.65014C40.4862 -1.72633 32.5658 2.30604 32 4.99426ZM32 4.99426C31.4343 6.7864 30.6423 11.1771 32.0001 14.403" stroke="#55794F" stroke-width="0.1" stroke-linecap="round" stroke-linejoin="round"/>
<path d="M4.22171 15.3309C13.0953 9.64439 25.4639 20.9155 28.732 23.7078L32 26.5001L28.732 29.2922C25.4639 32.0847 13.0953 43.3556 4.22173 37.6691C-2.31436 33.4806 2.58773 26.9654 5.85576 26.5C2.58773 26.0346 -2.31438 19.5194 4.22171 15.3309Z" fill="#9CCB7F"/>
<path d="M5.85576 26.5C2.58773 26.0346 -2.31438 19.5194 4.22171 15.3309C13.0953 9.64439 25.4639 20.9155 28.732 23.7078L32 26.5001L28.732 29.2922C25.4639 32.0847 13.0953 43.3556 4.22173 37.6691C-2.31436 33.4806 2.58773 26.9654 5.85576 26.5ZM5.85576 26.5C8.03444 26.0346 13.3722 25.3832 17.2939 26.5001" stroke="#55794F" stroke-width="0.1" stroke-linecap="round" stroke-linejoin="round"/>
<path d="M18.4218 49.3499C11.5089 42.0506 25.211 31.8764 28.6055 29.1882L32.0001 26.5L35.3945 29.1882C38.7892 31.8764 52.4911 42.0506 45.5782 49.3499C40.4862 54.7263 32.5658 50.694 32 48.0057C31.4342 50.694 23.5138 54.7263 18.4218 49.3499Z" fill="#9CCB7F"/>
<path d="M32 48.0057C31.4342 50.694 23.5138 54.7263 18.4218 49.3499C11.5089 42.0506 25.211 31.8764 28.6055 29.1882L32.0001 26.5L35.3945 29.1882C38.7892 31.8764 52.4911 42.0506 45.5782 49.3499C40.4862 54.7263 32.5658 50.694 32 48.0057ZM32 48.0057C31.4343 46.2136 30.6423 41.8229 32.0001 38.597" stroke="#55794F" stroke-width="0.1" stroke-linecap="round" stroke-linejoin="round"/>
<path d="M59.7783 15.3309C50.9047 9.64439 38.5361 20.9155 35.268 23.7078L32 26.5001L35.268 29.2922C38.5361 32.0847 50.9047 43.3556 59.7783 37.6691C66.3144 33.4806 61.4123 26.9654 58.1442 26.5C61.4123 26.0346 66.3144 19.5194 59.7783 15.3309Z" fill="#9CCB7F"/>
<path d="M58.1442 26.5C61.4123 26.0346 66.3144 19.5194 59.7783 15.3309C50.9047 9.64439 38.5361 20.9155 35.268 23.7078L32 26.5001L35.268 29.2922C38.5361 32.0847 50.9047 43.3556 59.7783 37.6691C66.3144 33.4806 61.4123 26.9654 58.1442 26.5ZM58.1442 26.5C55.9656 26.0346 50.6278 25.3831 46.7061 26.5001" stroke="#55794F" stroke-width="0.1" stroke-linecap="round" stroke-linejoin="round"/>
</svg>
