<svg width="60" height="49" viewBox="0 0 60 49" fill="none" xmlns="http://www.w3.org/2000/svg">
<path d="M56.6577 19.1971C61.4019 40.3258 40.3149 26.8443 29.0552 27.6891L25.4427 23.9641C26.846 23.6501 52.2994 -0.213078 56.6577 19.1971Z" fill="#748BDE" stroke="#485686" stroke-width="0.1" stroke-linecap="round" stroke-linejoin="round"/>
<path d="M32.19 1.49323C10.3986 -2.14619 18.6309 15.2421 20.5679 24.5428L32.19 25.756C32.19 24.5428 51.3024 4.68522 32.19 1.49323Z" fill="#6C80C6" stroke="#485686" stroke-width="0.1" stroke-linecap="round" stroke-linejoin="round"/>
<path d="M42.2252 46.4261C21.4874 53.0961 26.0724 34.7944 26.0943 25.3541L37.3022 22.5141C37.5484 23.7097 60.4136 40.576 42.2252 46.4261Z" fill="#6C80C6" stroke="#485686" stroke-width="0.1" stroke-linecap="round" stroke-linejoin="round"/>
<path d="M1.5266 15.3906C-4.19632 33.3221 15.9875 27.6906 27.6097 24.0512L30.5079 20.4103C29.0581 20.3338 6.54595 -0.336366 1.5266 15.3906Z" fill="#748BDE" stroke="#485686" stroke-width="0.1" stroke-linecap="round" stroke-linejoin="round"/>
<path d="M5.79302 39.6952C16.4923 53.5585 25.2514 37.6672 29.9749 28.2894L26.1405 22.3753C25.1231 23.2413 -3.5909 27.5363 5.79302 39.6952Z" fill="#748BDE" stroke="#485686" stroke-width="0.1" stroke-linecap="round" stroke-linejoin="round"/>
<ellipse cx="29.0554" cy="24.0496" rx="8.71658" ry="7.27882" fill="#9BAFF3"/>
<path d="M34.6162 24.0496C34.6162 26.5512 32.1706 28.6521 29.0552 28.6521C25.9398 28.6521 23.4941 26.5512 23.4941 24.0496C23.4941 21.548 25.9398 19.447 29.0552 19.447C32.1706 19.447 34.6162 21.548 34.6162 24.0496Z" fill="#FCDC8A" stroke="#9BAFF3" stroke-width="0.5"/>
</svg>
