<svg width="61" height="51" viewBox="0 0 61 51" fill="none" xmlns="http://www.w3.org/2000/svg">
<path d="M32.1703 6.8068C30.5761 4.14116 28.8491 5.69612 28.1849 6.8068C26.5907 9.47245 27.5207 15.6923 28.1849 18.469H32.1703C32.8345 15.6923 33.7645 9.47245 32.1703 6.8068Z" fill="#FCF4E1" stroke="#76563F" stroke-width="0.1" stroke-linecap="round" stroke-linejoin="round"/>
<path d="M16.0047 11.0249C12.6229 10.0824 12.7169 12.2029 13.1866 13.381C14.3138 16.2083 20.2318 20.0566 23.0499 21.6274L25.868 19.2713C23.9893 16.9152 19.3864 11.9673 16.0047 11.0249Z" fill="#FCF4E1" stroke="#76563F" stroke-width="0.1" stroke-linecap="round" stroke-linejoin="round"/>
<path d="M8.1413 23.5641C4.95297 24.8969 6.81283 26.3408 8.1413 26.8962C11.3296 28.229 18.769 27.4515 22.0902 26.8961L22.0902 23.5641C18.769 23.0088 11.3296 22.2313 8.1413 23.5641Z" fill="#FCF4E1" stroke="#76563F" stroke-width="0.1" stroke-linecap="round" stroke-linejoin="round"/>
<path d="M13.1861 37.0796C12.0589 39.9069 14.5952 39.8284 16.0043 39.4357C19.386 38.4933 23.9889 33.5454 25.8676 31.1893L23.0495 28.8332C20.2314 30.4039 14.3134 34.2522 13.1861 37.0796Z" fill="#FCF4E1" stroke="#76563F" stroke-width="0.1" stroke-linecap="round" stroke-linejoin="round"/>
<path d="M32.1703 43.6536C30.5761 46.3193 28.8491 44.7643 28.1849 43.6536C26.5907 40.988 27.5207 34.7682 28.1849 31.9914H32.1703C32.8345 34.7682 33.7645 40.988 32.1703 43.6536Z" fill="#FCF4E1" stroke="#76563F" stroke-width="0.1" stroke-linecap="round" stroke-linejoin="round"/>
<path d="M47.1674 37.0796C48.2946 39.9069 45.7583 39.8284 44.3493 39.4357C40.9675 38.4933 36.3646 33.5454 34.4859 31.1893L37.304 28.8332C40.1221 30.4039 46.0401 34.2522 47.1674 37.0796Z" fill="#FCF4E1" stroke="#76563F" stroke-width="0.1" stroke-linecap="round" stroke-linejoin="round"/>
<path d="M52.2132 23.5641C55.4015 24.8969 53.5417 26.3408 52.2132 26.8962C49.0249 28.229 41.5854 27.4515 38.2643 26.8961L38.2643 23.5641C41.5854 23.0088 49.0249 22.2313 52.2132 23.5641Z" fill="#FCF4E1" stroke="#76563F" stroke-width="0.1" stroke-linecap="round" stroke-linejoin="round"/>
<path d="M44.3498 11.0249C47.7316 10.0824 47.6376 12.2029 47.1679 13.381C46.0407 16.2083 40.1227 20.0566 37.3045 21.6274L34.4865 19.2713C36.3652 16.9152 40.9681 11.9673 44.3498 11.0249Z" fill="#FCF4E1" stroke="#76563F" stroke-width="0.1" stroke-linecap="round" stroke-linejoin="round"/>
<path d="M24.5661 7.61025C22.0049 5.47078 21.1717 7.39151 21.0753 8.6193C20.8438 11.566 24.3764 17.2645 26.1716 19.7453L29.6624 18.7363C29.0308 15.9191 27.1273 9.74972 24.5661 7.61025Z" fill="#FFF9E9" stroke="#76563F" stroke-width="0.1" stroke-linecap="round" stroke-linejoin="round"/>
<path d="M11.1883 16.1934C7.64342 16.1518 8.70309 18.0709 9.67604 19.0357C12.0111 21.3511 19.2239 23.4378 22.5384 24.1917L24.0506 21.3494C21.2401 19.6481 14.7331 16.235 11.1883 16.1934Z" fill="#FFF9E9" stroke="#76563F" stroke-width="0.1" stroke-linecap="round" stroke-linejoin="round"/>
<path d="M9.12154 30.0097C6.79033 32.1968 9.17404 33.1506 10.6573 33.3542C14.2171 33.8427 20.7317 31.0806 23.5439 29.6386L22.0082 26.2941C18.684 26.6214 11.4528 27.8227 9.12154 30.0097Z" fill="#FFF9E9" stroke="#76563F" stroke-width="0.1" stroke-linecap="round" stroke-linejoin="round"/>
<path d="M19.3963 41.3534C19.67 44.3467 22.0881 43.6274 23.2629 42.8936C26.0825 41.1324 28.1504 35.2261 28.832 32.4931L24.9653 30.9529C22.9949 33.1725 19.1225 38.36 19.3963 41.3534Z" fill="#FFF9E9" stroke="#76563F" stroke-width="0.1" stroke-linecap="round" stroke-linejoin="round"/>
<path d="M39.9243 42.381C39.6928 45.3277 37.5006 44.2815 36.4335 43.3901C33.8723 41.2506 31.9688 35.0812 31.3372 32.264L34.828 31.255C36.6232 33.7358 40.1557 39.4343 39.9243 42.381Z" fill="#FFF9E9" stroke="#76563F" stroke-width="0.1" stroke-linecap="round" stroke-linejoin="round"/>
<path d="M51.3235 31.9642C53.6586 34.2797 51.2883 34.8238 49.8113 34.8065C46.2664 34.7649 39.7594 31.3518 36.949 29.6505L38.4612 26.8082C41.7757 27.5621 48.9884 29.6488 51.3235 31.9642Z" fill="#FFF9E9" stroke="#76563F" stroke-width="0.1" stroke-linecap="round" stroke-linejoin="round"/>
<path d="M50.3424 17.6458C53.9023 18.1343 52.8495 20.079 51.8782 20.9903C49.547 23.1773 42.3157 24.3786 38.9915 24.7059L37.4558 21.3614C40.2681 19.9194 46.7826 17.1573 50.3424 17.6458Z" fill="#FFF9E9" stroke="#76563F" stroke-width="0.1" stroke-linecap="round" stroke-linejoin="round"/>
<path d="M37.7367 8.10654C40.5563 6.34536 41.4893 8.39953 41.6033 9.64676C41.8771 12.6401 38.0047 17.8277 36.0342 20.0473L32.1676 18.5071C32.8491 15.774 34.9171 9.86771 37.7367 8.10654Z" fill="#FFF9E9" stroke="#76563F" stroke-width="0.1" stroke-linecap="round" stroke-linejoin="round"/>
<ellipse cx="30.3104" cy="25.3414" rx="7.97642" ry="6.66881" fill="#FCDC8A" stroke="#F5CF6C"/>
</svg>
