<svg width="383" height="403" viewBox="0 0 383 403" fill="none" xmlns="http://www.w3.org/2000/svg">
<path d="M55.366 112.084L72.5001 154.118M73.0962 103.375L73.9655 151.625M79.7396 97.34L75.4056 149.371M87.5471 116.47L77.0101 154.598M102.6 110.366L80.1371 152.282M104.71 128.891L80.808 155.002M122.172 106.91L85.4417 147.549M102.052 99.7134L81.6438 147.145M90.5861 87.8991L77.8458 146.741M61.8926 91.3483L71.845 148.992" stroke="#398A2C" stroke-width="0.5" stroke-linecap="round" stroke-linejoin="round"/>
<path d="M83.6566 96.1028C84.0506 99.5364 80.9413 97.0415 79.1452 96.9861L78.6364 96.334C78.8638 96.3078 83.2946 92.9485 83.6566 96.1028Z" fill="#748BDE" stroke="#485686" stroke-width="0.1" stroke-linecap="round" stroke-linejoin="round"/>
<path d="M80.0837 92.8809C76.6967 91.9364 77.7058 94.835 77.8553 96.3439L79.674 96.7321C79.6945 96.5395 83.0543 93.7092 80.0837 92.8809Z" fill="#6C80C6" stroke="#485686" stroke-width="0.1" stroke-linecap="round" stroke-linejoin="round"/>
<path d="M80.913 100.182C77.5187 100.892 78.5533 98.0638 78.7161 96.5657L80.5377 96.3036C80.5564 96.4975 83.89 99.5595 80.913 100.182Z" fill="#6C80C6" stroke="#485686" stroke-width="0.1" stroke-linecap="round" stroke-linejoin="round"/>
<path d="M74.9968 94.5706C73.7885 97.3205 77.0776 96.7664 78.9782 96.3843L79.4983 95.8552C79.2702 95.8187 76.0567 92.1588 74.9968 94.5706Z" fill="#748BDE" stroke="#485686" stroke-width="0.1" stroke-linecap="round" stroke-linejoin="round"/>
<path d="M75.2614 98.5003C76.7205 100.881 78.3749 98.506 79.2807 97.0969L78.7737 96.0937C78.5981 96.214 73.9817 96.4124 75.2614 98.5003Z" fill="#748BDE" stroke="#485686" stroke-width="0.1" stroke-linecap="round" stroke-linejoin="round"/>
<ellipse cx="79.2067" cy="96.4085" rx="1.38715" ry="1.16188" transform="rotate(6.07151 79.2067 96.4085)" fill="#9BAFF3"/>
<path d="M79.8778 96.4797C79.8513 96.7284 79.565 96.974 79.1513 96.93C78.7376 96.886 78.5094 96.5856 78.5358 96.337C78.5623 96.0883 78.8486 95.8427 79.2623 95.8867C79.6759 95.9307 79.9042 96.2311 79.8778 96.4797Z" fill="#FCDC8A" stroke="#9BAFF3" stroke-width="0.5"/>
<path d="M105.492 113.648C102.669 115.634 103.377 111.702 102.571 110.091L102.901 109.332C103.032 109.52 108.085 111.825 105.492 113.648Z" fill="#748BDE" stroke="#485686" stroke-width="0.1" stroke-linecap="round" stroke-linejoin="round"/>
<path d="M106.617 108.961C105.833 105.524 103.772 107.796 102.521 108.647L103.046 110.436C103.224 110.363 107.304 111.976 106.617 108.961Z" fill="#6C80C6" stroke="#485686" stroke-width="0.1" stroke-linecap="round" stroke-linejoin="round"/>
<path d="M100.611 113.175C98.3735 110.52 101.345 110.083 102.735 109.513L103.832 110.994C103.671 111.103 102.573 115.503 100.611 113.175Z" fill="#6C80C6" stroke="#485686" stroke-width="0.1" stroke-linecap="round" stroke-linejoin="round"/>
<path d="M102.714 105.281C99.7288 105.527 101.78 108.163 103.019 109.657L103.73 109.863C103.654 109.645 105.333 105.065 102.714 105.281Z" fill="#748BDE" stroke="#485686" stroke-width="0.1" stroke-linecap="round" stroke-linejoin="round"/>
<path d="M99.3958 107.389C98.0031 109.811 100.872 110.137 102.538 110.264L103.177 109.338C102.988 109.241 100.617 105.264 99.3958 107.389Z" fill="#748BDE" stroke="#485686" stroke-width="0.1" stroke-linecap="round" stroke-linejoin="round"/>
<ellipse cx="1.39042" cy="1.15915" rx="1.39042" ry="1.15915" transform="matrix(0.37953 0.925179 -0.92421 0.381885 103.65 108.141)" fill="#9BAFF3"/>
<path d="M103.363 110.497C103.134 110.591 102.782 110.457 102.623 110.07C102.464 109.683 102.62 109.339 102.849 109.244C103.079 109.149 103.431 109.284 103.59 109.671C103.748 110.058 103.593 110.402 103.363 110.497Z" fill="#FCDC8A" stroke="#9BAFF3" stroke-width="0.5"/>
<path d="M59.2687 114C57.3012 116.839 56.6137 112.904 55.3033 111.672L55.3515 110.845C55.5393 110.976 61.0761 111.391 59.2687 114Z" fill="#748BDE" stroke="#485686" stroke-width="0.1" stroke-linecap="round" stroke-linejoin="round"/>
<path d="M58.7123 109.212C56.7948 106.257 55.6412 109.102 54.7588 110.334L55.8669 111.831C56.0091 111.7 60.3941 111.803 58.7123 109.212Z" fill="#6C80C6" stroke="#485686" stroke-width="0.1" stroke-linecap="round" stroke-linejoin="round"/>
<path d="M54.5226 115.243C51.5094 113.525 54.149 112.088 55.2585 111.071L56.7973 112.082C56.6836 112.24 57.1654 116.749 54.5226 115.243Z" fill="#6C80C6" stroke="#485686" stroke-width="0.1" stroke-linecap="round" stroke-linejoin="round"/>
<path d="M53.7839 107.108C51.0653 108.371 53.8972 110.136 55.5743 111.109L56.3131 111.057C56.1661 110.878 56.1683 106 53.7839 107.108Z" fill="#748BDE" stroke="#485686" stroke-width="0.1" stroke-linecap="round" stroke-linejoin="round"/>
<path d="M51.3932 110.233C50.9184 112.988 53.7244 112.302 55.3323 111.845L55.6134 110.755C55.4024 110.729 51.8096 107.817 51.3932 110.233Z" fill="#748BDE" stroke="#485686" stroke-width="0.1" stroke-linecap="round" stroke-linejoin="round"/>
<ellipse cx="1.389" cy="1.16034" rx="1.389" ry="1.16034" transform="matrix(0.675119 0.737709 -0.735669 0.677341 55.6465 109.468)" fill="#9BAFF3"/>
<path d="M56.1863 111.777C56.0032 111.946 55.6265 111.941 55.3447 111.633C55.063 111.325 55.0904 110.949 55.2735 110.78C55.4567 110.611 55.8333 110.616 56.1151 110.924C56.3968 111.232 56.3694 111.609 56.1863 111.777Z" fill="#FCDC8A" stroke="#9BAFF3" stroke-width="0.5"/>
<path d="M66.0655 93.7356C64.0981 96.5747 63.4105 92.6401 62.1001 91.4077L62.1484 90.5808C62.3361 90.7119 67.873 91.1274 66.0655 93.7356Z" fill="#748BDE" stroke="#485686" stroke-width="0.1" stroke-linecap="round" stroke-linejoin="round"/>
<path d="M65.5092 88.9476C63.5916 85.993 62.438 88.8382 61.5557 90.0702L62.6637 91.5674C62.806 91.4364 67.191 91.539 65.5092 88.9476Z" fill="#6C80C6" stroke="#485686" stroke-width="0.1" stroke-linecap="round" stroke-linejoin="round"/>
<path d="M61.3195 94.979C58.3063 93.2614 60.9459 91.8242 62.0554 90.8074L63.5942 91.8183C63.4804 91.9764 63.9623 96.4855 61.3195 94.979Z" fill="#6C80C6" stroke="#485686" stroke-width="0.1" stroke-linecap="round" stroke-linejoin="round"/>
<path d="M60.5808 86.8437C57.8622 88.1071 60.694 89.8717 62.3712 90.845L63.11 90.7926C62.9629 90.6139 62.9652 85.7356 60.5808 86.8437Z" fill="#748BDE" stroke="#485686" stroke-width="0.1" stroke-linecap="round" stroke-linejoin="round"/>
<path d="M58.1901 89.9695C57.7153 92.7242 60.5213 92.038 62.1292 91.5807L62.4103 90.4913C62.1993 90.4652 58.6065 87.5535 58.1901 89.9695Z" fill="#748BDE" stroke="#485686" stroke-width="0.1" stroke-linecap="round" stroke-linejoin="round"/>
<ellipse cx="1.389" cy="1.16034" rx="1.389" ry="1.16034" transform="matrix(0.675119 0.737709 -0.735669 0.677341 62.4434 89.2041)" fill="#9BAFF3"/>
<path d="M62.9832 91.5134C62.8 91.682 62.4234 91.6772 62.1416 91.3693C61.8599 91.0614 61.8873 90.6846 62.0704 90.516C62.2535 90.3474 62.6302 90.3522 62.9119 90.6601C63.1937 90.968 63.1663 91.3448 62.9832 91.5134Z" fill="#FCDC8A" stroke="#9BAFF3" stroke-width="0.5"/>
<path d="M94.3097 89.9978C92.3422 92.8369 91.6547 88.9023 90.3443 87.6699L90.3925 86.843C90.5803 86.9741 96.1171 87.3896 94.3097 89.9978Z" fill="#748BDE" stroke="#485686" stroke-width="0.1" stroke-linecap="round" stroke-linejoin="round"/>
<path d="M93.7533 85.2098C91.8358 82.2552 90.6822 85.1004 89.7998 86.3324L90.9079 87.8296C91.0502 87.6986 95.4351 87.8012 93.7533 85.2098Z" fill="#6C80C6" stroke="#485686" stroke-width="0.1" stroke-linecap="round" stroke-linejoin="round"/>
<path d="M89.5637 91.2412C86.5504 89.5236 89.19 88.0864 90.2995 87.0697L91.8383 88.0805C91.7246 88.2386 92.2065 92.7477 89.5637 91.2412Z" fill="#6C80C6" stroke="#485686" stroke-width="0.1" stroke-linecap="round" stroke-linejoin="round"/>
<path d="M88.8249 83.1059C86.1063 84.3693 88.9382 86.134 90.6153 87.1072L91.3541 87.0548C91.2071 86.8761 91.2093 81.9978 88.8249 83.1059Z" fill="#748BDE" stroke="#485686" stroke-width="0.1" stroke-linecap="round" stroke-linejoin="round"/>
<path d="M86.4342 86.2317C85.9594 88.9864 88.7654 88.3002 90.3733 87.8429L90.6544 86.7535C90.4434 86.7274 86.8506 83.8157 86.4342 86.2317Z" fill="#748BDE" stroke="#485686" stroke-width="0.1" stroke-linecap="round" stroke-linejoin="round"/>
<ellipse cx="1.389" cy="1.16034" rx="1.389" ry="1.16034" transform="matrix(0.675119 0.737709 -0.735669 0.677341 90.6875 85.4663)" fill="#9BAFF3"/>
<path d="M91.2273 87.7756C91.0442 87.9442 90.6675 87.9394 90.3858 87.6315C90.104 87.3237 90.1314 86.9468 90.3145 86.7782C90.4977 86.6096 90.8743 86.6144 91.1561 86.9223C91.4378 87.2302 91.4104 87.607 91.2273 87.7756Z" fill="#FCDC8A" stroke="#9BAFF3" stroke-width="0.5"/>
<path d="M126.817 107.27C126.312 110.689 123.952 107.472 122.232 106.952L121.909 106.19C122.135 106.224 127.281 104.129 126.817 107.27Z" fill="#748BDE" stroke="#485686" stroke-width="0.1" stroke-linecap="round" stroke-linejoin="round"/>
<path d="M124.198 103.229C121.171 101.438 121.397 104.5 121.152 105.997L122.809 106.844C122.878 106.663 126.853 104.801 124.198 103.229Z" fill="#6C80C6" stroke="#485686" stroke-width="0.1" stroke-linecap="round" stroke-linejoin="round"/>
<path d="M123.115 110.498C119.654 110.303 121.383 107.84 121.927 106.435L123.754 106.654C123.722 106.846 126.151 110.67 123.115 110.498Z" fill="#6C80C6" stroke="#485686" stroke-width="0.1" stroke-linecap="round" stroke-linejoin="round"/>
<path d="M118.849 103.542C116.973 105.885 120.292 106.203 122.226 106.327L122.865 105.951C122.654 105.857 120.495 101.487 118.849 103.542Z" fill="#748BDE" stroke="#485686" stroke-width="0.1" stroke-linecap="round" stroke-linejoin="round"/>
<path d="M118.091 107.407C118.886 110.085 121.096 108.22 122.335 107.094L122.104 105.993C121.903 106.064 117.394 105.057 118.091 107.407Z" fill="#748BDE" stroke="#485686" stroke-width="0.1" stroke-linecap="round" stroke-linejoin="round"/>
<ellipse cx="1.38744" cy="1.16164" rx="1.38744" ry="1.16164" transform="matrix(0.932858 0.360243 -0.358824 0.933405 121.563 104.826)" fill="#9BAFF3"/>
<path d="M123.07 106.653C122.98 106.886 122.641 107.049 122.252 106.899C121.864 106.749 121.721 106.4 121.811 106.167C121.9 105.933 122.24 105.77 122.629 105.92C123.017 106.07 123.16 106.42 123.07 106.653Z" fill="#FCDC8A" stroke="#9BAFF3" stroke-width="0.5"/>
<path d="M100.307 128.06C100.082 131.509 103.065 128.86 104.856 128.713L105.332 128.036C105.104 128.022 100.514 124.891 100.307 128.06Z" fill="#748BDE" stroke="#485686" stroke-width="0.1" stroke-linecap="round" stroke-linejoin="round"/>
<path d="M103.717 124.661C107.054 123.546 106.188 126.492 106.113 128.007L104.316 128.487C104.286 128.295 100.791 125.639 103.717 124.661Z" fill="#6C80C6" stroke="#485686" stroke-width="0.1" stroke-linecap="round" stroke-linejoin="round"/>
<path d="M103.248 131.995C106.673 132.532 105.501 129.76 105.265 128.272L103.432 128.102C103.423 128.297 100.244 131.524 103.248 131.995Z" fill="#6C80C6" stroke="#485686" stroke-width="0.1" stroke-linecap="round" stroke-linejoin="round"/>
<path d="M108.881 126.091C110.223 128.776 106.911 128.389 104.994 128.104L104.448 127.602C104.675 127.554 107.704 123.736 108.881 126.091Z" fill="#748BDE" stroke="#485686" stroke-width="0.1" stroke-linecap="round" stroke-linejoin="round"/>
<path d="M108.81 130.029C107.469 132.481 105.7 130.192 104.726 128.831L105.184 127.803C105.365 127.915 109.985 127.879 108.81 130.029Z" fill="#748BDE" stroke="#485686" stroke-width="0.1" stroke-linecap="round" stroke-linejoin="round"/>
<ellipse cx="1.38744" cy="1.16164" rx="1.38744" ry="1.16164" transform="matrix(-0.987764 0.155954 0.154452 0.988 105.958 126.775)" fill="#9BAFF3"/>
<path d="M104.1 128.245C104.138 128.492 104.436 128.723 104.848 128.658C105.259 128.593 105.472 128.281 105.433 128.034C105.395 127.787 105.097 127.557 104.686 127.621C104.274 127.686 104.061 127.998 104.1 128.245Z" fill="#FCDC8A" stroke="#9BAFF3" stroke-width="0.5"/>
<path d="M68.4553 102.519C68.2302 105.969 71.2133 103.32 73.0044 103.173L73.4805 102.496C73.2522 102.482 68.6621 99.3507 68.4553 102.519Z" fill="#748BDE" stroke="#485686" stroke-width="0.1" stroke-linecap="round" stroke-linejoin="round"/>
<path d="M71.8659 99.1206C75.2023 98.0058 74.3366 100.952 74.2614 102.466L72.464 102.946C72.4341 102.755 68.9397 100.098 71.8659 99.1206Z" fill="#6C80C6" stroke="#485686" stroke-width="0.1" stroke-linecap="round" stroke-linejoin="round"/>
<path d="M71.3962 106.454C74.8211 106.991 73.6491 104.219 73.413 102.731L71.5808 102.562C71.5716 102.756 68.3924 105.983 71.3962 106.454Z" fill="#6C80C6" stroke="#485686" stroke-width="0.1" stroke-linecap="round" stroke-linejoin="round"/>
<path d="M77.0297 100.551C78.3715 103.236 75.0593 102.849 73.1423 102.564L72.5969 102.061C72.8229 102.013 75.8529 98.1953 77.0297 100.551Z" fill="#748BDE" stroke="#485686" stroke-width="0.1" stroke-linecap="round" stroke-linejoin="round"/>
<path d="M76.958 104.489C75.6175 106.94 73.8487 104.652 72.8749 103.291L73.332 102.263C73.5133 102.374 78.1337 102.339 76.958 104.489Z" fill="#748BDE" stroke="#485686" stroke-width="0.1" stroke-linecap="round" stroke-linejoin="round"/>
<ellipse cx="1.38744" cy="1.16164" rx="1.38744" ry="1.16164" transform="matrix(-0.987764 0.155954 0.154452 0.988 74.1064 101.235)" fill="#9BAFF3"/>
<path d="M72.2483 102.705C72.2868 102.951 72.5848 103.182 72.996 103.117C73.4071 103.053 73.6202 102.741 73.5817 102.494C73.5431 102.247 73.2451 102.016 72.834 102.081C72.4228 102.146 72.2097 102.458 72.2483 102.705Z" fill="#FCDC8A" stroke="#9BAFF3" stroke-width="0.5"/>
<path d="M82.8548 116.107C83.3603 112.687 85.7194 115.905 87.4397 116.425L87.7628 117.187C87.5364 117.153 82.3904 119.248 82.8548 116.107Z" fill="#748BDE" stroke="#485686" stroke-width="0.1" stroke-linecap="round" stroke-linejoin="round"/>
<path d="M85.4739 120.147C88.5011 121.939 88.2745 118.877 88.5195 117.38L86.8633 116.533C86.7938 116.714 82.8187 118.576 85.4739 120.147Z" fill="#6C80C6" stroke="#485686" stroke-width="0.1" stroke-linecap="round" stroke-linejoin="round"/>
<path d="M86.5567 112.878C90.0179 113.074 88.289 115.537 87.7452 116.942L85.9183 116.723C85.9502 116.53 83.521 112.707 86.5567 112.878Z" fill="#6C80C6" stroke="#485686" stroke-width="0.1" stroke-linecap="round" stroke-linejoin="round"/>
<path d="M90.8227 119.835C92.6993 117.492 89.3799 117.174 87.4457 117.049L86.8069 117.426C87.0178 117.52 89.1768 121.89 90.8227 119.835Z" fill="#748BDE" stroke="#485686" stroke-width="0.1" stroke-linecap="round" stroke-linejoin="round"/>
<path d="M91.5809 115.97C90.7861 113.292 88.5755 115.157 87.3371 116.283L87.5678 117.383C87.7684 117.313 92.278 118.319 91.5809 115.97Z" fill="#748BDE" stroke="#485686" stroke-width="0.1" stroke-linecap="round" stroke-linejoin="round"/>
<ellipse cx="1.38744" cy="1.16164" rx="1.38744" ry="1.16164" transform="matrix(-0.932858 -0.360243 0.358824 -0.933405 88.1084 118.551)" fill="#9BAFF3"/>
<path d="M86.6018 116.724C86.6915 116.49 87.0314 116.327 87.4196 116.477C87.8079 116.627 87.9507 116.977 87.8611 117.21C87.7714 117.443 87.4315 117.606 87.0433 117.456C86.655 117.306 86.5121 116.957 86.6018 116.724Z" fill="#FCDC8A" stroke="#9BAFF3" stroke-width="0.5"/>
<path d="M97.5446 101.003C97.1505 97.5691 100.26 100.064 102.056 100.119L102.565 100.771C102.337 100.798 97.9065 104.157 97.5446 101.003Z" fill="#748BDE" stroke="#485686" stroke-width="0.1" stroke-linecap="round" stroke-linejoin="round"/>
<path d="M101.118 104.225C104.504 105.169 103.495 102.27 103.346 100.762L101.527 100.373C101.507 100.566 98.1469 103.396 101.118 104.225Z" fill="#6C80C6" stroke="#485686" stroke-width="0.1" stroke-linecap="round" stroke-linejoin="round"/>
<path d="M100.288 96.9235C103.682 96.2138 102.648 99.0417 102.485 100.54L100.664 100.802C100.645 100.608 97.3111 97.5459 100.288 96.9235Z" fill="#6C80C6" stroke="#485686" stroke-width="0.1" stroke-linecap="round" stroke-linejoin="round"/>
<path d="M106.204 102.535C107.413 99.7849 104.124 100.339 102.223 100.721L101.703 101.25C101.931 101.287 105.145 104.947 106.204 102.535Z" fill="#748BDE" stroke="#485686" stroke-width="0.1" stroke-linecap="round" stroke-linejoin="round"/>
<path d="M105.94 98.6051C104.481 96.2245 102.826 98.5995 101.92 100.009L102.427 101.012C102.603 100.891 107.219 100.693 105.94 98.6051Z" fill="#748BDE" stroke="#485686" stroke-width="0.1" stroke-linecap="round" stroke-linejoin="round"/>
<ellipse cx="101.994" cy="100.697" rx="1.38715" ry="1.16188" transform="rotate(-173.928 101.994 100.697)" fill="#9BAFF3"/>
<path d="M101.323 100.626C101.35 100.377 101.636 100.131 102.05 100.175C102.464 100.219 102.692 100.52 102.665 100.769C102.639 101.017 102.353 101.263 101.939 101.219C101.525 101.175 101.297 100.874 101.323 100.626Z" fill="#FCDC8A" stroke="#9BAFF3" stroke-width="0.5"/>
<path d="M72.2463 109.416L81.423 167.466M61.8871 120.275L79.2242 166.057M83.581 131.117L83.7792 167.094M92.0911 119.672L86.5072 164.906M104.289 114.889L88.4572 161.963" stroke="#AABF7D" stroke-width="2" stroke-linecap="round" stroke-linejoin="round"/>
<path d="M72.2463 109.416L81.423 167.466M61.8871 120.275L79.2242 166.057M83.581 131.117L83.7792 167.094M92.0911 119.672L86.5072 164.906M104.289 114.889L88.4572 161.963" stroke="url(#paint0_linear_1039_916)" stroke-width="2" stroke-linecap="round" stroke-linejoin="round"/>
<path d="M103.561 98.0617C110.445 93.2296 114.933 100.296 115.363 103.115C115.045 102.684 114.418 102.312 113.491 102.386C112.067 103.233 109.703 106.237 108.82 111.277C108.471 113.274 106.718 118.367 102.682 116.362C101.86 115.959 102.069 114.931 102.276 114.467C102.276 114.467 102.53 113.625 103.154 112.557C103.703 110.334 102.406 107.285 102.115 106.286C101.104 103.116 101.746 99.3351 103.561 98.0617Z" fill="#FFFAED"/>
<path d="M105.023 110.213C105.835 109.473 106.284 108.32 107.171 107.193C109.962 103.646 112.077 102.499 113.491 102.386M105.023 110.213C103.806 109.318 102.582 107.748 102.115 106.286M105.023 110.213C103.007 112.051 102.276 114.467 102.276 114.467C102.069 114.931 101.86 115.959 102.682 116.362C106.718 118.367 108.471 113.274 108.82 111.277C109.703 106.237 112.067 103.233 113.491 102.386M113.491 102.386C114.418 102.312 115.045 102.684 115.363 103.115C114.933 100.296 110.445 93.2296 103.561 98.0617C101.746 99.3351 101.104 103.116 102.115 106.286M102.115 106.286C102.406 107.285 103.703 110.334 103.154 112.557" stroke="#758672" stroke-width="0.5" stroke-linecap="round" stroke-linejoin="round"/>
<path d="M107.033 104.731C106.963 106.441 105.738 111.118 105.135 113.243C104.524 114.926 103.403 117.247 103.798 113.067C104.193 108.887 105.228 105.651 105.696 104.555C106.124 103.553 107.103 103.021 107.033 104.731Z" fill="#F5CF6C" stroke="#EEB648" stroke-linecap="round" stroke-linejoin="round"/>
<path fill-rule="evenodd" clip-rule="evenodd" d="M105.023 110.213C103.806 109.318 102.582 107.748 102.115 106.286C102.163 106.45 102.238 106.669 102.327 106.931C102.782 108.263 103.613 110.699 103.154 112.557C102.53 113.625 102.276 114.467 102.276 114.467C102.069 114.931 101.86 115.959 102.682 116.362C106.718 118.367 108.471 113.274 108.82 111.277C109.703 106.237 112.067 103.233 113.491 102.386C112.077 102.499 109.962 103.646 107.171 107.193C106.795 107.67 106.497 108.153 106.218 108.607C105.838 109.223 105.491 109.787 105.023 110.213Z" fill="#EDF5D7"/>
<path d="M105.023 110.213C103.806 109.318 102.582 107.748 102.115 106.286M105.023 110.213C103.007 112.051 102.276 114.467 102.276 114.467M105.023 110.213C105.491 109.787 105.838 109.223 106.218 108.607C106.497 108.153 106.795 107.67 107.171 107.193C109.962 103.646 112.077 102.499 113.491 102.386M113.491 102.386C114.418 102.312 115.045 102.684 115.363 103.115C114.933 100.296 110.445 93.2296 103.561 98.0617C101.746 99.3351 101.104 103.116 102.115 106.286M113.491 102.386C112.067 103.233 109.703 106.237 108.82 111.277C108.471 113.274 106.718 118.367 102.682 116.362C101.86 115.959 102.069 114.931 102.276 114.467M102.115 106.286C102.163 106.45 102.238 106.669 102.327 106.931C102.782 108.263 103.613 110.699 103.154 112.557C102.53 113.625 102.276 114.467 102.276 114.467" stroke="#758672" stroke-width="0.5" stroke-linecap="round" stroke-linejoin="round"/>
<path d="M62.7688 95.0868C66.546 87.5718 73.8437 91.6722 75.5575 93.9517C75.0727 93.7228 74.3452 93.6922 73.563 94.1962C72.7097 95.6163 72.0488 99.3811 73.6571 104.239C74.2942 106.163 75.1611 111.479 70.6569 111.623C69.7422 111.657 69.439 110.653 69.4017 110.146C69.4017 110.146 69.2276 109.284 69.2715 108.048C68.7027 105.83 66.117 103.758 65.3882 103.016C62.9975 100.702 61.7734 97.0672 62.7688 95.0868Z" fill="#FFFAED"/>
<path d="M69.8084 105.099C70.1733 104.063 70.0226 102.834 70.2706 101.421C71.051 96.9756 72.3706 94.9646 73.563 94.1962M69.8084 105.099C68.3124 104.886 66.491 104.083 65.3882 103.016M69.8084 105.099C68.9022 107.672 69.4017 110.146 69.4017 110.146C69.439 110.653 69.7422 111.657 70.6569 111.623C75.1611 111.479 74.2942 106.163 73.6571 104.239C72.0488 99.3811 72.7097 95.6163 73.563 94.1962M73.563 94.1962C74.3452 93.6922 75.0727 93.7228 75.5575 93.9517C73.8437 91.6722 66.546 87.5718 62.7688 95.0868C61.7734 97.0672 62.9975 100.702 65.3882 103.016M65.3882 103.016C66.117 103.758 68.7027 105.83 69.2715 108.048" stroke="#758672" stroke-width="0.5" stroke-linecap="round" stroke-linejoin="round"/>
<path d="M68.9841 99.3188C69.7322 100.858 70.8671 105.558 71.341 107.715C71.6001 109.487 71.7105 112.062 70.0799 108.193C68.4493 104.324 67.8292 100.983 67.723 99.7965C67.6259 98.7116 68.2361 97.7793 68.9841 99.3188Z" fill="#F5CF6C" stroke="#EEB648" stroke-linecap="round" stroke-linejoin="round"/>
<path fill-rule="evenodd" clip-rule="evenodd" d="M69.8084 105.099C68.3124 104.886 66.491 104.083 65.3882 103.016C65.5077 103.138 65.6773 103.295 65.8798 103.483C66.9112 104.442 68.796 106.194 69.2715 108.048C69.2276 109.284 69.4017 110.146 69.4017 110.146C69.439 110.653 69.7422 111.657 70.6569 111.623C75.1611 111.479 74.2942 106.163 73.6571 104.239C72.0488 99.3811 72.7097 95.6163 73.563 94.1962C72.3706 94.9646 71.051 96.9756 70.2706 101.421C70.1654 102.02 70.132 102.586 70.1005 103.118C70.0577 103.841 70.0186 104.502 69.8084 105.099Z" fill="#EDF5D7"/>
<path d="M69.8084 105.099C68.3124 104.886 66.491 104.083 65.3882 103.016M69.8084 105.099C68.9022 107.672 69.4017 110.146 69.4017 110.146M69.8084 105.099C70.0186 104.502 70.0577 103.841 70.1005 103.118C70.132 102.586 70.1654 102.02 70.2706 101.421C71.051 96.9756 72.3706 94.9646 73.563 94.1962M73.563 94.1962C74.3452 93.6922 75.0727 93.7228 75.5575 93.9517C73.8437 91.6722 66.546 87.5718 62.7688 95.0868C61.7734 97.0672 62.9975 100.702 65.3882 103.016M73.563 94.1962C72.7097 95.6163 72.0488 99.3811 73.6571 104.239C74.2942 106.163 75.1611 111.479 70.6569 111.623C69.7422 111.657 69.439 110.653 69.4017 110.146M65.3882 103.016C65.5077 103.138 65.6773 103.295 65.8798 103.483C66.9112 104.442 68.796 106.194 69.2715 108.048C69.2276 109.284 69.4017 110.146 69.4017 110.146" stroke="#758672" stroke-width="0.5" stroke-linecap="round" stroke-linejoin="round"/>
<path d="M62.1832 104.093C55.1763 99.4407 50.8729 106.621 50.5151 109.45C50.8226 109.011 51.4391 108.623 52.3684 108.673C53.8136 109.483 56.2546 112.424 57.2671 117.44C57.6682 119.427 59.5518 124.473 63.5346 122.365C64.3458 121.941 64.1109 120.918 63.8921 120.46C63.8921 120.46 63.6156 119.625 62.9645 118.573C62.3584 116.365 63.5763 113.284 63.8409 112.277C64.7695 109.083 64.0298 105.319 62.1832 104.093Z" fill="#FFFAED"/>
<path d="M61.0357 116.278C60.2051 115.56 59.7266 114.418 58.8106 113.314C55.928 109.841 53.7849 108.749 52.3684 108.673M61.0357 116.278C62.2293 115.352 63.4126 113.751 63.8409 112.277M61.0357 116.278C63.0988 118.064 63.8921 120.46 63.8921 120.46C64.1109 120.918 64.3458 121.941 63.5346 122.365C59.5518 124.473 57.6682 119.427 57.2671 117.44C56.2546 112.424 53.8136 109.483 52.3684 108.673M52.3684 108.673C51.4391 108.623 50.8226 109.011 50.5151 109.45C50.8729 106.621 55.1763 99.4407 62.1832 104.093C64.0298 105.319 64.7695 109.083 63.8409 112.277M63.8409 112.277C63.5763 113.284 62.3584 116.365 62.9645 118.573" stroke="#758672" stroke-width="0.5" stroke-linecap="round" stroke-linejoin="round"/>
<path d="M58.8847 110.85C58.9986 112.558 60.3439 117.202 61.0023 119.31C61.6558 120.977 62.8372 123.268 62.3343 119.1C61.8314 114.931 60.713 111.723 60.2167 110.64C59.763 109.649 58.7708 109.142 58.8847 110.85Z" fill="#F5CF6C" stroke="#EEB648" stroke-linecap="round" stroke-linejoin="round"/>
<path fill-rule="evenodd" clip-rule="evenodd" d="M61.0357 116.278C62.2293 115.352 63.4126 113.751 63.8409 112.277C63.7975 112.442 63.7284 112.663 63.6459 112.927C63.2258 114.271 62.4579 116.727 62.9645 118.573C63.6156 119.625 63.8921 120.46 63.8921 120.46C64.1109 120.918 64.3458 121.941 63.5346 122.365C59.5518 124.473 57.6682 119.427 57.2671 117.44C56.2546 112.424 53.8136 109.483 52.3684 108.673C53.7849 108.749 55.928 109.841 58.8106 113.314C59.1989 113.782 59.5086 114.257 59.7998 114.703C60.1956 115.31 60.5572 115.864 61.0357 116.278Z" fill="#EDF5D7"/>
<path d="M61.0357 116.278C62.2293 115.352 63.4126 113.751 63.8409 112.277M61.0357 116.278C63.0988 118.064 63.8921 120.46 63.8921 120.46M61.0357 116.278C60.5572 115.864 60.1956 115.31 59.7998 114.703C59.5086 114.257 59.1989 113.782 58.8106 113.314C55.928 109.841 53.7849 108.749 52.3684 108.673M52.3684 108.673C51.4391 108.623 50.8226 109.011 50.5151 109.45C50.8729 106.621 55.1763 99.4407 62.1832 104.093C64.0298 105.319 64.7695 109.083 63.8409 112.277M52.3684 108.673C53.8136 109.483 56.2546 112.424 57.2671 117.44C57.6682 119.427 59.5518 124.473 63.5346 122.365C64.3458 121.941 64.1109 120.918 63.8921 120.46M63.8409 112.277C63.7975 112.442 63.7284 112.663 63.6459 112.927C63.2258 114.271 62.4579 116.727 62.9645 118.573C63.6156 119.625 63.8921 120.46 63.8921 120.46" stroke="#758672" stroke-width="0.5" stroke-linecap="round" stroke-linejoin="round"/>
<path d="M92.7145 102.78C85.7075 98.1272 81.4041 105.307 81.0464 108.136C81.3538 107.697 81.9704 107.31 82.8996 107.36C84.3448 108.17 86.7859 111.111 87.7984 116.127C88.1994 118.114 90.083 123.16 94.0658 121.051C94.877 120.627 94.6422 119.605 94.4234 119.146C94.4234 119.146 94.1468 118.311 93.4958 117.259C92.8897 115.051 94.1075 111.97 94.3722 110.964C95.3007 107.769 94.561 104.006 92.7145 102.78Z" fill="#FFFAED"/>
<path d="M91.5669 114.965C90.7363 114.246 90.2578 113.105 89.3419 112.001C86.4593 108.527 84.3161 107.435 82.8996 107.36M91.5669 114.965C92.7605 114.038 93.9438 112.438 94.3722 110.964M91.5669 114.965C93.63 116.75 94.4234 119.146 94.4234 119.146C94.6422 119.605 94.877 120.627 94.0658 121.051C90.083 123.16 88.1994 118.114 87.7984 116.127C86.7859 111.111 84.3448 108.17 82.8996 107.36M82.8996 107.36C81.9704 107.31 81.3538 107.697 81.0464 108.136C81.4041 105.307 85.7075 98.1272 92.7145 102.78C94.561 104.006 95.3007 107.769 94.3722 110.964M94.3722 110.964C94.1075 111.97 92.8897 115.051 93.4958 117.259" stroke="#758672" stroke-width="0.5" stroke-linecap="round" stroke-linejoin="round"/>
<path d="M89.4159 109.537C89.5299 111.244 90.8751 115.888 91.5335 117.997C92.1871 119.664 93.3685 121.955 92.8655 117.786C92.3626 113.618 91.2443 110.409 90.748 109.326C90.2942 108.336 89.302 107.829 89.4159 109.537Z" fill="#F5CF6C" stroke="#EEB648" stroke-linecap="round" stroke-linejoin="round"/>
<path fill-rule="evenodd" clip-rule="evenodd" d="M91.5669 114.965C92.7605 114.038 93.9438 112.438 94.3722 110.964C94.3288 111.129 94.2597 111.35 94.1772 111.614C93.757 112.958 92.9891 115.414 93.4958 117.259C94.1468 118.311 94.4234 119.146 94.4234 119.146C94.6422 119.605 94.877 120.627 94.0658 121.051C90.083 123.16 88.1994 118.114 87.7984 116.127C86.7859 111.111 84.3448 108.17 82.8996 107.36C84.3161 107.435 86.4593 108.527 89.3419 112.001C89.7302 112.469 90.0399 112.944 90.3311 113.39C90.7268 113.997 91.0885 114.551 91.5669 114.965Z" fill="#EDF5D7"/>
<path d="M91.5669 114.965C92.7605 114.038 93.9438 112.438 94.3722 110.964M91.5669 114.965C93.63 116.75 94.4234 119.146 94.4234 119.146M91.5669 114.965C91.0885 114.551 90.7268 113.997 90.3311 113.39C90.0399 112.944 89.7302 112.469 89.3419 112.001C86.4593 108.527 84.3161 107.435 82.8996 107.36M82.8996 107.36C81.9704 107.31 81.3538 107.697 81.0464 108.136C81.4041 105.307 85.7075 98.1272 92.7145 102.78C94.561 104.006 95.3007 107.769 94.3722 110.964M82.8996 107.36C84.3448 108.17 86.7859 111.111 87.7984 116.127C88.1994 118.114 90.083 123.16 94.0658 121.051C94.877 120.627 94.6422 119.605 94.4234 119.146M94.3722 110.964C94.3288 111.129 94.2597 111.35 94.1772 111.614C93.757 112.958 92.9891 115.414 93.4958 117.259C94.1468 118.311 94.4234 119.146 94.4234 119.146" stroke="#758672" stroke-width="0.5" stroke-linecap="round" stroke-linejoin="round"/>
<path d="M89.2051 116.408C83.9516 109.839 77.6629 115.364 76.459 117.949C76.8858 117.625 77.5912 117.444 78.4609 117.775C79.5901 118.987 81.0174 122.533 80.4515 127.619C80.2273 129.633 80.4816 135.013 84.9178 134.22C85.8197 134.064 85.908 133.019 85.8394 132.515C85.8394 132.515 85.8309 131.636 85.5317 130.436C85.6281 128.148 87.728 125.585 88.287 124.707C90.1459 121.948 90.5896 118.139 89.2051 116.408Z" fill="#FFFAED"/>
<path d="M84.3948 127.662C83.823 126.724 83.7156 125.491 83.1801 124.16C81.4946 119.973 79.7868 118.279 78.4609 117.775M84.3948 127.662C85.8142 127.144 87.4294 125.98 88.287 124.707M84.3948 127.662C85.8149 129.991 85.8394 132.515 85.8394 132.515C85.908 133.019 85.8197 134.064 84.9178 134.22C80.4816 135.013 80.2273 129.633 80.4515 127.619C81.0174 122.533 79.5901 118.987 78.4609 117.775M78.4609 117.775C77.5912 117.444 76.8858 117.625 76.459 117.949C77.6629 115.364 83.9516 109.839 89.2051 116.408C90.5896 118.139 90.1459 121.948 88.287 124.707M88.287 124.707C87.728 125.585 85.6281 128.148 85.5317 130.436" stroke="#758672" stroke-width="0.5" stroke-linecap="round" stroke-linejoin="round"/>
<path d="M84.0027 121.836C83.5901 123.498 83.4545 128.33 83.4383 130.539C83.5522 132.326 83.9783 134.868 84.7711 130.745C85.5638 126.622 85.4776 123.225 85.3354 122.042C85.2054 120.961 84.4152 120.175 84.0027 121.836Z" fill="#F5CF6C" stroke="#EEB648" stroke-linecap="round" stroke-linejoin="round"/>
<path fill-rule="evenodd" clip-rule="evenodd" d="M84.3948 127.662C85.8142 127.144 87.4294 125.98 88.287 124.707C88.1953 124.851 88.0621 125.041 87.903 125.267C87.0928 126.418 85.6123 128.523 85.5317 130.436C85.8309 131.636 85.8394 132.515 85.8394 132.515C85.908 133.019 85.8197 134.064 84.9178 134.22C80.4816 135.013 80.2273 129.633 80.4515 127.619C81.0174 122.533 79.5901 118.987 78.4609 117.775C79.7868 118.279 81.4946 119.973 83.1801 124.16C83.4071 124.724 83.5572 125.271 83.6984 125.785C83.8902 126.483 84.0654 127.122 84.3948 127.662Z" fill="#EDF5D7"/>
<path d="M84.3948 127.662C85.8142 127.144 87.4294 125.98 88.287 124.707M84.3948 127.662C85.8149 129.991 85.8394 132.515 85.8394 132.515M84.3948 127.662C84.0654 127.122 83.8902 126.483 83.6984 125.785C83.5572 125.271 83.4071 124.724 83.1801 124.16C81.4946 119.973 79.7868 118.279 78.4609 117.775M78.4609 117.775C77.5912 117.444 76.8858 117.625 76.459 117.949C77.6629 115.364 83.9516 109.839 89.2051 116.408C90.5896 118.139 90.1459 121.948 88.287 124.707M78.4609 117.775C79.5901 118.987 81.0174 122.533 80.4515 127.619C80.2273 129.633 80.4816 135.013 84.9178 134.22C85.8197 134.064 85.908 133.019 85.8394 132.515M88.287 124.707C88.1953 124.851 88.0621 125.041 87.903 125.267C87.0928 126.418 85.6123 128.523 85.5317 130.436C85.8309 131.636 85.8394 132.515 85.8394 132.515" stroke="#758672" stroke-width="0.5" stroke-linecap="round" stroke-linejoin="round"/>
<path d="M84.9793 180.042C84.9793 180.042 124.53 167.079 120.723 116.682C105.841 119.035 97.4065 127.079 83.9503 143.969C75.4223 154.673 67.7251 158.612 57.3164 162.942C60.2562 167.751 71.0369 179.562 78.2151 181.111C79.1895 181.299 81.9065 181.348 84.9793 180.042Z" fill="#ECB8D7"/>
<path d="M50.3749 127.803C52.3338 148.967 53.5758 156.823 57.3164 162.942C67.7251 158.612 75.4223 154.673 83.9503 143.969C77.8575 144.932 59.0281 133.593 50.3749 127.803Z" fill="#ECB8D7"/>
<path fill-rule="evenodd" clip-rule="evenodd" d="M78.2151 181.111C76.4063 187.212 73.592 196.66 67.5951 200.829C60.099 206.041 97.236 204.945 97.7609 199.494C98.2858 194.043 84.9793 180.042 84.9793 180.042C84.9793 180.042 124.53 167.079 120.723 116.682C105.841 119.035 97.4065 127.079 83.9503 143.969C77.8575 144.932 59.0281 133.593 50.3749 127.803C52.3338 148.967 53.5758 156.823 57.3164 162.942C60.2562 167.751 71.0369 179.562 78.2151 181.111Z" fill="#ECB8D7"/>
<path d="M78.2151 181.111C71.0369 179.562 60.2562 167.751 57.3164 162.942M78.2151 181.111C79.1895 181.299 81.9065 181.348 84.9793 180.042M78.2151 181.111C76.4063 187.212 73.592 196.66 67.5951 200.829C60.099 206.041 97.236 204.945 97.7609 199.494C98.2858 194.043 84.9793 180.042 84.9793 180.042M78.2151 181.111C79.3936 181.201 82.3964 181.114 84.9793 180.042M84.9793 180.042C84.9793 180.042 124.53 167.079 120.723 116.682C105.841 119.035 97.4065 127.079 83.9503 143.969M57.3164 162.942C53.5758 156.823 52.3338 148.967 50.3749 127.803C59.0281 133.593 77.8575 144.932 83.9503 143.969M57.3164 162.942C67.7251 158.612 75.4223 154.673 83.9503 143.969" stroke="#A56A8D" stroke-linecap="round" stroke-linejoin="round"/>
<path d="M202.059 26.7201L212.901 41.2051H246.857V20.0764L202.059 26.7201Z" fill="#C62A78"/>
<path d="M222.096 12.6508C245.23 6.00818 267.246 18.8349 267.476 43.803C267.704 68.77 313.91 92.6319 302.228 123.097C293.857 144.929 252.753 156.509 230.534 144.14C208.315 131.771 197.36 115.2 204.256 92.2671C216.998 49.8947 193.027 28.0397 222.096 12.6508Z" fill="#2E2E43"/>
<path d="M133.71 153.519C225.824 162.447 217.283 124.166 216.86 105.933" stroke="#E0C0B9" stroke-width="14.6667" stroke-miterlimit="10"/>
<path d="M242.591 199.087L209.336 251.707L221.11 318.932" stroke="#C62A78" stroke-width="29.3333" stroke-miterlimit="10"/>
<path d="M219.487 317.023L219.576 328.508C219.576 328.508 207.612 328.699 204.095 344.528L239.901 344.524L239.924 317.041L219.487 317.023Z" fill="#46AC8D"/>
<path d="M235.655 331.283C235.654 333.268 234.043 334.875 232.059 334.873C230.074 334.871 228.468 333.261 228.469 331.278C228.471 329.293 230.081 327.686 232.065 327.687C234.049 327.689 235.657 329.299 235.655 331.283Z" fill="url(#paint1_linear_1039_916)"/>
<path d="M211.128 332.001C213.394 334.311 215.555 338.236 214.606 344.525L204.095 344.526C205.513 338.147 208.302 334.311 211.128 332.001Z" fill="url(#paint2_linear_1039_916)"/>
<path d="M240.708 346.954L203.484 346.923L203.487 343.684L240.711 343.715L240.708 346.954Z" fill="url(#paint3_linear_1039_916)"/>
<path d="M240.709 344.893L203.485 344.862L203.486 343.683L240.71 343.715L240.709 344.893Z" fill="#D1E8FF"/>
<path d="M160.606 341.248C160.465 341.248 160.322 341.237 160.178 341.215C158.711 340.98 157.712 339.601 157.946 338.133C162.45 309.944 152.244 282.004 130.645 263.394C106.333 242.452 71.8395 237.714 42.7716 251.324C41.4254 251.957 39.8253 251.375 39.1936 250.029C38.5641 248.683 39.1441 247.081 40.4903 246.452C71.4747 231.941 108.241 236.993 134.156 259.319C157.179 279.156 168.06 308.937 163.259 338.983C163.047 340.305 161.904 341.248 160.606 341.248Z" fill="#FFD246"/>
<path d="M130.421 176.095H109.438V172.051H130.421V176.095Z" fill="#202036"/>
<path d="M128.137 199.087H109.438V195.044H128.137V199.087Z" fill="#202036"/>
<path d="M304.183 326.124H202.058L184.834 314.545L126.414 197.54H126.097" stroke="#8C6EFF" stroke-width="14.6667" stroke-miterlimit="10"/>
<path d="M131.745 371.628L82.3427 329.065L139.246 360.91L139.811 359.902L83.6663 328.48L144.421 349.655L144.801 348.563L83.2283 327.103L147.845 335.841L148 334.695L83.1713 325.929L148.411 321.077L148.325 319.923L83.3015 324.759L146.05 307.043L145.737 305.929L83.8191 323.412L141.751 295.425L141.248 294.383L82.5385 322.745L134.405 283.235L133.705 282.315L81.6669 321.955L124.365 272.396L123.488 271.64L80.9298 321.039L112.772 264.14L111.762 263.575L80.3423 319.72L101.517 258.965L100.424 258.584L78.966 320.154L87.7037 255.54L86.5566 255.385L77.7909 320.211L72.9389 254.975L71.7864 255.061L76.6223 320.088L58.9037 257.335L57.791 257.649L75.274 319.569L47.2854 261.634L46.2448 262.138L74.6079 320.85L35.0956 268.981L34.1767 269.681L73.8191 321.722L24.2564 279.021L23.502 279.897L72.9012 322.457L16.0018 290.613L15.4369 291.623L71.5874 323.046L10.827 301.869L10.4461 302.961L72.0178 324.42L7.40078 315.684L7.2469 316.829L72.0737 325.595L6.83691 330.447L6.923 331.6L71.9457 326.764L9.19674 344.482L9.51095 345.595L71.4292 328.112L13.4967 356.1L14.0003 357.142L72.7097 328.778L20.8431 368.29L21.5436 369.21L73.5781 329.57L30.8828 379.128L31.7587 379.883L74.3173 330.485L42.4753 387.385L43.4847 387.948L74.907 331.799L53.731 392.559L54.8232 392.939L76.2822 331.37L67.5446 395.983L68.6916 396.139L77.4573 331.313L82.3093 396.548L83.4618 396.463L78.6259 331.441L96.3434 394.19L97.4561 393.875L79.9732 331.956L107.962 389.89L109.002 389.386L80.6393 330.674L120.152 382.543L121.072 381.844L81.428 329.803L130.991 372.504L131.745 371.628Z" fill="url(#paint4_linear_1039_916)"/>
<path d="M118.94 277.806C92.5819 255.097 52.6619 258.067 29.9524 284.425C7.24304 310.783 10.2119 350.704 36.5703 373.413C62.9297 396.122 102.85 393.152 125.558 366.794C148.268 340.436 145.299 300.516 118.94 277.806ZM33.0591 377.489C4.45279 352.843 1.22995 309.52 25.8763 280.914C50.5226 252.307 93.8463 249.085 122.453 273.73C151.059 298.376 154.281 341.7 129.634 370.306C104.989 398.913 61.6653 402.134 33.0591 377.489Z" fill="url(#paint5_linear_1039_916)"/>
<path d="M124.59 271.249C94.5673 245.382 49.2604 248.752 23.3938 278.775C-2.47175 308.798 0.89743 354.105 30.9198 379.971C60.9433 405.837 106.25 402.467 132.116 372.444C157.982 342.421 154.612 297.115 124.59 271.249Z" stroke="#202036" stroke-width="12" stroke-miterlimit="10"/>
<path d="M67.0306 317.25C62.1345 322.933 62.7726 331.508 68.4554 336.403C74.1381 341.299 82.7122 340.661 87.6084 334.978C92.5045 329.297 91.8664 320.721 86.1836 315.825C80.502 310.93 71.9268 311.567 67.0306 317.25Z" fill="url(#paint6_linear_1039_916)"/>
<path d="M71.8704 321.42C69.2782 324.43 69.615 328.971 72.6248 331.563C75.6345 334.156 80.1756 333.818 82.7678 330.809C85.3612 327.8 85.0233 323.258 82.0135 320.666C79.0048 318.073 74.4627 318.41 71.8704 321.42Z" fill="#294561"/>
<path d="M375.396 325.081H310.187L374.084 312.065L373.852 310.933L310.808 323.775L370.658 300.161L370.233 299.085L309.578 323.016L364.235 287.459L363.604 286.491L308.767 322.165L355.027 275.906L354.209 275.088L308.103 321.193L344.078 266.814L343.113 266.175L307.615 319.834L333.237 260.817L332.176 260.357L306.211 320.165L319.715 256.377L318.584 256.138L305.034 320.135V254.719H303.878V319.923L290.863 256.032L289.729 256.263L302.572 319.307L278.958 259.458L277.882 259.882L301.813 320.533L266.257 265.879L265.288 266.509L300.959 321.344L254.703 275.088L253.886 275.906L299.993 322.013L245.611 286.037L244.972 287.001L298.634 322.5L239.615 296.877L239.154 297.938L298.964 323.906L235.175 310.399L234.935 311.53L298.936 325.081H233.517V326.237H298.72L234.828 339.252L235.06 340.385L298.11 327.541L238.255 351.156L238.68 352.232L299.332 328.302L244.677 363.858L245.307 364.828L300.143 329.155L253.886 375.411L254.703 376.229L300.809 330.123L264.833 384.504L265.799 385.142L301.297 331.482L275.675 390.5L276.736 390.96L302.702 331.152L289.197 394.939L290.328 395.179L303.878 331.184V396.598H305.034V331.395L318.048 395.286L319.182 395.055L306.339 332.005L329.954 391.86L331.03 391.435L307.099 330.783L342.655 385.438L343.625 384.807L307.953 329.973L354.209 376.229L355.027 375.411L308.921 329.307L363.302 365.281L363.94 364.317L310.279 328.818L369.296 354.44L369.757 353.379L309.947 327.412L373.737 340.919L373.977 339.788L309.976 326.237H375.396V325.081Z" fill="url(#paint7_linear_1039_916)"/>
<path d="M304.456 262.36C269.664 262.36 241.359 290.666 241.359 325.458C241.359 360.25 269.664 388.555 304.456 388.555C339.248 388.555 367.554 360.25 367.554 325.458C367.554 290.666 339.248 262.36 304.456 262.36ZM304.456 393.935C266.698 393.935 235.979 363.217 235.979 325.458C235.979 287.699 266.698 256.979 304.456 256.979C342.216 256.979 372.934 287.699 372.934 325.458C372.934 363.217 342.216 393.935 304.456 393.935Z" fill="url(#paint8_linear_1039_916)"/>
<path d="M304.457 253.704C264.828 253.704 232.703 285.829 232.703 325.458C232.703 365.086 264.828 397.212 304.457 397.212C344.085 397.212 376.21 365.086 376.21 325.458C376.21 285.829 344.085 253.704 304.457 253.704Z" stroke="#202036" stroke-width="12" stroke-miterlimit="10"/>
<path d="M290.875 326.124C290.875 333.624 296.956 339.705 304.456 339.705C311.956 339.705 318.036 333.624 318.036 326.124C318.036 318.624 311.956 312.543 304.456 312.543C296.956 312.543 290.875 318.624 290.875 326.124Z" fill="url(#paint9_linear_1039_916)"/>
<path d="M297.264 326.124C297.264 330.096 300.483 333.316 304.456 333.316C308.428 333.316 311.648 330.096 311.648 326.124C311.648 322.152 308.428 318.931 304.456 318.931C300.483 318.931 297.264 322.152 297.264 326.124Z" fill="#538CA0"/>
<path d="M202.146 328.127L304.184 326.124" stroke="#8C6EFF" stroke-width="14.6667" stroke-miterlimit="10"/>
<path d="M304.184 326.124L242.592 248.659" stroke="#8C6EFF" stroke-width="10.6667" stroke-miterlimit="10"/>
<path d="M181.696 326.124C181.696 337.37 190.813 346.486 202.059 346.486C213.305 346.486 222.421 337.37 222.421 326.124C222.421 314.878 213.305 305.761 202.059 305.761C190.813 305.761 181.696 314.878 181.696 326.124Z" fill="url(#paint10_linear_1039_916)"/>
<path d="M202.059 308.539L306.203 314.616" stroke="url(#paint11_linear_1039_916)" stroke-width="1.33333" stroke-miterlimit="10"/>
<path d="M202.059 344.189L307.683 352.514" stroke="url(#paint12_linear_1039_916)" stroke-width="1.33333" stroke-miterlimit="10"/>
<path d="M296.992 326.124C296.992 330.097 300.212 333.316 304.185 333.316C308.156 333.316 311.377 330.097 311.377 326.124C311.377 322.152 308.156 318.931 304.185 318.931C300.212 318.931 296.992 322.152 296.992 326.124Z" fill="#294561"/>
<path d="M176.812 302.379L227.482 349.53" stroke="url(#paint13_linear_1039_916)" stroke-width="4" stroke-miterlimit="10"/>
<path d="M170.865 304.818L181.78 304.851C183.456 304.855 184.83 303.489 184.835 301.813C184.841 300.138 183.474 298.764 181.799 298.758L170.883 298.725C169.208 298.721 167.832 300.087 167.828 301.763C167.823 303.438 169.189 304.812 170.865 304.818Z" fill="#202036"/>
<path d="M222.024 352.575H232.94C234.615 352.575 235.986 351.205 235.986 349.529C235.985 347.854 234.615 346.483 232.94 346.483H222.024C220.348 346.483 218.978 347.854 218.978 349.529C218.978 351.205 220.348 352.575 222.024 352.575Z" fill="#202036"/>
<path d="M193.767 326.124C193.767 330.703 197.479 334.415 202.058 334.415C206.636 334.415 210.349 330.703 210.349 326.124C210.349 321.545 206.636 317.833 202.058 317.833C197.479 317.833 193.767 321.545 193.767 326.124Z" fill="#294561"/>
<path d="M307.987 327.864L310.348 337.028C309.714 339.313 304.127 340.836 310.411 348.452C310.411 348.452 312.379 352.133 309.206 354.037C306.033 355.94 304.185 352.133 304.185 352.133L296.992 326.124L307.987 327.864Z" fill="#294561"/>
<path d="M77.3203 326.115C77.3203 326.115 99.5509 293.568 105.929 273.999C112.308 254.431 133.711 162.008 133.711 162.008" stroke="#8C6EFF" stroke-width="10.6667" stroke-miterlimit="10"/>
<path d="M202.059 326.124L254.871 225.193V214.134" stroke="#8C6EFF" stroke-width="10.6667" stroke-miterlimit="10"/>
<path d="M268.903 203.632C263.06 205.355 257.218 206.331 251.374 207.118C248.454 207.478 245.532 207.791 242.611 207.963C239.689 208.151 236.769 208.244 233.847 208.083C231.808 207.97 230.065 209.531 229.952 211.57C229.839 213.608 231.4 215.353 233.439 215.465C233.575 215.472 233.714 215.472 233.847 215.465C236.769 215.303 239.689 215.397 242.611 215.584C245.532 215.756 248.454 216.069 251.374 216.43C257.218 217.216 263.06 218.192 268.903 219.915C273.4 221.242 278.119 218.671 279.445 214.175C280.772 209.679 278.202 204.958 273.705 203.632C272.074 203.151 270.42 203.182 268.903 203.632Z" fill="#202036"/>
<path d="M254.131 261.112L276.232 239.01H355.807" stroke="#FFD246" stroke-width="2.66667" stroke-miterlimit="10" stroke-linecap="round" stroke-linejoin="round"/>
<path d="M304.184 326.124L344.603 244.062V239.01" stroke="#FFD246" stroke-width="2.66667" stroke-miterlimit="10" stroke-linecap="round" stroke-linejoin="round"/>
<path d="M357.059 251.708H348.165V242.814H357.059V251.708Z" fill="#202036"/>
<path d="M359.06 242.813H356.342V251.707H359.06C360.014 251.707 360.788 250.933 360.788 249.979V244.541C360.788 243.587 360.014 242.813 359.06 242.813Z" fill="#FF4676"/>
<path d="M354.836 245.049H350.389V239.964H354.836V245.049Z" fill="#202036"/>
<path d="M356.342 247.26V251.708H359.06C360.014 251.708 360.789 250.934 360.789 249.979V247.26H356.342Z" fill="#C62A78"/>
<path d="M110.061 220.138H64.8061L53.3008 163.724H110.061V220.138Z" stroke="#202036" stroke-width="1.33333" stroke-miterlimit="10"/>
<path d="M54.457 169.389H110.062" stroke="#202036" stroke-width="1.33333" stroke-miterlimit="10"/>
<path d="M55.9121 176.532H110.061" stroke="#202036" stroke-width="1.33333" stroke-miterlimit="10"/>
<path d="M57.3701 183.675H110.062" stroke="#202036" stroke-width="1.33333" stroke-miterlimit="10"/>
<path d="M58.8271 190.818H110.062" stroke="#202036" stroke-width="1.33333" stroke-miterlimit="10"/>
<path d="M60.2832 197.961H110.061" stroke="#202036" stroke-width="1.33333" stroke-miterlimit="10"/>
<path d="M61.9297 205.104H110.061" stroke="#202036" stroke-width="1.33333" stroke-miterlimit="10"/>
<path d="M63.2588 212.247H110.063" stroke="#202036" stroke-width="1.33333" stroke-miterlimit="10"/>
<path d="M104.692 163.109V220.138" stroke="#202036" stroke-width="1.33333" stroke-miterlimit="10"/>
<path d="M98.8428 163.109V220.139" stroke="#202036" stroke-width="1.33333" stroke-miterlimit="10"/>
<path d="M92.9941 163.109V220.139" stroke="#202036" stroke-width="1.33333" stroke-miterlimit="10"/>
<path d="M87.1465 163.109V220.138" stroke="#202036" stroke-width="1.33333" stroke-miterlimit="10"/>
<path d="M81.2979 163.109V220.138" stroke="#202036" stroke-width="1.33333" stroke-miterlimit="10"/>
<path d="M75.4492 163.109V220.138" stroke="#202036" stroke-width="1.33333" stroke-miterlimit="10"/>
<path d="M69.6006 163.109V220.138" stroke="#202036" stroke-width="1.33333" stroke-miterlimit="10"/>
<path d="M63.751 163.109V215.747" stroke="#202036" stroke-width="1.33333" stroke-miterlimit="10"/>
<path d="M57.9023 163.109V187.192" stroke="#202036" stroke-width="1.33333" stroke-miterlimit="10"/>
<path d="M112.896 165.698H49.3172C48.1292 165.698 47.165 164.734 47.165 163.545V162.673C47.165 161.484 48.1292 160.521 49.3172 160.521H112.896C114.085 160.521 115.048 161.484 115.048 162.673V163.545C115.048 164.734 114.085 165.698 112.896 165.698Z" fill="#202036"/>
<path d="M132.771 166.042L136.219 153.519L187.871 160.932" stroke="#202036" stroke-width="14.6667" stroke-miterlimit="10"/>
<path d="M224.651 173.984L239.069 170.595C249.702 168.095 260.448 174.751 262.948 185.385C265.447 196.018 258.792 206.764 248.158 209.264L233.741 212.652C223.107 215.152 212.362 208.498 209.862 197.863C207.362 187.229 214.018 176.483 224.651 173.984Z" fill="#FF4676"/>
<path d="M167.087 271.46L167.177 282.945C167.177 282.945 155.212 283.135 151.695 298.964L187.502 298.96L187.524 271.477L167.087 271.46Z" fill="#46AC8D"/>
<path d="M183.257 285.72C183.255 287.704 181.645 289.312 179.661 289.31C177.677 289.307 176.07 287.698 176.071 285.714C176.073 283.729 177.683 282.122 179.668 282.124C181.652 282.126 183.258 283.736 183.257 285.72Z" fill="url(#paint14_linear_1039_916)"/>
<path d="M158.729 286.438C160.996 288.748 163.156 292.672 162.207 298.962L151.696 298.963C153.115 292.584 155.904 288.748 158.729 286.438Z" fill="url(#paint15_linear_1039_916)"/>
<path d="M188.308 301.391L151.085 301.36L151.087 298.121L188.311 298.152L188.308 301.391Z" fill="url(#paint16_linear_1039_916)"/>
<path d="M188.31 299.329L151.087 299.298L151.088 298.12L188.311 298.151L188.31 299.329Z" fill="#D1E8FF"/>
<path d="M239.966 197.961L171.854 215.371L176.81 275.955" stroke="#FF4676" stroke-width="29.3333" stroke-miterlimit="10"/>
<path d="M258.027 50.4269L209.374 52.0141C207.246 52.0829 205.464 50.4139 205.395 48.2855C205.325 46.157 206.994 44.375 209.122 44.3051L257.776 42.719C259.905 42.649 261.686 44.318 261.756 46.4475C261.825 48.576 260.156 50.3569 258.027 50.4269Z" fill="#F4D1C9"/>
<path d="M207.412 48.22C207.379 47.2052 208.174 46.3562 209.189 46.3239L257.842 44.7367C258.856 44.7034 259.705 45.4986 259.738 46.5133C259.772 47.527 258.976 48.376 257.962 48.4093L209.308 49.9965C208.295 50.0299 207.446 49.2336 207.412 48.22Z" fill="#FFADAD"/>
<path d="M208.131 51.9327C208.131 53.0055 209 53.875 210.073 53.875C211.145 53.875 212.014 53.0055 212.014 51.9327C212.014 50.8598 211.145 49.9904 210.073 49.9904C209 49.9904 208.131 50.8598 208.131 51.9327Z" fill="url(#paint17_linear_1039_916)"/>
<path d="M203.617 184.404C214.374 187.369 229.67 190.356 248.055 188.445C255.505 187.671 264.087 186.647 269.86 185.022C269.86 172.096 259.739 158.783 259.739 145.857C259.739 132.936 265.023 120.014 265.023 107.092C265.023 92.7036 256.282 81.039 241.893 81.039H236.971C218.422 81.039 208.131 95.9856 208.131 114.536L210.773 143.187L203.617 184.404Z" fill="#FFC249"/>
<path d="M221.068 87.0175C225.824 84.5092 231.24 83.0834 236.992 83.0834H242.003C244.931 83.0834 247.745 83.5644 250.378 84.4404C248.358 87.4351 245.698 92.4485 242.987 100.649C237.662 116.756 214.065 111.377 221.068 87.0175Z" fill="#F4D1C9"/>
<path d="M252.772 96.3621C252.772 106.399 244.294 114.536 233.835 114.536C223.376 114.536 214.897 106.399 214.897 96.3621C214.897 86.3245 223.376 78.1884 233.835 78.1884C244.294 78.1884 252.772 86.3245 252.772 96.3621Z" stroke="url(#paint18_linear_1039_916)" stroke-width="1.33333" stroke-miterlimit="10"/>
<path d="M247.642 81.8799C246.056 52.8206 241.206 68.2321 234.207 68.6141C227.207 68.9961 220.811 56.0778 222.295 83.2626C222.85 93.4476 228.477 92.2586 235.476 91.8766C242.476 91.4946 248.197 92.0638 247.642 81.8799Z" fill="#F4D1C9"/>
<path d="M222.097 74.7598C222.442 59.1385 228.094 68.9479 234.208 68.6144C240.985 68.2442 245.747 53.785 247.482 79.247C236.846 83.3781 228.221 79.728 222.097 74.7598Z" fill="#9C5C52"/>
<path d="M236.216 14.7264L224.938 15.342C216.138 15.8219 209.331 23.4146 209.811 32.2148L211.082 55.5074C211.752 67.7961 222.356 77.3011 234.645 76.6307C246.932 75.9603 256.438 65.3577 255.768 53.069L254.573 31.1839C254.05 21.6101 245.789 14.2035 236.216 14.7264Z" fill="#F4D1C9"/>
<path d="M254.493 30.227C253.492 21.1213 245.468 14.2215 236.215 14.7262L224.937 15.3417C221.167 15.5483 217.763 17.0623 215.141 19.4168C227.132 34.6636 243.956 33.2271 254.493 30.227Z" fill="#9C5C52"/>
<path d="M208.433 34.8799C231.11 33.1625 227.278 18.0243 227.278 18.0243C227.278 18.0243 229.854 31.6818 242.739 35.9764C242.739 35.9764 236.382 31.4236 234.235 24.2946C234.235 24.2946 238.358 33.6575 248.494 37.3506C248.494 37.3506 250.642 41.9034 254.335 43.2776H257.684C257.684 43.2776 262.568 28.6936 254.494 20.3616C246.419 12.0296 231.778 12.8291 231.778 12.8291C231.778 12.8291 209.64 11.0665 208.433 34.8799Z" fill="#2E2E43"/>
<path d="M241.169 38.1538L237.396 36.9378C236.228 36.5612 235.58 35.2979 235.957 34.1303C236.333 32.9628 237.596 32.3161 238.763 32.6916L242.537 33.9076C243.706 34.2842 244.352 35.5475 243.976 36.7151C243.6 37.8826 242.337 38.5304 241.169 38.1538Z" fill="#2E2E43"/>
<path d="M223.425 37.968L219.955 39.8867C218.882 40.4796 217.518 40.0879 216.925 39.014C216.331 37.94 216.723 36.5767 217.797 35.9827L221.267 34.064C222.34 33.4711 223.704 33.8639 224.298 34.9367C224.892 36.0107 224.499 37.374 223.425 37.968Z" fill="#2E2E43"/>
<path d="M226.521 54.1219C226.521 54.1219 232.409 54.8708 232.495 55.963C232.581 57.0541 229.771 57.7299 228.965 57.3038C228.159 56.8777 226.521 54.1219 226.521 54.1219Z" fill="#9C5C52"/>
<path d="M224.097 43.6685C224.171 45.0254 223.131 46.1854 221.774 46.2597C220.417 46.3339 219.257 45.2934 219.182 43.9365C219.108 42.5795 220.149 41.4195 221.506 41.3453C222.863 41.271 224.023 42.3116 224.097 43.6685Z" fill="#31314F"/>
<path d="M241.765 42.7042C241.839 44.0611 240.799 45.2211 239.442 45.2953C238.085 45.3696 236.925 44.329 236.85 42.9721C236.776 41.6152 237.817 40.4552 239.174 40.3809C240.531 40.3067 241.691 41.3472 241.765 42.7042Z" fill="#31314F"/>
<path d="M230.535 41.2048C230.259 42.6263 229.964 44.0349 229.606 45.4241C229.262 46.8176 228.921 48.209 228.529 49.5864C228.141 50.9659 227.753 52.3422 227.314 53.7099L227.231 53.966C227.198 54.0714 227.263 53.9046 227.211 53.8261C227.178 53.768 227.213 53.8207 227.205 53.8164C227.243 53.8853 227.368 54.0155 227.482 54.1242C227.729 54.3447 227.994 54.5836 228.266 54.8085C228.806 55.2734 229.364 55.735 229.889 56.2612C229.17 56.0643 228.499 55.7748 227.842 55.4402C227.519 55.2616 227.191 55.0905 226.88 54.8559C226.721 54.7321 226.569 54.6278 226.387 54.4115C226.336 54.3297 226.3 54.3168 226.243 54.1726C226.178 54.0058 226.203 53.7497 226.215 53.7701L226.287 53.5097C226.678 52.1205 227.119 50.741 227.561 49.3625C227.999 47.9841 228.489 46.6186 228.974 45.2552C229.446 43.8886 229.98 42.5402 230.535 41.2048Z" fill="#9C5C52"/>
<path d="M227.315 60.7981C230.259 59.877 234.34 58.3856 238.085 56.2689C240.547 54.8776 243.314 57.8583 242.358 60.9165C241.339 64.1705 239.175 67.3998 234.684 68.4748C231.004 69.3572 228.479 68.7277 226.754 67.572C224.313 65.9364 224.692 61.6181 227.315 60.7981Z" fill="#31314F"/>
<path d="M234.684 68.4752C239.174 67.3991 241.338 64.1709 242.356 60.9169C242.501 60.4585 242.551 60.0033 242.54 59.5632C240.817 59.0746 238.619 59.1005 235.826 60.1582C231.511 61.7928 229.795 65.2631 229.222 68.6129C229.221 68.6194 229.221 68.6258 229.22 68.6323C230.676 68.982 232.467 69.0057 234.684 68.4752Z" fill="#FF9393"/>
<path d="M231.958 65.0828C232.52 65.7844 234.221 65.4046 235.76 64.2338C237.298 63.063 238.089 61.5458 237.527 60.8442C236.965 60.1436 235.263 60.5235 233.725 61.6932C232.187 62.864 231.396 64.3812 231.958 65.0828Z" fill="#FFADAD"/>
<path d="M227.315 60.7979C230.259 59.8768 234.34 58.3854 238.085 56.2688C239.596 55.4144 241.22 56.2117 242.029 57.6612C240.006 60.0877 236.698 62.2991 232.653 63.6689C230.059 64.5481 227.495 64.9656 225.176 64.9709C224.902 63.2213 225.661 61.3145 227.315 60.7979Z" fill="url(#paint19_linear_1039_916)"/>
<path d="M254.521 51.9327C254.521 53.0055 255.39 53.875 256.463 53.875C257.535 53.875 258.404 53.0055 258.404 51.9327C258.404 50.8598 257.535 49.9904 256.463 49.9904C255.39 49.9904 254.521 50.8598 254.521 51.9327Z" fill="url(#paint20_linear_1039_916)"/>
<path d="M238.037 29.9871C246.528 29.2327 252.406 26.2036 256.405 22.8043C258.421 26.0164 259.09 29.7428 259.144 33.1303C253.862 34.4711 248.908 35.1436 244.294 35.3147C241.658 33.7135 239.591 31.7895 238.037 29.9871Z" fill="#415E73"/>
<path d="M233.615 30.0912C234.732 30.1482 235.892 30.1353 237.089 30.0589C238.879 32.6329 240.882 34.4665 241.956 35.3575C241.674 35.3586 241.392 35.3586 241.112 35.3554C237.981 34.0318 235.526 32.1444 233.615 30.0912Z" fill="#415E73"/>
<path d="M213.614 20.0763C216.383 23.184 220.088 26.2723 224.867 28.1899C223.892 29.4091 222.574 30.5798 220.8 31.5989C216.55 30.0127 212.964 28.1156 210.073 26.2938C210.984 23.7898 212.204 21.7399 213.614 20.0763Z" fill="#415E73"/>
<path d="M160.322 155.592C252.436 164.519 258.828 124.166 258.405 105.934" stroke="#F4D1C9" stroke-width="14.6667" stroke-miterlimit="10"/>
<path d="M254.573 31.1841C254.573 31.1841 249.805 48.1838 259.147 58.3032" stroke="#8C6EFF" stroke-width="2.66667" stroke-miterlimit="10"/>
<path d="M264.985 40.2536C264.555 44.8398 263.599 49.2538 262.217 53.6044C260.815 57.9291 258.957 62.1645 256.339 65.9835C253.721 69.781 250.257 73.1437 246.034 75.2829C243.92 76.331 241.657 77.0563 239.346 77.4899C237.029 77.8762 234.674 77.9537 232.369 77.8031C231.79 77.7998 231.212 77.7084 230.636 77.6298C230.06 77.547 229.481 77.4802 228.908 77.3834C227.773 77.0961 226.613 76.9218 225.514 76.4989C223.27 75.8177 221.15 74.7201 219.22 73.3901C217.273 72.0708 215.563 70.4223 214.116 68.5983C212.664 66.7776 211.422 64.8009 210.439 62.7165C208.465 58.55 207.263 54.0983 206.595 49.6121C205.925 45.1325 205.806 40.5301 206.898 36.1031C207.48 40.5925 207.876 44.9571 208.571 49.299C209.274 53.6291 210.494 57.8753 212.398 61.7599C213.346 63.7033 214.527 65.5143 215.877 67.1639C217.225 68.8168 218.789 70.2835 220.556 71.4446C222.31 72.6153 224.217 73.5784 226.258 74.1638C227.251 74.5372 228.32 74.6738 229.35 74.9267C230.411 75.0494 231.463 75.2377 232.536 75.2775C234.687 75.4174 236.818 75.3432 238.909 74.9977C240.986 74.6039 243.005 73.9572 244.896 73.0221C248.663 71.111 251.816 68.0818 254.257 64.5426C259.128 57.4169 261.698 48.6727 262.84 40.0739L264.985 40.2536Z" fill="#8C6EFF"/>
<path d="M202.059 26.7199H250.378C250.378 26.7199 253.662 40.8949 267.476 43.8025L271.241 25.6363C271.791 22.9816 271.183 20.2258 269.565 18.051C264.943 11.8378 253.924 -6.48499e-05 237.051 -6.48499e-05C208.433 -6.48499e-05 202.059 26.7199 202.059 26.7199Z" fill="#FF4676"/>
<path d="M231.777 21.9014H266.664C266.664 21.9014 263.178 14.8262 258.405 12.1952C253.631 9.56529 237.662 11.64 231.777 21.9014Z" fill="#C62A78"/>
<path d="M219.178 21.9011C219.178 21.9011 227.626 5.4749 249.22 6.8146C249.22 6.8146 239.064 1.67314 229.509 4.7819C216.646 8.96675 210.872 21.9011 210.872 21.9011H219.178Z" fill="#C62A78"/>
<path d="M266.033 32.1542C266.033 33.8921 264.625 35.3018 262.886 35.3018C261.148 35.3018 259.739 33.8921 259.739 32.1542C259.739 30.4164 261.148 29.0067 262.886 29.0067C264.625 29.0067 266.033 30.4164 266.033 32.1542Z" fill="url(#paint21_linear_1039_916)"/>
<path d="M169.274 151.054L154.154 145.549L145.307 148.817L148.456 149.495C148.456 149.495 153.277 152.483 149.691 158.462L144.828 160.52C144.828 160.52 148.117 165.266 148.894 166.043C149.67 166.818 159.176 166.235 159.176 166.235L173.099 162.106L169.274 151.054Z" fill="#F4D1C9"/>
<defs>
<linearGradient id="paint0_linear_1039_916" x1="81.5643" y1="107.943" x2="90.741" y2="165.993" gradientUnits="userSpaceOnUse">
<stop stop-color="#FCDC8A"/>
<stop offset="0.296875" stop-color="#B0C17E"/>
<stop offset="0.979167" stop-color="#AABF7D"/>
</linearGradient>
<linearGradient id="paint1_linear_1039_916" x1="232.062" y1="334.873" x2="232.062" y2="327.687" gradientUnits="userSpaceOnUse">
<stop stop-color="#E4EBF4"/>
<stop offset="1" stop-color="#D4F6BF"/>
</linearGradient>
<linearGradient id="paint2_linear_1039_916" x1="209.465" y1="344.526" x2="209.465" y2="332.001" gradientUnits="userSpaceOnUse">
<stop stop-color="#E4EBF4"/>
<stop offset="1" stop-color="#D4F6BF"/>
</linearGradient>
<linearGradient id="paint3_linear_1039_916" x1="222.098" y1="346.954" x2="222.098" y2="343.684" gradientUnits="userSpaceOnUse">
<stop stop-color="#E4EBF4"/>
<stop offset="1" stop-color="#D4F6BF"/>
</linearGradient>
<linearGradient id="paint4_linear_1039_916" x1="77.6241" y1="396.548" x2="77.6241" y2="254.975" gradientUnits="userSpaceOnUse">
<stop stop-color="#E4EBF4"/>
<stop offset="1" stop-color="#D4F6BF"/>
</linearGradient>
<linearGradient id="paint5_linear_1039_916" x1="77.7555" y1="394.057" x2="77.7555" y2="257.162" gradientUnits="userSpaceOnUse">
<stop stop-color="#E4EBF4"/>
<stop offset="1" stop-color="#D4F6BF"/>
</linearGradient>
<linearGradient id="paint6_linear_1039_916" x1="77.3195" y1="339.695" x2="77.3195" y2="312.533" gradientUnits="userSpaceOnUse">
<stop stop-color="#E4EBF4"/>
<stop offset="1" stop-color="#D4F6BF"/>
</linearGradient>
<linearGradient id="paint7_linear_1039_916" x1="304.456" y1="396.598" x2="304.456" y2="254.719" gradientUnits="userSpaceOnUse">
<stop stop-color="#E4EBF4"/>
<stop offset="1" stop-color="#D4F6BF"/>
</linearGradient>
<linearGradient id="paint8_linear_1039_916" x1="304.456" y1="393.935" x2="304.456" y2="256.979" gradientUnits="userSpaceOnUse">
<stop stop-color="#E4EBF4"/>
<stop offset="1" stop-color="#D4F6BF"/>
</linearGradient>
<linearGradient id="paint9_linear_1039_916" x1="304.456" y1="339.705" x2="304.456" y2="312.543" gradientUnits="userSpaceOnUse">
<stop stop-color="#E4EBF4"/>
<stop offset="1" stop-color="#D4F6BF"/>
</linearGradient>
<linearGradient id="paint10_linear_1039_916" x1="202.059" y1="346.486" x2="202.059" y2="305.761" gradientUnits="userSpaceOnUse">
<stop stop-color="#E4EBF4"/>
<stop offset="1" stop-color="#D4F6BF"/>
</linearGradient>
<linearGradient id="paint11_linear_1039_916" x1="254.131" y1="314.616" x2="254.131" y2="308.539" gradientUnits="userSpaceOnUse">
<stop stop-color="#E4EBF4"/>
<stop offset="1" stop-color="#D4F6BF"/>
</linearGradient>
<linearGradient id="paint12_linear_1039_916" x1="254.871" y1="352.514" x2="254.871" y2="344.189" gradientUnits="userSpaceOnUse">
<stop stop-color="#E4EBF4"/>
<stop offset="1" stop-color="#D4F6BF"/>
</linearGradient>
<linearGradient id="paint13_linear_1039_916" x1="202.147" y1="349.53" x2="202.147" y2="302.379" gradientUnits="userSpaceOnUse">
<stop stop-color="#E4EBF4"/>
<stop offset="1" stop-color="#D4F6BF"/>
</linearGradient>
<linearGradient id="paint14_linear_1039_916" x1="179.664" y1="289.31" x2="179.664" y2="282.124" gradientUnits="userSpaceOnUse">
<stop stop-color="#E4EBF4"/>
<stop offset="1" stop-color="#D4F6BF"/>
</linearGradient>
<linearGradient id="paint15_linear_1039_916" x1="157.066" y1="298.963" x2="157.066" y2="286.438" gradientUnits="userSpaceOnUse">
<stop stop-color="#E4EBF4"/>
<stop offset="1" stop-color="#D4F6BF"/>
</linearGradient>
<linearGradient id="paint16_linear_1039_916" x1="169.698" y1="301.391" x2="169.698" y2="298.121" gradientUnits="userSpaceOnUse">
<stop stop-color="#E4EBF4"/>
<stop offset="1" stop-color="#D4F6BF"/>
</linearGradient>
<linearGradient id="paint17_linear_1039_916" x1="210.073" y1="53.875" x2="210.073" y2="49.9904" gradientUnits="userSpaceOnUse">
<stop stop-color="#E4EBF4"/>
<stop offset="1" stop-color="#D4F6BF"/>
</linearGradient>
<linearGradient id="paint18_linear_1039_916" x1="233.835" y1="114.536" x2="233.835" y2="78.1884" gradientUnits="userSpaceOnUse">
<stop stop-color="#E4EBF4"/>
<stop offset="1" stop-color="#D4F6BF"/>
</linearGradient>
<linearGradient id="paint19_linear_1039_916" x1="233.575" y1="64.9709" x2="233.575" y2="55.9176" gradientUnits="userSpaceOnUse">
<stop stop-color="#E4EBF4"/>
<stop offset="1" stop-color="#D4F6BF"/>
</linearGradient>
<linearGradient id="paint20_linear_1039_916" x1="256.462" y1="53.875" x2="256.462" y2="49.9904" gradientUnits="userSpaceOnUse">
<stop stop-color="#E4EBF4"/>
<stop offset="1" stop-color="#D4F6BF"/>
</linearGradient>
<linearGradient id="paint21_linear_1039_916" x1="262.886" y1="35.3018" x2="262.886" y2="29.0067" gradientUnits="userSpaceOnUse">
<stop stop-color="#E4EBF4"/>
<stop offset="1" stop-color="#D4F6BF"/>
</linearGradient>
</defs>
</svg>
