<svg width="961" height="182" viewBox="0 0 961 182" fill="none" xmlns="http://www.w3.org/2000/svg">
<path d="M-74.6447 64.8488C-93.8745 64.9135 -112.918 67.6847 -130.794 73.0197C-152.938 54.1692 -180.581 39.4341 -211.557 29.9691C-242.532 20.5041 -275.999 16.5663 -309.334 18.4643C-342.67 20.3623 -374.969 28.0445 -403.7 40.9089C-432.432 53.7734 -456.815 71.4706 -474.939 92.6139C-493.487 88.1793 -513.17 87.1245 -532.365 89.5363C-551.561 91.948 -569.721 97.7573 -585.35 106.486C-600.978 115.214 -613.629 126.612 -622.259 139.741C-630.889 152.87 -635.252 167.354 -634.989 182H80.9999C81.0004 166.616 76.975 151.382 69.1533 137.169C61.3316 122.955 49.8669 110.041 35.4139 99.1622C20.961 88.2836 3.80273 79.6543 -15.0812 73.7668C-33.9651 67.8793 -54.2048 64.849 -74.6447 64.8488Z" fill="white"/>
<path d="M-204.855 84.1965C-186.986 78.8595 -167.948 76.0885 -148.725 76.0267C-110.027 76.0295 -72.7194 86.8876 -44.0833 106.482C-15.4472 126.076 2.46237 153.001 6.14987 182H81C81.0002 166.618 76.9758 151.386 69.1565 137.174C61.3371 122.963 49.8761 110.05 35.4276 99.1731C20.9791 88.2962 3.82617 79.6682 -15.0517 73.7817C-33.9296 67.8952 -54.1627 64.8656 -74.5959 64.8658C-93.8194 64.9275 -112.857 67.6985 -130.726 73.0355C-160.13 47.9979 -199.046 30.3694 -242.203 22.5383C-285.36 14.7072 -330.672 17.0518 -372 29.2548C-340.502 28.6777 -309.218 33.2969 -280.343 42.7882C-251.469 52.2795 -225.703 66.4128 -204.855 84.1965Z" fill="#C0CEDD"/>
<path d="M126.427 51.9907C145.63 52.0629 164.648 55.1383 182.499 61.0585C204.612 40.139 232.216 23.7866 263.148 13.2828C294.08 2.77897 327.5 -1.59104 360.789 0.515256C394.078 2.62155 426.332 11.1469 455.023 25.4233C483.715 39.6997 508.064 59.3393 526.163 82.8032C544.685 77.882 564.34 76.7113 583.509 79.3878C602.678 82.0642 620.812 88.5111 636.419 98.1976C652.026 107.884 664.659 120.533 673.277 135.103C681.895 149.672 686.252 165.746 685.989 182H-29C-29.0004 164.927 -24.9805 148.021 -17.1697 132.248C-9.35897 116.475 2.0897 102.143 16.5225 90.0703C30.9553 77.9978 48.0895 68.4212 66.947 61.8875C85.8046 55.3538 106.016 51.9909 126.427 51.9907Z" fill="white"/>
<path d="M562.247 77.983C550.164 78.1257 538.171 79.7453 526.651 82.79C502.407 51.4493 467.131 27.1276 425.659 13.1591C384.187 -0.809382 338.549 -3.74111 295 4.76583C349.637 15.4953 397.162 43.4613 427.593 82.79C446.176 77.8682 465.895 76.6975 485.127 79.3744C504.359 82.0512 522.552 88.4989 538.21 98.1867C553.868 107.874 566.542 120.525 575.189 135.097C583.835 149.668 588.206 165.744 587.943 182H687C687 168.34 683.773 154.814 677.504 142.194C671.234 129.573 662.045 118.106 650.46 108.448C638.876 98.7886 625.123 91.1267 609.988 85.8996C594.852 80.6725 578.63 77.9825 562.247 77.983Z" fill="#C0CEDD"/>
<path d="M593.076 79.8943C605.688 79.9511 618.177 82.3701 629.901 87.0267C644.424 70.5721 662.552 57.7098 682.867 49.4478C703.182 41.1859 725.13 37.7485 746.993 39.4053C768.855 41.062 790.038 47.7678 808.88 58.9972C827.723 70.2265 843.714 85.6745 855.601 104.13C867.765 100.26 880.674 99.3388 893.263 101.444C905.852 103.549 917.762 108.62 928.011 116.239C938.261 123.858 946.557 133.808 952.217 145.268C957.877 156.728 960.739 169.371 960.566 182.156H491C491 168.727 493.64 155.429 498.769 143.022C503.899 130.615 511.418 119.342 520.897 109.847C530.375 100.351 541.628 92.818 554.013 87.6788C566.397 82.5396 579.671 79.8944 593.076 79.8943Z" fill="white"/>
<path d="M879.124 100.385C871.194 100.497 863.322 101.771 855.762 104.164C839.85 79.5264 816.699 60.4065 789.48 49.4255C762.262 38.4445 732.309 36.1398 703.728 42.8273C739.587 51.2621 770.778 73.2468 790.75 104.164C802.946 100.295 815.888 99.3747 828.51 101.479C841.131 103.583 853.072 108.652 863.349 116.268C873.625 123.884 881.943 133.829 887.618 145.284C893.292 156.739 896.161 169.376 895.988 182.156H961C961 171.417 958.882 160.784 954.768 150.863C950.653 140.942 944.622 131.927 937.019 124.334C929.416 116.741 920.39 110.718 910.456 106.609C900.523 102.499 889.876 100.385 879.124 100.385Z" fill="#C0CEDD"/>
</svg>
