<svg width="36" height="36" viewBox="0 0 36 36" fill="none" xmlns="http://www.w3.org/2000/svg">
<path d="M13.4998 13.5L20.9998 31.5L23.6998 23.7L31.4998 21L13.4998 13.5ZM10.7998 3.3L11.9998 7.65L10.7998 3.3ZM7.6498 12L3.2998 10.8L7.6498 12ZM20.9998 6.15L17.9998 9L20.9998 6.15ZM8.9998 18L6.1498 21L8.9998 18Z" fill="#FF9FFF"/>
<path d="M10.7998 3.3L11.9998 7.65M7.6498 12L3.2998 10.8M20.9998 6.15L17.9998 9M8.9998 18L6.1498 21M13.4998 13.5L20.9998 31.5L23.6998 23.7L31.4998 21L13.4998 13.5Z" stroke="#FF9FFF" stroke-width="2" stroke-linecap="round" stroke-linejoin="round"/>
</svg>
