<svg width="342" height="489" viewBox="0 0 342 489" fill="none" xmlns="http://www.w3.org/2000/svg">
<path d="M151.157 83.9178C150.009 84.0213 148.919 84.4709 148.032 85.2073C147.144 85.9436 146.502 86.932 146.188 88.0416C145.875 89.1512 145.906 90.3297 146.277 91.4214C146.648 92.513 147.342 93.4663 148.267 94.155C173.268 112.724 219.814 140.501 281.05 142.697C300.253 143.386 349.602 144.482 394.35 113.073C408.081 103.435 420.645 94.6166 419.168 87.2935C416.334 73.258 361.942 64.7321 151.157 83.9178Z" fill="#E1F0FF"/>
<path d="M77.2035 115.373C48.5401 130.303 52.2629 188.728 58.9698 217.285C62.0352 230.34 71.2125 269.417 106.22 291.449C141.462 313.627 164.088 294.118 208.117 309.728C267.875 330.914 260.72 379.096 308.028 395.11C364.393 414.191 447.72 370.57 487.398 310.455C528.713 247.865 530.017 156.319 490.368 132.786C471.013 121.299 455.365 134.011 354.837 152.817C290.365 164.88 258.13 170.912 233.973 168.682C144.468 160.422 110.218 98.1774 77.2035 115.373Z" fill="#E1F0FF"/>
<path d="M305.153 229.333C305.338 229.144 305.441 228.889 305.439 228.624C305.437 228.359 305.329 228.105 305.14 227.92L296.589 219.513L296.613 210.061L303.767 217.096C303.884 217.211 304.026 217.295 304.183 217.341C304.339 217.388 304.505 217.396 304.665 217.363C304.825 217.331 304.975 217.26 305.101 217.157C305.228 217.054 305.327 216.921 305.39 216.771L305.685 216.071C305.725 215.974 305.751 215.872 305.761 215.768L306.589 206.074L313.381 212.9L312.407 224.282C312.386 224.546 312.47 224.807 312.641 225.009C312.812 225.212 313.056 225.338 313.32 225.36C313.584 225.382 313.846 225.299 314.048 225.129C314.251 224.958 314.378 224.714 314.401 224.45L315.23 214.757L317.62 217.159C317.414 217.533 317.299 217.951 317.284 218.378C317.268 218.805 317.353 219.23 317.532 219.618C319.013 223.183 324.556 220.885 323.071 217.315C322.925 216.944 322.704 216.608 322.42 216.329C322.137 216.049 321.798 215.832 321.425 215.692C321.052 215.551 320.654 215.491 320.257 215.515C319.859 215.538 319.471 215.645 319.117 215.828L316.597 213.295L326.539 213.211C326.804 213.209 327.057 213.101 327.242 212.912C327.428 212.722 327.531 212.467 327.529 212.202C327.527 211.937 327.419 211.684 327.23 211.498C327.042 211.312 326.787 211.208 326.522 211.21L314.624 211.312L307.956 204.611L317.897 204.527C318.06 204.526 318.221 204.484 318.364 204.406C318.508 204.329 318.63 204.217 318.721 204.081C318.811 203.946 318.867 203.79 318.884 203.627C318.9 203.465 318.877 203.301 318.815 203.15L318.528 202.448L318.526 202.441C318.487 202.346 318.433 202.258 318.367 202.18L312.069 194.706L322.071 194.731L329.749 203.206C329.927 203.402 330.176 203.52 330.44 203.534C330.705 203.547 330.965 203.454 331.161 203.276C331.358 203.098 331.476 202.85 331.489 202.585C331.502 202.32 331.41 202.061 331.232 201.864L324.776 194.737L328.862 194.748C328.879 194.793 328.883 194.836 328.903 194.883C330.385 198.447 335.927 196.15 334.443 192.579C333.291 189.807 329.695 190.587 328.846 192.747L324.487 192.736L331.27 185.319C331.359 185.222 331.427 185.109 331.472 184.985C331.517 184.862 331.537 184.731 331.531 184.6C331.525 184.469 331.494 184.34 331.438 184.221C331.383 184.102 331.304 183.995 331.207 183.907C331.111 183.818 330.997 183.75 330.874 183.705C330.75 183.66 330.62 183.64 330.488 183.646C330.357 183.652 330.229 183.683 330.11 183.739C329.991 183.794 329.884 183.873 329.795 183.969L321.782 192.73L312.064 192.705L319.001 185.648C319.116 185.531 319.199 185.389 319.246 185.232C319.292 185.076 319.3 184.911 319.268 184.751C319.238 184.59 319.168 184.439 319.065 184.313C318.961 184.186 318.828 184.088 318.677 184.026L317.977 183.732C317.88 183.69 317.778 183.665 317.673 183.657L307.961 182.827L314.787 176.034L326.187 177.009C326.451 177.031 326.714 176.948 326.916 176.777C327.119 176.606 327.246 176.361 327.268 176.097C327.291 175.832 327.207 175.57 327.036 175.367C326.865 175.164 326.621 175.038 326.356 175.015L316.645 174.186L319.231 171.612C321.346 172.307 324.191 170.345 323.075 167.665C321.594 164.099 316.052 166.397 317.536 169.968C317.589 170.082 317.649 170.192 317.714 170.299L315.2 172.802L315.116 162.879C315.112 162.615 315.004 162.362 314.815 162.177C314.626 161.992 314.372 161.89 314.107 161.892C313.843 161.894 313.59 162.001 313.404 162.189C313.218 162.378 313.114 162.632 313.116 162.896L313.217 174.775L306.517 181.443L306.432 171.519C306.431 171.336 306.379 171.157 306.282 171.001C306.186 170.846 306.049 170.719 305.885 170.637L305.185 170.279C305.004 170.188 304.8 170.153 304.599 170.18C304.398 170.207 304.21 170.294 304.06 170.43L296.693 177.106L296.716 167.559L305.431 159.664C305.628 159.486 305.746 159.237 305.759 158.972C305.772 158.707 305.679 158.448 305.501 158.251C305.323 158.054 305.075 157.936 304.81 157.923C304.545 157.91 304.285 158.003 304.089 158.181L296.722 164.855L296.73 161.361C297.112 161.242 297.464 161.043 297.764 160.779C298.064 160.514 298.305 160.189 298.47 159.825C298.636 159.461 298.723 159.065 298.725 158.665C298.727 158.265 298.645 157.869 298.484 157.503C297.002 153.937 291.459 156.235 292.944 159.807C293.093 160.204 293.332 160.561 293.642 160.85C293.952 161.138 294.325 161.352 294.731 161.472L294.722 164.705L287.547 158.142C287.351 157.963 287.093 157.869 286.828 157.88C286.563 157.892 286.314 158.009 286.135 158.204C285.956 158.4 285.862 158.658 285.874 158.923C285.885 159.188 286.002 159.437 286.197 159.616L294.716 167.41L294.693 176.955L287.516 170.392C287.385 170.271 287.224 170.188 287.05 170.151C286.876 170.113 286.695 170.123 286.526 170.18L285.79 170.424C285.598 170.488 285.431 170.608 285.309 170.769C285.187 170.929 285.116 171.123 285.106 171.324L284.621 181.162L277.888 174.396L278.463 162.739C278.47 162.608 278.45 162.477 278.406 162.353C278.362 162.229 278.294 162.116 278.205 162.018C278.117 161.921 278.011 161.842 277.892 161.786C277.773 161.73 277.645 161.698 277.513 161.691C277.382 161.685 277.251 161.704 277.127 161.748C277.004 161.793 276.89 161.861 276.793 161.949C276.695 162.037 276.616 162.144 276.56 162.263C276.504 162.381 276.472 162.51 276.465 162.641L275.981 172.48L273.717 170.207C273.918 169.834 274.03 169.42 274.043 168.997C274.057 168.573 273.972 168.153 273.795 167.768C272.313 164.202 266.77 166.5 268.255 170.07C268.402 170.443 268.625 170.78 268.91 171.06C269.196 171.341 269.537 171.558 269.912 171.697C270.287 171.837 270.687 171.896 271.087 171.87C271.486 171.844 271.875 171.734 272.229 171.548L274.545 173.874L264.74 174.31C264.609 174.316 264.48 174.347 264.361 174.402C264.242 174.458 264.135 174.536 264.046 174.633C263.957 174.73 263.888 174.843 263.843 174.967C263.798 175.09 263.778 175.221 263.784 175.353C263.79 175.484 263.821 175.613 263.877 175.732C263.933 175.851 264.011 175.958 264.108 176.047C264.205 176.135 264.319 176.204 264.442 176.249C264.566 176.294 264.697 176.313 264.828 176.307L276.453 175.791L283.187 182.557L273.381 182.994C273.204 183.001 273.031 183.056 272.882 183.153C272.732 183.249 272.611 183.384 272.532 183.543L272.183 184.237C272.093 184.417 272.059 184.621 272.086 184.821C272.114 185.02 272.2 185.207 272.335 185.357L278.92 192.625L269.737 192.603L262.23 183.692C262.058 183.491 261.814 183.367 261.551 183.345C261.288 183.324 261.027 183.407 260.825 183.577C260.623 183.748 260.497 183.991 260.473 184.254C260.45 184.517 260.532 184.778 260.701 184.981L267.118 192.597L263.44 192.588C263.413 192.506 263.4 192.425 263.365 192.342C261.883 188.777 256.34 191.074 257.825 194.646C258.958 197.371 262.455 196.665 263.38 194.588L266.865 194.596L260.065 201.511C259.928 201.652 259.835 201.83 259.797 202.023C259.76 202.216 259.78 202.415 259.855 202.597C259.907 202.72 259.983 202.832 260.078 202.927C260.267 203.112 260.523 203.215 260.788 203.213C261.053 203.21 261.307 203.103 261.493 202.913L269.662 194.603L278.951 194.626L272.297 201.901C272.176 202.032 272.093 202.193 272.056 202.367C272.019 202.541 272.029 202.722 272.086 202.89L272.329 203.626L272.355 203.695C272.428 203.87 272.549 204.02 272.704 204.129C272.858 204.238 273.041 204.301 273.23 204.31L283.051 204.795L276.284 211.529L264.644 210.953C264.513 210.947 264.382 210.967 264.258 211.011C264.134 211.055 264.021 211.124 263.924 211.212C263.826 211.3 263.747 211.407 263.691 211.525C263.635 211.644 263.603 211.773 263.597 211.904C263.59 212.035 263.61 212.166 263.654 212.29C263.699 212.413 263.767 212.527 263.855 212.624C263.943 212.721 264.05 212.8 264.169 212.856C264.287 212.912 264.416 212.945 264.547 212.951L274.367 213.436L272.198 215.594C270.068 214.677 266.982 216.669 268.135 219.445C269.618 223.009 275.16 220.711 273.675 217.141C273.656 217.095 273.628 217.059 273.608 217.015L275.779 214.854L276.216 224.677C276.221 224.808 276.253 224.937 276.308 225.056C276.363 225.175 276.442 225.282 276.539 225.371C276.636 225.46 276.749 225.529 276.873 225.574C276.996 225.619 277.127 225.639 277.258 225.633C277.39 225.627 277.519 225.596 277.638 225.54C277.757 225.485 277.864 225.406 277.952 225.309C278.041 225.212 278.11 225.098 278.154 224.975C278.199 224.851 278.219 224.72 278.213 224.589L277.695 212.946L284.462 206.212L284.898 216.037C284.906 216.198 284.952 216.355 285.033 216.494C285.114 216.634 285.228 216.752 285.365 216.838C285.501 216.924 285.657 216.975 285.818 216.988C285.978 217.001 286.14 216.975 286.289 216.912L286.984 216.618C287.076 216.578 287.161 216.525 287.237 216.461L294.611 210.249L294.587 219.878L285.918 227.182C285.716 227.353 285.589 227.598 285.567 227.862C285.545 228.126 285.628 228.388 285.799 228.59C285.97 228.793 286.214 228.919 286.478 228.942C286.742 228.964 287.004 228.881 287.207 228.711L294.581 222.498L294.574 226.03C294.196 226.153 293.849 226.354 293.555 226.62C293.26 226.885 293.024 227.21 292.862 227.572C292.7 227.935 292.617 228.327 292.616 228.724C292.615 229.12 292.697 229.513 292.858 229.876C294.34 233.441 299.883 231.143 298.399 227.573C298.248 227.17 298.004 226.809 297.687 226.518C297.37 226.227 296.989 226.015 296.575 225.899L296.582 222.311L303.74 229.345C303.833 229.437 303.944 229.51 304.066 229.559C304.187 229.609 304.318 229.633 304.449 229.632C304.58 229.631 304.71 229.604 304.831 229.553C304.951 229.501 305.061 229.426 305.153 229.333ZM303.87 214.392L296.619 207.264L296.646 196.083L304.74 204.216L303.87 214.392ZM316.057 202.543L305.982 202.629L298.065 194.671L309.45 194.7L316.057 202.543ZM316.297 185.547L309.266 192.699L298.07 192.671L306.104 184.676L316.297 185.547ZM304.443 172.782L304.534 183.416L296.658 191.253L296.686 179.81L304.443 172.782ZM287.043 172.668L294.686 179.659L294.658 191.249L286.529 183.079L287.043 172.668ZM274.654 184.939L285.095 184.474L293.24 192.659L281.625 192.632L274.654 184.939ZM274.574 202.373L281.656 194.632L293.234 194.66L284.967 202.887L274.574 202.373ZM286.819 214.198L286.379 204.304L294.646 196.078L294.618 207.628L286.819 214.198Z" fill="#E4EBF1"/>
<path d="M239.477 191.695C239.853 191.794 240.253 191.742 240.592 191.552C240.932 191.362 241.184 191.047 241.295 190.674C241.407 190.302 241.37 189.9 241.191 189.554C241.013 189.209 240.707 188.946 240.338 188.821C239.962 188.722 239.562 188.774 239.223 188.964C238.884 189.154 238.631 189.469 238.52 189.842C238.408 190.215 238.445 190.616 238.624 190.962C238.802 191.307 239.108 191.57 239.477 191.695ZM195.381 98.1043C199.079 99.2131 200.809 93.4679 197.105 92.3572C193.406 91.2481 191.677 96.9936 195.381 98.1043ZM146.694 200.692C150.392 201.8 152.122 196.055 148.418 194.945C144.72 193.836 142.99 199.581 146.694 200.692ZM354.011 228.359C357.71 229.468 359.439 223.722 355.735 222.611C352.037 221.503 350.307 227.248 354.011 228.359ZM253.928 75.8223C257.626 76.9311 259.356 71.1859 255.652 70.0752C251.955 68.9664 250.224 74.7116 253.928 75.8223ZM78.3759 332.87C82.0742 333.979 83.8033 328.233 80.0993 327.122C76.402 326.014 74.6718 331.759 78.3759 332.87ZM378.578 367.018C382.276 368.127 384.006 362.382 380.302 361.271C376.604 360.162 374.874 365.908 378.578 367.018ZM225.745 280.096C229.443 281.205 231.172 275.46 227.468 274.349C223.771 273.24 222.041 278.985 225.745 280.096Z" fill="#E1F0FF"/>
<path d="M35.8909 365.832L42.1068 345.104C46.0338 332.008 54.7766 320.886 66.5748 313.978C78.373 307.07 92.3504 304.889 105.693 307.873L168.049 321.819L199.236 282.482C203.588 276.992 211.192 273.44 217.834 275.667L311.972 308.7C324.048 312.748 334.128 321.247 340.157 332.467C346.187 343.686 347.713 356.782 344.426 369.087L339.226 388.552L352.763 417.002C356.001 423.809 356.595 431.576 354.43 438.797L348.224 459.493L35.8909 365.832Z" fill="#EF403A"/>
<path d="M352.762 417.002L339.226 388.552L344.426 369.087C347.713 356.782 346.187 343.686 340.157 332.467C334.128 321.247 324.048 312.748 311.972 308.7L290.976 301.66L285.43 299.386L217.834 275.667C211.192 273.44 203.588 276.992 199.236 282.482C199.236 282.482 209.854 275.542 222.351 280.661C229.967 283.781 247.072 290.673 261.997 297.194C270.103 300.724 277.261 306.118 282.889 312.936C288.517 319.755 292.455 327.807 294.384 336.435C297.295 349.803 298.597 363.471 298.26 377.147C297.587 410.114 310.737 436.468 320.223 451.096L348.224 459.493L354.43 438.796C356.596 431.576 356.001 423.808 352.762 417.002Z" fill="#C72932"/>
<path d="M364.155 417.683L350.024 413.445L344.617 431.474L358.749 435.712L364.155 417.683Z" fill="#C72932"/>
<path d="M356.023 456.507L31.5089 359.193C31.0601 359.058 30.6832 358.751 30.461 358.339C30.2388 357.926 30.1896 357.442 30.3242 356.993C30.4588 356.545 30.7661 356.168 31.1786 355.945C31.5911 355.723 32.075 355.674 32.5238 355.809L357.038 453.123C357.486 453.258 357.863 453.565 358.086 453.977C358.308 454.39 358.357 454.874 358.222 455.323C358.088 455.771 357.78 456.148 357.368 456.37C356.955 456.593 356.472 456.642 356.023 456.507Z" fill="#E1F0FF"/>
<path d="M256.109 350.881L188.759 330.684C192.286 318.924 200.34 309.047 211.149 303.225C221.958 297.404 234.637 296.114 246.397 299.641L268.729 306.338C268.995 306.417 269.244 306.549 269.459 306.725C269.675 306.901 269.854 307.118 269.986 307.363C270.118 307.608 270.201 307.877 270.229 308.154C270.257 308.431 270.23 308.711 270.15 308.977L257.869 349.933C257.815 350.111 257.727 350.277 257.61 350.42C257.493 350.564 257.349 350.684 257.185 350.772C257.022 350.86 256.843 350.914 256.658 350.933C256.473 350.952 256.287 350.934 256.109 350.881ZM321.781 370.574L269.049 354.761C268.871 354.708 268.705 354.62 268.561 354.503C268.418 354.386 268.298 354.241 268.21 354.078C268.122 353.914 268.067 353.735 268.049 353.551C268.03 353.366 268.048 353.18 268.101 353.002L280.383 312.046C280.544 311.507 280.913 311.055 281.408 310.788C281.902 310.522 282.483 310.462 283.021 310.624L290.737 312.937C302.497 316.464 312.374 324.518 318.195 335.327C324.017 346.136 325.307 358.814 321.781 370.574Z" fill="#F0EFEF"/>
<path d="M321.78 370.575C325.307 358.815 324.017 346.136 318.195 335.327C312.374 324.518 302.497 316.464 290.737 312.937L283.021 310.624C282.706 310.53 282.373 310.511 282.049 310.569C281.724 310.627 281.418 310.76 281.155 310.958C287.707 318.154 292.267 326.936 294.384 336.435C296.338 345.326 297.559 354.363 298.032 363.454L321.78 370.575Z" fill="#DCDBDB"/>
<path d="M237.605 410.124L172.963 390.739C172.697 390.659 172.448 390.528 172.233 390.352C172.017 390.176 171.838 389.959 171.706 389.714C171.574 389.469 171.491 389.2 171.463 388.923C171.435 388.646 171.462 388.366 171.542 388.1L186.543 338.075C186.623 337.808 186.755 337.56 186.931 337.344C187.107 337.128 187.323 336.949 187.568 336.817C187.814 336.685 188.082 336.602 188.359 336.574C188.636 336.546 188.916 336.573 189.183 336.653L253.825 356.037C254.091 356.117 254.34 356.249 254.556 356.425C254.771 356.601 254.95 356.818 255.082 357.063C255.214 357.308 255.297 357.577 255.325 357.854C255.353 358.131 255.326 358.41 255.246 358.677L240.245 408.702C240.165 408.969 240.033 409.217 239.857 409.433C239.682 409.649 239.465 409.828 239.22 409.96C238.975 410.092 238.706 410.174 238.429 410.202C238.152 410.231 237.872 410.204 237.605 410.124Z" fill="#F6978F"/>
<path d="M145.377 388.574C142.877 396.91 137.961 404.318 131.252 409.86C124.542 415.403 116.339 418.831 107.681 419.711C99.0226 420.592 90.2977 418.885 82.6094 414.807C74.921 410.729 68.6147 404.463 64.4878 396.801C60.3609 389.139 58.5987 380.425 59.4243 371.761C60.2498 363.097 63.6258 354.873 69.1255 348.128C74.6252 341.383 82.0015 336.42 90.3216 333.868C98.6418 331.315 107.532 331.287 115.868 333.787C121.403 335.447 126.557 338.18 131.035 341.832C135.514 345.483 139.229 349.981 141.969 355.069C144.709 360.156 146.421 365.733 147.005 371.482C147.59 377.231 147.037 383.039 145.377 388.574Z" fill="#4C4C4B"/>
<path d="M121.501 381.414C120.418 385.028 118.287 388.239 115.378 390.642C112.469 393.045 108.913 394.531 105.159 394.913C101.406 395.294 97.6234 394.555 94.2904 392.787C90.9574 391.019 88.2235 388.302 86.4344 384.98C84.6453 381.659 83.8814 377.881 84.2392 374.125C84.5971 370.369 86.0607 366.804 88.4449 363.88C90.8291 360.956 94.0268 358.804 97.6337 357.698C101.241 356.591 105.095 356.579 108.709 357.662C113.555 359.116 117.625 362.435 120.024 366.889C122.423 371.343 122.954 376.568 121.501 381.414Z" fill="black"/>
<path d="M110.782 378.199C110.334 379.693 109.453 381.02 108.25 382.014C107.048 383.007 105.578 383.621 104.027 383.779C102.475 383.937 100.912 383.631 99.534 382.9C98.1563 382.169 97.0263 381.046 96.2867 379.673C95.5472 378.3 95.2314 376.739 95.3794 375.187C95.5273 373.634 96.1323 372.16 97.1178 370.952C98.1033 369.743 99.425 368.854 100.916 368.396C102.407 367.939 104 367.934 105.494 368.382C107.497 368.982 109.179 370.354 110.171 372.195C111.162 374.037 111.382 376.196 110.782 378.199ZM327.368 443.149C324.868 451.485 319.953 458.893 313.243 464.435C306.533 469.978 298.33 473.406 289.672 474.286C281.014 475.167 272.289 473.461 264.601 469.382C256.912 465.304 250.606 459.038 246.479 451.376C242.352 443.714 240.59 435 241.416 426.336C242.241 417.672 245.617 409.448 251.117 402.703C256.616 395.958 263.993 390.996 272.313 388.443C280.633 385.89 289.523 385.862 297.859 388.362C309.038 391.714 318.426 399.369 323.96 409.644C329.494 419.918 330.72 431.97 327.368 443.149Z" fill="#4C4C4B"/>
<path d="M303.492 435.989C302.408 439.602 300.277 442.814 297.368 445.216C294.459 447.619 290.903 449.105 287.15 449.487C283.396 449.868 279.614 449.128 276.281 447.36C272.948 445.592 270.215 442.876 268.426 439.554C266.637 436.232 265.873 432.455 266.231 428.699C266.589 424.943 268.052 421.378 270.437 418.454C272.821 415.53 276.018 413.379 279.625 412.272C283.232 411.166 287.086 411.154 290.7 412.237C295.546 413.691 299.616 417.01 302.015 421.464C304.414 425.918 304.945 431.143 303.492 435.989Z" fill="black"/>
<path d="M292.773 432.774C292.325 434.268 291.444 435.596 290.242 436.589C289.039 437.583 287.569 438.197 286.018 438.355C284.466 438.513 282.902 438.207 281.524 437.476C280.147 436.745 279.016 435.622 278.277 434.249C277.537 432.876 277.221 431.314 277.369 429.762C277.517 428.209 278.122 426.735 279.108 425.526C280.094 424.318 281.416 423.428 282.907 422.971C284.398 422.514 285.991 422.509 287.485 422.957C289.488 423.557 291.17 424.929 292.162 426.77C293.154 428.612 293.373 430.771 292.773 432.774Z" fill="#4C4C4B"/>
<path d="M206.479 350.262L194.054 346.536L193.031 349.947L205.457 353.673L206.479 350.262Z" fill="#C72932"/>
<path d="M93.8004 407.377C87.5817 405.512 82.0557 401.845 77.9211 396.839C73.7866 391.834 71.2292 385.714 70.5724 379.255C69.9156 372.796 71.1889 366.288 74.2312 360.552C77.2735 354.817 81.9482 350.113 87.6642 347.034C93.3802 343.955 99.8807 342.641 106.344 343.257C112.807 343.873 118.942 346.391 123.974 350.494C129.005 354.597 132.707 360.1 134.612 366.306C136.516 372.513 136.537 379.145 134.672 385.364C132.163 393.697 126.45 400.695 118.788 404.822C111.126 408.949 102.139 409.868 93.8004 407.377ZM112.252 345.845C106.301 344.06 99.9546 344.08 94.0149 345.903C88.0752 347.725 82.8094 351.268 78.8833 356.084C74.9571 360.899 72.547 366.77 71.9577 372.955C71.3684 379.14 72.6264 385.361 75.5726 390.831C78.5188 396.301 83.0209 400.774 88.5095 403.686C93.9981 406.597 100.227 407.816 106.408 407.187C112.589 406.558 118.445 404.111 123.235 400.154C128.025 396.198 131.535 390.909 133.319 384.958C135.702 376.978 134.823 368.378 130.873 361.046C126.924 353.713 120.227 348.246 112.252 345.845ZM275.792 461.952C269.573 460.087 264.047 456.42 259.912 451.415C255.777 446.409 253.22 440.29 252.563 433.831C251.906 427.372 253.179 420.863 256.221 415.128C259.263 409.392 263.938 404.688 269.654 401.609C275.37 398.53 281.871 397.216 288.334 397.832C294.797 398.448 300.932 400.966 305.964 405.069C310.996 409.172 314.698 414.674 316.602 420.881C318.506 427.088 318.527 433.72 316.662 439.939C314.153 448.272 308.441 455.27 300.779 459.396C293.117 463.523 284.131 464.442 275.792 461.952ZM294.244 400.42C288.293 398.635 281.946 398.655 276.006 400.477C270.066 402.3 264.8 405.843 260.874 410.658C256.948 415.473 254.538 421.344 253.948 427.529C253.359 433.714 254.617 439.935 257.563 445.405C260.509 450.875 265.011 455.349 270.5 458.26C275.988 461.172 282.217 462.39 288.398 461.762C294.579 461.133 300.435 458.686 305.225 454.729C310.016 450.773 313.525 445.484 315.31 439.533C317.693 431.553 316.813 422.953 312.864 415.621C308.915 408.288 302.218 402.821 294.244 400.42Z" fill="#303443"/>
<path d="M183.562 349.755L182.605 349.468L171.988 384.87L172.946 385.157L183.562 349.755Z" fill="#303443"/>
<path d="M239.88 417.361L206.316 407.296L206.029 408.254L239.592 418.318L239.88 417.361Z" fill="#303443"/>
<path d="M318.346 369.023L280.802 357.765L280.515 358.723L318.059 369.981L318.346 369.023Z" fill="#303443"/>
<path d="M168.163 321.335L127.324 311.74L127.095 312.714L167.934 322.308L168.163 321.335Z" fill="#303443"/>
<path d="M306.37 105.824C306.747 105.923 307.147 105.872 307.486 105.681C307.826 105.491 308.078 105.176 308.19 104.803C308.301 104.431 308.264 104.029 308.085 103.683C307.907 103.338 307.601 103.075 307.232 102.95C306.856 102.851 306.456 102.902 306.116 103.093C305.777 103.283 305.525 103.598 305.413 103.971C305.301 104.343 305.338 104.745 305.517 105.091C305.696 105.437 306.002 105.699 306.37 105.824Z" fill="#E1F0FF"/>
<path d="M180.973 223.883L168.119 256.505L382.552 340.997L395.405 308.375L180.973 223.883Z" fill="#FFCC5D"/>
<path d="M179.795 195.387L170.232 219.655L407.341 313.082L416.903 288.814L179.795 195.387Z" fill="#65CADE"/>
<path d="M185.344 117.142L157.913 186.763L311.477 247.268L338.908 177.647L185.344 117.142Z" fill="#FFCC5D"/>
<path d="M204.043 124.507L202.888 127.436L337.754 180.576L338.908 177.647L204.043 124.507Z" fill="#F39821"/>
<path d="M204.043 124.507L202.888 127.436L337.754 180.576L338.908 177.647L204.043 124.507Z" fill="#F39821"/>
<path d="M196.644 202.023L207.499 206.3L216.631 129.468L205.777 125.192L196.644 202.023Z" fill="#82C56D"/>
<path d="M205.392 128.423L216.247 132.7L216.63 129.467L205.776 125.191L205.392 128.423Z" fill="#4DA258"/>
<path d="M165.537 167.413L328.82 203.254L333.008 192.621L169.727 156.78L165.537 167.413Z" fill="#82C56D"/>
<path d="M186.955 198.205L336.526 285.175L407.341 313.078L416.903 288.808L186.955 198.205Z" fill="#46C2CC"/>
<path d="M324.468 318.111L334.813 291.853L178.464 230.249L180.973 223.884L395.405 308.375L392.741 315.138L345.398 296.484L335.21 322.343L324.468 318.111Z" fill="#F39821"/>
<path d="M183.502 211.245C182.128 209.802 181.192 207.999 180.802 206.046C180.495 204.473 180.107 202.488 181.176 201.596C182.434 200.545 184.909 201.683 186.05 202.445C187.026 203.11 187.824 204.003 188.374 205.048C188.924 206.093 189.209 207.256 189.204 208.437C189.184 210.256 188.416 213.015 186.82 213.319C185.682 213.536 184.608 212.409 183.502 211.245ZM176.88 209.847C176.629 211.493 176.443 213.147 176.32 214.808C176.152 217.088 179.695 217.482 179.865 215.186C179.986 213.525 180.173 211.871 180.425 210.225C180.77 207.959 177.226 207.579 176.88 209.847Z" fill="#A5DDEA"/>
<path d="M185.204 247.603C183.831 246.159 182.895 244.356 182.504 242.402C182.197 240.83 181.81 238.845 182.878 237.955C184.135 236.902 186.611 238.041 187.752 238.802C188.728 239.467 189.526 240.361 190.076 241.405C190.626 242.45 190.911 243.613 190.907 244.794C190.887 246.613 190.119 249.372 188.523 249.676C187.385 249.893 186.311 248.766 185.204 247.603ZM178.582 246.204C178.331 247.85 178.144 249.504 178.023 251.165C177.855 253.445 181.398 253.839 181.567 251.544C181.689 249.882 181.875 248.228 182.127 246.583C182.473 244.316 178.928 243.937 178.582 246.204Z" fill="#FEECAA"/>
<path d="M288.441 0.122822L257.561 78.4958L359.804 118.78L390.684 40.4073L288.441 0.122822Z" fill="#82C56D"/>
<path d="M377.812 35.3339C377.812 35.3339 319.742 101.122 261.962 67.3264L257.561 78.4958L359.806 118.78L390.685 40.4064L377.812 35.3339Z" fill="#4DA258"/>
<path d="M293.299 17.0275C291.926 15.5842 290.989 13.7813 290.599 11.8278C290.293 10.2546 289.905 8.2707 290.973 7.37894C292.231 6.32797 294.706 7.46568 295.848 8.22788C296.824 8.89227 297.621 9.78598 298.171 10.8306C298.721 11.8752 299.006 13.0388 299.002 14.2193C298.981 16.0381 298.213 18.7978 296.618 19.1013C295.48 19.3185 294.406 18.1907 293.299 17.0275ZM286.677 15.6291C286.427 17.2756 286.24 18.9294 286.118 20.5905C285.95 22.8703 289.493 23.2646 289.662 20.9686C289.784 19.3074 289.97 17.6537 290.222 16.0073C290.568 13.741 287.023 13.3619 286.677 15.6291Z" fill="#BCDA86"/>
<path d="M375.899 77.9362L329.788 59.7675C335.297 60.0004 340.788 58.9869 345.85 56.8024C348.014 55.8143 353.082 53.5003 353.036 49.9517C353.014 48.2465 351.829 46.5988 349.611 45.1891C348.112 44.2365 345.665 43.2533 340.02 44.1286C336.762 44.6339 333.808 45.5084 325.826 49.1126C323.986 49.944 322.488 50.6233 321.248 51.2005L334.26 18.1745C334.434 17.7349 334.425 17.2446 334.237 16.8113C334.049 16.3781 333.696 16.0374 333.256 15.8642C332.817 15.691 332.326 15.6995 331.893 15.8878C331.46 16.0761 331.119 16.4288 330.946 16.8684L318.414 48.6709C318.254 47.8316 318.077 46.9129 317.881 45.8979C316.216 37.2983 315.225 34.3807 313.757 31.4296C311.214 26.3178 309 24.8865 307.354 24.2102C304.912 23.2158 302.894 23.1964 301.488 24.1624C298.565 26.1745 299.6 31.6473 300.043 33.9851C301.482 40.5929 304.656 46.6978 309.239 51.6708L273.655 37.65C273.216 37.4791 272.727 37.4892 272.295 37.678C271.864 37.8668 271.524 38.219 271.352 38.6574C271.179 39.0958 271.187 39.5848 271.374 40.0173C271.561 40.4499 271.911 40.7908 272.349 40.9654L313.152 57.0433C306.605 60.0557 303.898 66.9359 303.761 67.2928C303.678 67.5121 303.684 67.7555 303.779 67.9702C303.873 68.1849 304.049 68.3536 304.267 68.4395L304.275 68.4418C304.495 68.5265 304.74 68.5202 304.956 68.4244C305.172 68.3285 305.341 68.151 305.425 67.9307C305.457 67.8484 308.188 60.9614 314.584 58.3915L300.065 95.2408C299.894 95.68 299.904 96.1689 300.093 96.6006C300.282 97.0324 300.634 97.3718 301.072 97.5445C301.511 97.7173 302 97.7093 302.432 97.5224C302.865 97.3355 303.206 96.9848 303.38 96.5472L318.167 59.0191L322.297 60.6458C325.232 63.6222 328.115 68.6503 325.377 75.8096C325.293 76.0289 325.299 76.2726 325.394 76.4875C325.488 76.7025 325.664 76.8713 325.883 76.9572L325.89 76.9605C325.999 77.0023 326.116 77.0222 326.233 77.0189C326.35 77.0157 326.466 76.9894 326.572 76.9416C326.679 76.8938 326.776 76.8253 326.856 76.7402C326.937 76.6551 327 76.555 327.041 76.4455C329.431 70.1956 327.921 65.3568 325.573 61.9373L374.593 81.2517C375.033 81.4249 375.523 81.4164 375.956 81.228C376.39 81.0397 376.731 80.6868 376.904 80.2472C377.077 79.8075 377.068 79.317 376.88 78.8836C376.692 78.4503 376.339 78.1095 375.899 77.9362ZM326.56 50.7367C334.353 47.217 337.198 46.3693 340.293 45.8892C345.35 45.1058 347.419 45.9078 348.656 46.6934C350.293 47.7344 351.241 48.93 351.254 49.9736C351.285 52.3623 346.799 54.4099 345.11 55.1814C337.823 58.5095 329.135 58.4317 323.474 57.2789L319.477 55.7047L319.478 55.6924L320.292 53.6251C321.93 52.828 324.157 51.8222 326.56 50.7367ZM301.793 33.6538C301.448 31.83 300.532 26.9844 302.498 25.6303C303.336 25.0547 304.8 25.119 306.533 25.8003L306.677 25.8591C308.034 26.4155 309.884 27.6425 312.162 32.2229C313.557 35.0278 314.507 37.839 316.132 46.2368C316.526 48.2749 316.898 50.1967 317.181 51.7996L316.34 53.937C316.219 54.0581 316.117 54.1976 316.04 54.3502L313.447 53.3284C309.094 49.5719 303.388 42.081 301.793 33.6538Z" fill="#E1F0FF"/>
<path d="M311.68 75.4796C310.321 75.7516 308.951 75.9887 307.571 76.1911L300.064 95.2418L303.38 96.5472L311.68 75.4796ZM375.899 77.9362L341.134 64.2384C339.783 64.991 338.406 65.725 337.003 66.4404L374.593 81.2517L375.899 77.9362ZM325.377 75.8096C325.293 76.0289 325.299 76.2726 325.394 76.4875C325.488 76.7022 325.663 76.8708 325.881 76.9567L325.89 76.9605C325.999 77.0023 326.116 77.0222 326.233 77.0189C326.35 77.0157 326.465 76.9893 326.571 76.9415C326.678 76.8937 326.775 76.8254 326.855 76.7404C326.935 76.6553 326.998 76.5553 327.04 76.446C327.796 74.5346 328.202 72.5029 328.239 70.4477C327.641 70.6899 327.039 70.9278 326.434 71.1613C326.315 72.755 325.959 74.3212 325.377 75.8096Z" fill="#E4EBF1"/>
<path d="M243.059 168.454C243.059 168.454 254.974 167.716 264.471 171.555C273.968 175.396 285.624 177.339 302.98 175.698L296.524 171.254L301.146 164.517C301.146 164.517 284.152 168.782 269.179 163.51C254.206 158.238 248.126 157.983 245.808 158.132L243.059 168.454Z" fill="#F15B43"/>
<path d="M243.059 168.454C243.059 168.454 245.232 168.321 248.456 168.465C248.761 168.083 249.042 167.699 249.31 167.324C251.563 164.181 250.136 163.222 249.584 158.29C248.332 158.124 247.069 158.071 245.808 158.132L243.059 168.454Z" fill="#CF2633"/>
<path d="M178.407 163.938C178.407 163.938 166.692 161.643 156.773 164.204C146.857 166.765 135.045 167.163 118.054 163.26L125.037 159.7L121.339 152.415C121.339 152.415 137.627 158.871 153.162 155.609C168.696 152.347 174.757 152.892 177.036 153.344L178.407 163.938Z" fill="#F15B43"/>
<path d="M177.036 153.344C175.067 153.01 173.066 152.907 171.073 153.037C170.048 156.184 169.185 157.176 170.725 160.06C171.285 161.207 172.002 162.272 172.854 163.223C176.184 163.503 178.407 163.938 178.407 163.938L177.036 153.344Z" fill="#CF2633"/>
<path d="M219.123 150.945C219.123 150.945 230.57 141.921 238.943 142.043C247.316 142.164 245.52 144.947 245.513 153.221C245.506 161.493 248.152 162.098 245.43 165.894C242.709 169.691 238.841 174.593 218.986 166.086C199.13 157.58 219.123 150.945 219.123 150.945Z" fill="#F15B43"/>
<path d="M230.099 147.171L229.884 146.617C230.244 146.478 238.746 143.228 242.651 144.876L242.418 145.422C238.728 143.838 230.186 147.138 230.099 147.171ZM242.058 169.202C241.476 159.075 218.986 165.989 218.986 165.989C232.646 171.841 238.716 171.327 242.058 169.202Z" fill="#CF2633"/>
<path d="M201.551 149.787C201.551 149.787 191.387 139.34 183.071 138.362C174.754 137.384 176.168 140.378 175.091 148.582C174.014 156.784 171.31 157.036 173.509 161.156C175.709 165.277 178.902 170.644 199.702 164.816C220.501 158.987 201.551 149.787 201.551 149.787Z" fill="#F15B43"/>
<path d="M176.463 164.882C177.926 157.235 190.865 161.232 196.803 163.504C198.602 164.192 199.759 164.722 199.759 164.722C185.448 168.732 179.499 167.426 176.463 164.882ZM197.729 153.722C195.429 154.038 193.088 153.65 191.012 152.611C192.555 153.827 194.02 155.14 195.396 156.543C196.117 157.519 195.046 157.52 191.315 157.774C191.315 157.774 197.15 158.836 198.39 162.4L197.729 153.722ZM221.951 155.318C224.189 155.932 226.561 155.855 228.756 155.097C227.066 156.1 225.443 157.21 223.895 158.419C223.051 159.293 224.114 159.434 227.779 160.176C227.779 160.176 221.855 160.465 220.157 163.834L221.951 155.318Z" fill="#CF2633"/>
<path d="M205.037 165.635C205.037 165.635 200.981 169.338 199.744 181.612C199.744 181.612 198.08 181.931 196.25 177.168C194.516 177.895 192.959 178.986 191.683 180.367C191.683 180.367 192.742 167.979 198.99 163.443L205.037 165.635Z" fill="#F15B43"/>
<path d="M193.235 177.059C193.289 176.78 194.569 170.206 196.747 168.455L197.12 168.918C195.111 170.532 193.832 177.104 193.819 177.171L193.235 177.059Z" fill="#CF2633"/>
<path d="M212.308 166.02C212.308 166.02 215.78 170.276 215.208 182.6C215.208 182.6 216.807 183.159 219.312 178.714C220.921 179.687 222.303 180.994 223.363 182.547C223.363 182.547 224.128 170.139 218.61 164.736L212.308 166.02Z" fill="#F15B43"/>
<path d="M221.719 179.073C221.716 179.004 221.412 172.316 219.66 170.426L220.095 170.022C221.995 172.071 222.301 178.763 222.312 179.046L221.719 179.073ZM218.61 164.736L212.308 166.02C213.042 167.093 213.589 168.283 213.925 169.538C214.751 169.837 215.656 169.836 216.482 169.534C217.982 168.902 219.196 167.738 219.89 166.266C219.512 165.717 219.084 165.205 218.61 164.736ZM198.99 163.443C198.344 163.919 197.752 164.465 197.226 165.071C197.698 166.148 198.451 167.079 199.406 167.765C200.498 168.488 201.832 168.75 203.116 168.492C203.599 167.443 204.248 166.478 205.037 165.635L198.99 163.443Z" fill="#CF2633"/>
<path d="M200.463 165.081C197.959 163.349 197.495 160.055 197.327 158.857C197.131 157.462 196.669 154.181 198.855 151.974C199.443 151.351 200.166 150.871 200.968 150.57C201.77 150.269 202.63 150.155 203.483 150.237C204.645 150.437 204.766 151.028 206.407 151.504C207.625 151.845 208.9 151.928 210.152 151.75C212.89 151.417 214.322 150.702 216.248 150.54C217.102 150.449 217.965 150.598 218.738 150.972C219.511 151.346 220.164 151.929 220.622 152.656C223.247 155.696 222.271 159.697 222.026 160.699C221.866 161.359 220.815 165.659 217.538 166.85C215.628 167.545 214.847 166.499 210.941 165.879C204.839 164.911 203.06 166.879 200.463 165.081Z" fill="#F15B43"/>
<path d="M220.058 166.534C232.648 171.771 238.537 171.406 241.85 169.474L242.058 169.202L219.89 166.266L220.058 166.534ZM176.463 164.882C176.463 164.882 176.37 164.876 176.212 164.866C179.062 167.354 184.548 168.744 197.523 165.4L196.418 164.482L185.123 164.523L176.463 164.882Z" fill="#CF2633"/>
<path d="M243.059 168.454C243.059 168.454 254.974 167.716 264.471 171.555C273.968 175.396 285.624 177.339 302.98 175.698L296.524 171.254L301.146 164.517C301.146 164.517 284.152 168.782 269.179 163.51C254.206 158.238 248.126 157.983 245.808 158.132L243.059 168.454Z" fill="#F15B43"/>
<path d="M300.262 165.804L301.146 164.517C301.146 164.517 300.138 164.769 298.409 165.073L300.262 165.804ZM243.059 168.454C243.059 168.454 245.232 168.321 248.456 168.465C248.761 168.083 249.042 167.699 249.31 167.324C251.563 164.181 250.136 163.222 249.584 158.29C248.332 158.124 247.069 158.071 245.808 158.132L243.059 168.454Z" fill="#CF2633"/>
<path d="M178.407 163.938C178.407 163.938 166.692 161.643 156.773 164.204C146.857 166.765 135.045 167.163 118.054 163.26L125.037 159.7L121.339 152.415C121.339 152.415 137.627 158.871 153.162 155.609C168.696 152.347 174.757 152.892 177.036 153.344L178.407 163.938Z" fill="#F15B43"/>
<path d="M177.036 153.344C175.067 153.01 173.066 152.907 171.073 153.037C170.048 156.184 169.185 157.176 170.725 160.06C171.285 161.207 172.002 162.272 172.854 163.223C176.184 163.503 178.407 163.938 178.407 163.938L177.036 153.344Z" fill="#CF2633"/>
<path d="M219.123 150.945C219.123 150.945 230.57 141.921 238.943 142.043C247.316 142.164 245.52 144.947 245.513 153.221C245.506 161.493 248.152 162.098 245.43 165.894C242.709 169.691 238.841 174.593 218.986 166.086C199.13 157.58 219.123 150.945 219.123 150.945Z" fill="#F15B43"/>
<path d="M240.052 142.08L245.16 144.093C244.5 142.841 243.057 142.232 240.052 142.08ZM230.099 147.171L229.884 146.617C230.244 146.478 238.746 143.228 242.651 144.876L242.418 145.422C238.728 143.838 230.186 147.138 230.099 147.171ZM242.058 169.202C241.476 159.075 218.986 165.989 218.986 165.989C232.646 171.841 238.716 171.327 242.058 169.202Z" fill="#CF2633"/>
<path d="M201.551 149.787C201.551 149.787 191.387 139.34 183.071 138.362C174.754 137.384 176.168 140.378 175.091 148.582C174.014 156.784 171.31 157.036 173.509 161.156C175.709 165.277 178.902 170.644 199.702 164.816C220.501 158.987 201.551 149.787 201.551 149.787Z" fill="#F15B43"/>
<path d="M176.463 164.882C177.926 157.235 190.865 161.232 196.803 163.504C198.602 164.192 199.759 164.722 199.759 164.722C185.448 168.732 179.499 167.426 176.463 164.882ZM197.729 153.722C195.429 154.038 193.088 153.65 191.012 152.611C192.555 153.827 194.02 155.14 195.396 156.543C196.117 157.519 195.046 157.52 191.315 157.774C191.315 157.774 197.15 158.836 198.39 162.4L197.729 153.722ZM221.951 155.318C224.189 155.932 226.561 155.855 228.756 155.097C227.066 156.1 225.443 157.21 223.895 158.419C223.051 159.293 224.114 159.434 227.779 160.176C227.779 160.176 221.855 160.465 220.157 163.834L221.951 155.318Z" fill="#CF2633"/>
<path d="M205.037 165.635C205.037 165.635 200.981 169.338 199.744 181.612C199.744 181.612 198.08 181.931 196.25 177.168C194.516 177.895 192.959 178.986 191.683 180.367C191.683 180.367 192.742 167.979 198.99 163.443L205.037 165.635Z" fill="#F15B43"/>
<path d="M193.235 177.059C193.289 176.78 194.569 170.206 196.747 168.455L197.12 168.918C195.111 170.532 193.832 177.104 193.819 177.171L193.235 177.059Z" fill="#CF2633"/>
<path d="M212.308 166.02C212.308 166.02 215.78 170.276 215.208 182.6C215.208 182.6 216.807 183.159 219.312 178.714C220.921 179.687 222.303 180.994 223.363 182.547C223.363 182.547 224.128 170.139 218.61 164.736L212.308 166.02Z" fill="#F15B43"/>
<path d="M221.719 179.073C221.716 179.004 221.412 172.316 219.66 170.426L220.095 170.022C221.995 172.071 222.301 178.763 222.312 179.046L221.719 179.073ZM218.61 164.736L212.308 166.02C213.042 167.093 213.589 168.283 213.925 169.538C214.751 169.837 215.656 169.836 216.482 169.534C217.982 168.902 219.196 167.738 219.89 166.266C219.512 165.717 219.084 165.205 218.61 164.736ZM198.99 163.443C198.344 163.919 197.752 164.465 197.226 165.071C197.698 166.148 198.451 167.079 199.406 167.765C200.498 168.488 201.832 168.75 203.116 168.492C203.599 167.443 204.248 166.478 205.037 165.635L198.99 163.443Z" fill="#CF2633"/>
<path d="M200.463 165.081C197.959 163.349 197.495 160.055 197.327 158.857C197.131 157.462 196.669 154.181 198.855 151.974C199.443 151.351 200.166 150.871 200.968 150.57C201.77 150.269 202.63 150.155 203.483 150.237C204.645 150.437 204.766 151.028 206.407 151.504C207.625 151.845 208.9 151.928 210.152 151.75C212.89 151.417 214.322 150.702 216.248 150.54C217.102 150.449 217.965 150.598 218.738 150.972C219.511 151.346 220.164 151.929 220.622 152.656C223.247 155.696 222.271 159.697 222.026 160.699C221.866 161.359 220.815 165.659 217.538 166.85C215.628 167.545 214.847 166.499 210.941 165.879C204.839 164.911 203.06 166.879 200.463 165.081Z" fill="#F15B43"/>
<path d="M220.058 166.534C232.648 171.771 238.537 171.406 241.85 169.474L242.058 169.202L219.89 166.266L220.058 166.534ZM176.463 164.882C176.463 164.882 176.37 164.876 176.212 164.866C179.062 167.354 184.548 168.744 197.523 165.4L196.418 164.482L185.123 164.523L176.463 164.882Z" fill="#CF2633"/>
<path d="M351.349 262.978L328.933 319.87L351.035 328.578L373.451 271.687L351.349 262.978Z" fill="#F15B43"/>
<path d="M349.004 274.379C347.95 274.863 346.974 275.502 346.109 276.276L341.586 287.756C342.192 287.508 342.825 287.333 343.471 287.235C344.269 292.274 345.963 292.308 345.963 292.308C349.726 280.559 354.463 277.781 354.463 277.781L349.004 274.379ZM366.783 288.611C367.253 286.158 367.095 283.626 366.321 281.251L360.066 279.749C360.066 279.749 361.412 285.074 355.681 295.999C355.681 295.999 356.893 297.182 361.044 294.216C361.929 295.517 362.552 296.977 362.879 298.516L366.783 288.611Z" fill="#CF2633"/>
<path d="M354.463 277.781C356.41 278.187 358.293 278.849 360.066 279.749C362.411 281.066 370.355 279.544 370.355 279.544L358.786 269.477L348.828 270.556C348.828 270.556 348.688 276.758 350.981 277.759C353.275 278.759 354.463 277.781 354.463 277.781Z" fill="#CF2633"/>
<path d="M373.056 264.238C373.056 264.238 386.667 259.145 394.582 261.804C402.497 264.463 399.946 266.56 397.427 274.415C394.905 282.269 397.235 283.646 393.497 286.425C389.76 289.204 384.597 292.685 368.325 278.575C352.053 264.465 373.056 264.238 373.056 264.238Z" fill="#F15B43"/>
<path d="M384.645 264.038L384.608 263.446C384.993 263.422 394.07 262.885 397.297 265.676L396.908 266.124C393.867 263.494 384.737 264.033 384.645 264.038Z" fill="#F6978F"/>
<path d="M356.72 257.801C356.72 257.801 350.241 244.792 342.64 241.338C335.039 237.883 335.472 241.156 331.958 248.619C328.442 256.082 325.8 255.5 326.638 260.08C327.475 264.663 328.875 270.73 350.399 271.511C371.922 272.294 356.72 257.801 356.72 257.801Z" fill="#F15B43"/>
<path d="M351.817 260.416C349.53 260.017 347.418 258.935 345.757 257.313C346.856 258.941 347.851 260.637 348.735 262.391C349.124 263.541 348.104 263.215 344.473 262.322C344.473 262.322 349.706 265.112 349.803 268.882L351.817 260.416ZM374.401 269.315C376.346 270.583 378.629 271.232 380.95 271.178C379.035 271.618 377.15 272.181 375.307 272.862C374.237 273.436 375.207 273.895 378.472 275.717C378.472 275.717 372.741 274.188 370.098 276.879L374.401 269.315Z" fill="#CF2633"/>
<path d="M355.149 273.989C355.149 273.989 350.156 276.281 345.239 287.595C345.239 287.595 343.556 287.391 343.266 282.298C341.393 282.462 339.577 283.026 337.942 283.952C337.942 283.952 342.723 272.476 350.056 270.059L355.149 273.989Z" fill="#F15B43"/>
<path d="M340.949 281.559L340.427 281.274C340.563 281.025 343.786 275.154 346.394 274.15L346.606 274.706C344.202 275.63 340.981 281.499 340.949 281.559Z" fill="#F6978F"/>
<path d="M361.956 276.571C361.956 276.571 363.966 281.683 359.667 293.246C359.667 293.246 361.02 294.266 364.76 290.796C365.997 292.212 366.915 293.879 367.451 295.681C367.451 295.681 371.96 284.094 368.351 277.268L361.956 276.571Z" fill="#F15B43"/>
<path d="M361.956 276.571C361.956 276.571 363.966 281.683 359.667 293.246C359.667 293.246 361.02 294.266 364.76 290.796C365.997 292.212 366.915 293.879 367.451 295.681C367.451 295.681 371.96 284.094 368.351 277.268L361.956 276.571Z" fill="#F15B43"/>
<path d="M366.944 291.869C366.961 291.804 368.708 285.341 367.615 283.008L368.153 282.756C369.339 285.286 367.591 291.753 367.516 292.027L366.944 291.869Z" fill="#F6978F"/>
<path d="M368.94 278.614C368.776 278.152 368.579 277.702 368.351 277.268L361.956 276.571C362.24 277.494 362.39 278.452 362.402 279.418C363.148 280.043 364.097 280.374 365.07 280.349C366.522 280.235 367.889 279.622 368.94 278.614ZM350.056 270.059C349.43 270.27 348.826 270.538 348.25 270.861C348.423 271.811 348.814 272.708 349.392 273.482C350.413 274.808 351.543 275.056 353.2 275.412C353.784 274.855 354.439 274.376 355.149 273.989L350.056 270.059Z" fill="#CF2633"/>
<path d="M351.041 271.994C349.189 269.589 349.75 266.321 349.953 265.131C350.19 263.747 350.749 260.49 353.495 259.058C354.242 258.646 355.074 258.41 355.927 258.367C356.78 258.325 357.631 258.478 358.416 258.815C359.461 259.36 359.397 259.955 360.81 260.906C361.863 261.6 363.048 262.067 364.291 262.278C366.993 262.792 368.57 262.548 370.448 262.981C371.287 263.154 372.06 263.558 372.681 264.147C373.301 264.737 373.744 265.489 373.959 266.317C375.53 270.003 373.386 273.505 372.85 274.383C372.496 274.96 370.193 278.726 366.719 278.861C364.695 278.94 364.27 277.709 360.749 275.934C355.248 273.161 352.962 274.49 351.041 271.994Z" fill="#F15B43"/>
<path d="M330.793 63.5099L330.426 64.4403L357.733 75.2003L358.099 74.2699L330.793 63.5099Z" fill="#303443"/>
<path d="M226.929 66.4238L204.043 124.507L377.497 192.853L400.384 134.77L226.929 66.4238Z" fill="#F15B43"/>
<path d="M219.775 84.5805L214.333 98.3939L387.787 166.74L393.23 152.926L219.775 84.5805Z" fill="#65CADE"/>
<path d="M220.482 115.71C219.109 114.266 218.173 112.463 217.782 110.509C217.476 108.937 217.089 106.953 218.156 106.061C219.414 105.01 221.889 106.148 223.031 106.909C224.006 107.574 224.804 108.468 225.354 109.512C225.904 110.557 226.189 111.721 226.184 112.901C226.164 114.719 225.397 117.48 223.801 117.784C222.662 118 221.59 116.873 220.482 115.71ZM213.861 114.311C213.61 115.957 213.423 117.611 213.301 119.272C213.132 121.552 216.676 121.947 216.845 119.651C216.967 117.989 217.154 116.335 217.405 114.689C217.75 112.422 214.207 112.043 213.861 114.311Z" fill="#F6978F"/>
<path d="M356.877 117.626L333.989 175.71L347.802 181.153L370.69 123.07L356.877 117.626Z" fill="#65CADE"/>
<path d="M350.399 271.511C350.399 271.511 350.159 271.293 349.743 270.935C349.95 270.69 350.062 270.378 350.056 270.058C349.21 269.306 343.966 266.5 343.966 266.5L343.966 266.501C338.494 262.79 331.072 259.22 328.162 264.566C330.125 267.675 334.823 270.53 347.378 271.355L347.376 271.36L348.993 271.559L348.95 271.441C349.432 271.464 349.897 271.493 350.399 271.511ZM389.322 288.664C390.772 283.035 383.665 280.548 377.332 279.446L377.337 279.445C377.337 279.445 371.491 278.426 368.876 278.29L368.759 278.585C368.488 278.577 368.325 278.574 368.325 278.574C368.438 278.673 368.542 278.757 368.655 278.852L368.652 278.857L369.265 279.38L369.281 279.383C379.883 288.365 385.604 289.642 389.322 288.664ZM257.561 78.4958C257.561 78.4958 332.067 116.437 349.722 135.782L352.651 136.936L359.806 118.78L257.561 78.4958Z" fill="#CF2633"/>
<path d="M356.876 117.627L349.722 135.784L352.651 136.938L359.804 118.78L356.876 117.627Z" fill="#46C2CC"/>
<path d="M356.417 117.445L333.524 175.526L334.454 175.893L357.347 117.812L356.417 117.445Z" fill="#303443"/>
<path d="M295.514 195.436L232.753 181.463L232.536 182.44L295.296 196.414L295.514 195.436Z" fill="#303443"/>
<path d="M253.217 236.156L252.714 237.021L279.059 252.337L279.561 251.472L253.217 236.156Z" fill="#303443"/>
<path d="M324.934 318.295L324.004 317.928L334.165 292.135L323.033 287.748L323.399 286.818L335.461 291.571L324.934 318.295Z" fill="#303443"/>
<path d="M276.721 74.6605C271.376 73.1374 266.299 70.7994 261.667 67.7287L262.259 66.9235C270.387 72.1809 279.701 75.3216 289.353 76.0599L289.269 77.0561C285.015 76.6916 280.81 75.8888 276.721 74.6605Z" fill="#303443"/>
<path d="M218.981 99.6892L218.614 100.62L239.32 108.777L239.687 107.847L218.981 99.6892Z" fill="#303443"/>
<path d="M390.597 213.545L390.221 214.472L471.262 247.326L471.638 246.399L390.597 213.545Z" fill="#303443"/>
<path d="M412.834 330.587L412.459 331.513L493.499 364.368L493.875 363.441L412.834 330.587Z" fill="#303443"/>
<path d="M401.221 108.573L400.845 109.5L481.885 142.356L482.261 141.429L401.221 108.573Z" fill="#303443"/>
<path d="M445.725 181.255L445.35 182.182L526.391 215.038L526.766 214.111L445.725 181.255Z" fill="#303443"/>
<path d="M135.417 433.797L19.077 398.909C18.6959 398.795 18.3758 398.534 18.1872 398.183C17.9985 397.833 17.9568 397.422 18.071 397.041C18.1853 396.66 18.4463 396.34 18.7965 396.152C19.1468 395.963 19.5576 395.921 19.9387 396.035L136.278 430.923C136.659 431.037 136.979 431.298 137.168 431.648C137.357 431.999 137.398 432.41 137.284 432.791C137.17 433.172 136.909 433.492 136.559 433.68C136.208 433.869 135.798 433.911 135.417 433.797ZM153.616 439.254L143.599 436.25C143.217 436.136 142.897 435.875 142.709 435.525C142.52 435.174 142.478 434.764 142.593 434.383C142.707 434.001 142.968 433.681 143.318 433.493C143.668 433.304 144.079 433.262 144.46 433.377L154.478 436.381C154.859 436.495 155.179 436.756 155.367 437.106C155.556 437.456 155.598 437.867 155.484 438.248C155.369 438.629 155.108 438.949 154.758 439.138C154.408 439.327 153.997 439.368 153.616 439.254ZM10.8949 396.455L6.62479 395.175C6.24373 395.061 5.92367 394.8 5.73503 394.449C5.54638 394.099 5.50459 393.688 5.61886 393.307C5.73314 392.926 5.9941 392.606 6.34435 392.417C6.69461 392.229 7.10545 392.187 7.48651 392.301L11.7566 393.582C12.1377 393.696 12.4578 393.957 12.6464 394.307C12.8351 394.658 12.8768 395.068 12.7626 395.449C12.6483 395.83 12.3873 396.151 12.0371 396.339C11.6868 396.528 11.276 396.57 10.8949 396.455ZM252.275 468.84L248.963 467.847C248.582 467.732 248.262 467.471 248.073 467.121C247.885 466.771 247.843 466.36 247.957 465.979C248.071 465.598 248.332 465.278 248.683 465.089C249.033 464.901 249.444 464.859 249.825 464.973L253.137 465.966C253.518 466.081 253.838 466.342 254.027 466.692C254.215 467.042 254.257 467.453 254.143 467.834C254.029 468.215 253.768 468.535 253.417 468.724C253.067 468.912 252.656 468.954 252.275 468.84ZM367.218 503.309L258.542 470.719C258.161 470.605 257.84 470.344 257.652 469.993C257.463 469.643 257.421 469.232 257.536 468.851C257.65 468.47 257.911 468.15 258.261 467.962C258.611 467.773 259.022 467.731 259.403 467.845L368.08 500.435C368.461 500.549 368.781 500.81 368.97 501.161C369.158 501.511 369.2 501.922 369.086 502.303C368.972 502.684 368.711 503.004 368.36 503.193C368.01 503.381 367.599 503.423 367.218 503.309ZM240.781 465.393L160.84 441.42C160.459 441.306 160.139 441.045 159.95 440.695C159.762 440.345 159.72 439.934 159.834 439.553C159.948 439.172 160.209 438.852 160.56 438.663C160.91 438.474 161.321 438.433 161.702 438.547L241.643 462.519C242.024 462.634 242.344 462.895 242.532 463.245C242.721 463.595 242.763 464.006 242.649 464.387C242.534 464.768 242.273 465.088 241.923 465.277C241.573 465.465 241.162 465.507 240.781 465.393Z" fill="#303443"/>
<path d="M122.628 250.23C122.344 251.177 121.785 252.019 121.023 252.648C120.26 253.278 119.328 253.668 118.344 253.768C117.36 253.868 116.369 253.674 115.495 253.211C114.622 252.747 113.905 252.035 113.436 251.164C112.967 250.294 112.767 249.304 112.861 248.319C112.955 247.335 113.338 246.4 113.963 245.634C114.588 244.867 115.426 244.303 116.372 244.013C117.317 243.723 118.327 243.72 119.274 244.004C119.903 244.193 120.489 244.503 120.998 244.918C121.507 245.333 121.929 245.844 122.241 246.422C122.552 247 122.746 247.634 122.813 248.287C122.879 248.941 122.816 249.601 122.628 250.23Z" fill="#E1F0FF"/>
<path d="M17.6677 296.316C17.4405 297.074 16.9936 297.747 16.3837 298.251C15.7737 298.755 15.0281 299.067 14.241 299.147C13.4539 299.227 12.6608 299.071 11.9619 298.701C11.263 298.33 10.6898 297.76 10.3146 297.064C9.93946 296.367 9.77929 295.575 9.85432 294.788C9.92935 294 10.2363 293.253 10.7362 292.639C11.2361 292.026 11.9067 291.575 12.663 291.343C13.4193 291.111 14.2275 291.108 14.9852 291.336C16.0014 291.64 16.8548 292.336 17.3579 293.27C17.861 294.204 17.9724 295.3 17.6677 296.316ZM9.8109 199.022C9.52685 199.969 8.96827 200.811 8.20584 201.44C7.44341 202.07 6.51135 202.46 5.52752 202.56C4.54368 202.66 3.55227 202.466 2.67865 202.003C1.80504 201.539 1.08846 200.827 0.619519 199.956C0.150577 199.086 -0.0496487 198.096 0.0441523 197.111C0.137953 196.127 0.521565 195.192 1.14649 194.426C1.77141 193.659 2.60957 193.095 3.55497 192.805C4.50038 192.515 5.51058 192.512 6.45781 192.796C7.0868 192.985 7.6725 193.295 8.18143 193.71C8.69037 194.125 9.11259 194.636 9.42396 195.214C9.73534 195.792 9.92977 196.426 9.99617 197.08C10.0626 197.733 9.99961 198.393 9.8109 199.022ZM539.701 227.39C539.474 228.147 539.027 228.821 538.417 229.325C537.807 229.828 537.061 230.14 536.274 230.22C535.487 230.3 534.694 230.145 533.995 229.774C533.296 229.404 532.723 228.834 532.348 228.137C531.973 227.441 531.812 226.649 531.887 225.861C531.962 225.074 532.269 224.326 532.769 223.713C533.269 223.1 533.94 222.649 534.696 222.417C535.452 222.184 536.261 222.182 537.018 222.409C537.522 222.56 537.99 222.808 538.397 223.14C538.804 223.472 539.142 223.881 539.391 224.344C539.64 224.806 539.796 225.313 539.849 225.836C539.902 226.358 539.852 226.886 539.701 227.39ZM531.844 130.096C531.56 131.043 531.001 131.885 530.239 132.515C529.476 133.145 528.544 133.534 527.56 133.634C526.576 133.734 525.585 133.54 524.711 133.077C523.838 132.614 523.121 131.902 522.652 131.031C522.183 130.16 521.983 129.17 522.077 128.186C522.171 127.201 522.554 126.267 523.179 125.5C523.804 124.734 524.642 124.17 525.588 123.88C526.533 123.59 527.543 123.587 528.49 123.871C529.119 124.059 529.705 124.37 530.214 124.785C530.723 125.2 531.145 125.711 531.456 126.289C531.768 126.867 531.962 127.501 532.029 128.154C532.095 128.807 532.032 129.467 531.844 130.096ZM121.346 83.7981C121.062 84.7453 120.504 85.587 119.741 86.2168C118.979 86.8466 118.047 87.2362 117.063 87.3362C116.079 87.4363 115.088 87.2424 114.214 86.779C113.34 86.3156 112.624 85.6035 112.155 84.7329C111.686 83.8622 111.486 82.8721 111.579 81.8876C111.673 80.9032 112.057 79.9686 112.682 79.2022C113.307 78.4358 114.145 77.8719 115.09 77.5818C116.036 77.2918 117.046 77.2885 117.993 77.5726C119.263 77.9536 120.33 78.8235 120.959 79.991C121.588 81.1585 121.727 82.5279 121.346 83.7981ZM211.434 59.3639C211.093 60.5006 210.422 61.5107 209.507 62.2664C208.593 63.0221 207.474 63.4896 206.293 63.6097C205.113 63.7297 203.923 63.497 202.875 62.941C201.827 62.3849 200.967 61.5304 200.404 60.4857C199.841 59.4409 199.601 58.2527 199.713 57.0714C199.826 55.89 200.286 54.7686 201.036 53.8489C201.786 52.9292 202.792 52.2525 203.926 51.9044C205.061 51.5563 206.273 51.5524 207.41 51.8933C208.934 52.3506 210.214 53.3945 210.969 54.7955C211.723 56.1964 211.89 57.8397 211.434 59.3639ZM85.9363 21.7301C85.709 22.4879 85.2622 23.1613 84.6522 23.6651C84.0423 24.1689 83.2966 24.4806 82.5096 24.5606C81.7225 24.6407 80.9294 24.4855 80.2305 24.1148C79.5316 23.7441 78.9583 23.1745 78.5832 22.4779C78.208 21.7814 78.0478 20.9893 78.1229 20.2017C78.1979 19.4142 78.5048 18.6666 79.0047 18.0534C79.5047 17.4403 80.1752 16.9892 80.9315 16.7571C81.6878 16.525 82.496 16.5225 83.2538 16.7497C84.2699 17.0545 85.1234 17.7504 85.6264 18.6844C86.1295 19.6184 86.2409 20.7139 85.9363 21.7301Z" fill="#E1F0FF"/>
<path d="M96.7893 153.911C96.562 154.669 96.1152 155.342 95.5052 155.846C94.8953 156.35 94.1496 156.661 93.3626 156.741C92.5755 156.821 91.7824 156.666 91.0835 156.296C90.3846 155.925 89.8113 155.355 89.4362 154.659C89.061 153.962 88.9008 153.17 88.9759 152.383C89.0509 151.595 89.3578 150.847 89.8578 150.234C90.3577 149.621 91.0282 149.17 91.7845 148.938C92.5409 148.706 93.349 148.703 94.1068 148.931C95.1229 149.235 95.9764 149.931 96.4795 150.865C96.9825 151.799 97.094 152.895 96.7893 153.911ZM466.585 283.778C466.158 285.2 465.32 286.463 464.175 287.409C463.03 288.354 461.631 288.939 460.154 289.089C458.677 289.239 457.188 288.948 455.877 288.252C454.565 287.556 453.49 286.487 452.786 285.18C452.082 283.873 451.781 282.386 451.922 280.909C452.063 279.431 452.639 278.028 453.577 276.877C454.516 275.726 455.774 274.88 457.193 274.445C458.613 274.009 460.129 274.004 461.551 274.431C462.496 274.714 463.375 275.18 464.139 275.803C464.903 276.426 465.537 277.194 466.004 278.062C466.472 278.93 466.763 279.881 466.863 280.862C466.963 281.843 466.868 282.833 466.585 283.778ZM427.135 180.58C426.908 181.337 426.461 182.011 425.851 182.515C425.241 183.019 424.496 183.33 423.708 183.41C422.921 183.49 422.128 183.335 421.429 182.964C420.73 182.594 420.157 182.024 419.782 181.328C419.407 180.631 419.247 179.839 419.322 179.051C419.397 178.264 419.704 177.516 420.204 176.903C420.704 176.29 421.374 175.839 422.13 175.607C422.887 175.375 423.695 175.372 424.453 175.599C424.956 175.75 425.424 175.999 425.832 176.331C426.239 176.662 426.576 177.071 426.826 177.534C427.075 177.996 427.23 178.503 427.283 179.026C427.336 179.549 427.286 180.077 427.135 180.58Z" fill="#E1F0FF"/>
<path d="M429.815 423.741C429.531 424.688 428.973 425.53 428.21 426.16C427.448 426.79 426.516 427.179 425.532 427.279C424.548 427.379 423.557 427.186 422.683 426.722C421.81 426.259 421.093 425.547 420.624 424.676C420.155 423.805 419.955 422.815 420.049 421.831C420.143 420.846 420.526 419.912 421.151 419.145C421.776 418.379 422.614 417.815 423.56 417.525C424.505 417.235 425.515 417.232 426.462 417.516C427.732 417.897 428.799 418.767 429.428 419.934C430.057 421.102 430.196 422.471 429.815 423.741Z" fill="#E1F0FF"/>
</svg>
