<svg width="394" height="484" viewBox="0 0 394 484" fill="none" xmlns="http://www.w3.org/2000/svg">
<path d="M34.3501 432.237C-5.6108 416.151 -49.5529 376.522 -48.5015 335.488C-47.609 300.657 -15.0673 292.18 -14.6747 255.819C-14.2175 213.436 -58.1754 201.262 -62.9027 168.423C-74.4206 88.408 158.245 -35.9716 204.37 10.5114C237.03 43.427 157.939 143.651 198.202 184.755C234.143 221.447 316.997 161.839 355.408 199.803C387.42 231.442 372.105 314.577 328.803 361.08C305.667 385.923 268.226 394.834 195.265 415.246C114.939 437.718 73.83 448.127 34.3501 432.237Z" fill="#EFF6FF"/>
<path d="M-31.0161 447.619C-27.2876 446.62 -28.8337 440.822 -32.569 441.823C-36.2974 442.822 -34.7513 448.62 -31.0161 447.619ZM393.215 401.281C395.262 409.266 310.145 437.988 203.103 465.431C96.0585 492.877 7.62307 508.652 5.57533 500.666C3.52908 492.681 88.6447 463.96 195.688 436.515C302.732 409.07 391.168 393.296 393.215 401.281Z" fill="#E4EBF1"/>
<path d="M285.559 360.931L352.671 342.949L369.722 406.584L302.61 424.567L285.559 360.931Z" fill="#F15B43"/>
<path d="M286.769 365.452L353.881 347.47L357.143 359.64L290.03 377.623L286.769 365.452Z" fill="#CF2633"/>
<path d="M294.207 393.213L361.319 375.231L362.095 378.128L294.984 396.111L294.207 393.213Z" fill="#FFCC5D"/>
<path d="M317.666 352.328L320.564 351.552L337.615 415.188L334.717 415.965L317.666 352.328Z" fill="#FFCC5D"/>
<path d="M318.801 353.179C317.795 353.315 316.772 353.274 315.78 353.057C313.309 352.66 310.801 352.539 308.302 352.696C305.887 352.785 303.5 353.241 301.223 354.049C300.113 354.466 299.039 354.973 298.012 355.565C296.78 356.399 295.324 356.839 293.836 356.827C293.257 356.805 292.681 356.724 292.118 356.586C291.49 357.305 290.733 357.9 289.886 358.341C289.121 358.719 288.289 358.94 287.438 358.99C286.586 359.041 285.734 358.92 284.93 358.635C284.688 358.539 284.494 358.352 284.387 358.115C284.281 357.878 284.271 357.609 284.36 357.364C284.449 357.12 284.629 356.92 284.863 356.806C285.097 356.693 285.366 356.675 285.613 356.756C286.158 356.949 286.736 357.031 287.313 356.998C287.89 356.964 288.454 356.816 288.973 356.562C289.362 356.357 289.727 356.109 290.059 355.821C288.567 355.05 287.459 353.902 287.446 352.632C287.464 352.039 287.676 351.469 288.051 351.009C288.426 350.55 288.941 350.226 289.518 350.089C289.861 350.034 290.212 350.049 290.548 350.134C290.885 350.218 291.201 350.371 291.477 350.582C292.384 351.238 293.002 352.219 293.203 353.32C293.278 353.798 293.252 354.286 293.126 354.753C293.384 354.794 293.643 354.819 293.903 354.828C295.03 354.828 296.129 354.474 297.044 353.816C298.159 353.175 299.324 352.625 300.527 352.172C301.937 351.649 303.396 351.271 304.882 351.042C303.855 350.721 302.884 350.24 302.007 349.618C298.508 346.927 297.116 344.823 297.751 343.182C298.492 341.27 301.531 341.131 303.753 341.191C309.987 341.363 314.373 345.372 316.994 347.768C318.922 349.531 320.447 350.927 319.827 352.307C319.82 352.326 319.811 352.343 319.802 352.361C319.709 352.564 319.57 352.744 319.396 352.886C319.222 353.028 319.018 353.128 318.8 353.178L318.801 353.179ZM300.488 343.429C299.735 343.631 299.624 343.885 299.618 343.904C299.613 343.913 299.323 345.03 303.225 348.031C304.75 349.204 309.332 350.601 317.338 350.874C316.825 350.324 316.113 349.672 315.645 349.243C313.073 346.893 309.188 343.341 303.7 343.191C302.624 343.122 301.543 343.203 300.489 343.43L300.488 343.429ZM289.885 352.057C289.772 352.106 289.672 352.182 289.596 352.279C289.519 352.376 289.468 352.49 289.447 352.612C289.451 353.008 290.152 353.666 291.208 354.164C291.248 353.989 291.254 353.808 291.228 353.63C291.112 353.066 290.792 352.565 290.33 352.222C290.211 352.117 290.058 352.058 289.9 352.053L289.885 352.057Z" fill="#FFCC5D"/>
<path d="M320.005 352.854C319.791 352.919 319.565 352.935 319.344 352.899C319.123 352.864 318.913 352.779 318.73 352.65L318.682 352.616C317.452 351.733 318.074 349.761 318.864 347.267C319.936 343.881 321.729 338.217 327.041 334.953C328.937 333.786 331.639 332.388 333.235 333.674C334.606 334.777 334.452 337.296 332.768 341.373C332.32 342.352 331.719 343.255 330.99 344.047C332.391 343.503 333.843 343.101 335.325 342.848C336.594 342.638 337.878 342.532 339.165 342.53C340.286 342.641 341.415 342.398 342.392 341.835C342.612 341.697 342.824 341.546 343.026 341.383C342.684 341.041 342.417 340.632 342.243 340.18C341.867 339.127 341.913 337.968 342.371 336.947C342.504 336.626 342.701 336.335 342.951 336.092C343.201 335.85 343.497 335.662 343.823 335.538C344.391 335.376 344.996 335.402 345.548 335.612C346.1 335.823 346.569 336.206 346.885 336.706C347.51 337.812 347.123 339.359 346.216 340.774C346.649 340.857 347.089 340.889 347.528 340.872C348.105 340.832 348.669 340.678 349.185 340.418C349.702 340.158 350.161 339.798 350.537 339.359C350.62 339.254 350.724 339.166 350.841 339.102C350.959 339.037 351.088 338.997 351.221 338.984C351.354 338.97 351.489 338.984 351.617 339.023C351.745 339.063 351.864 339.128 351.966 339.214C352.069 339.301 352.153 339.407 352.213 339.526C352.274 339.645 352.31 339.776 352.319 339.91C352.329 340.043 352.311 340.177 352.267 340.304C352.224 340.431 352.155 340.547 352.066 340.647C351.511 341.294 350.833 341.824 350.071 342.205C349.309 342.587 348.478 342.813 347.628 342.869C346.673 342.911 345.719 342.774 344.815 342.465C344.397 342.867 343.939 343.225 343.448 343.534C342.166 344.288 340.685 344.635 339.201 344.529C338.015 344.529 336.831 344.626 335.661 344.82C333.285 345.259 330.991 346.058 328.856 347.189C326.614 348.302 324.502 349.661 322.56 351.241C321.81 351.924 320.945 352.47 320.006 352.855L320.005 352.854ZM330.989 335.256C329.963 335.586 328.988 336.057 328.09 336.654C323.41 339.53 321.822 344.549 320.771 347.869C320.579 348.475 320.288 349.396 320.118 350.129C326.916 345.889 330.186 342.388 330.92 340.612C332.799 336.06 331.989 335.238 331.981 335.232C331.965 335.219 331.741 335.055 330.989 335.256ZM344.487 337.427L344.474 337.43C344.338 337.514 344.235 337.641 344.183 337.792C343.954 338.32 343.928 338.914 344.11 339.461C344.175 339.628 344.272 339.781 344.393 339.913C345.058 338.955 345.337 338.033 345.143 337.688C345.064 337.593 344.963 337.519 344.848 337.473C344.734 337.428 344.609 337.411 344.487 337.426L344.487 337.427Z" fill="#FFCC5D"/>
<path d="M320.941 364.495L323.81 363.726L325.022 368.247L322.152 369.016L320.941 364.495ZM324.739 384.97L326.314 384.548L327.112 387.526L325.537 387.948L324.739 384.97ZM343.923 379.83L345.497 379.408L346.295 382.386L344.72 382.808L343.923 379.83Z" fill="#F39821"/>
<path d="M336.882 347.179L339.78 346.403L356.831 410.039L353.933 410.816L336.882 347.179Z" fill="#FFCC5D"/>
<path d="M340.158 359.346L343.027 358.578L344.238 363.098L341.369 363.867L340.158 359.346Z" fill="#F39821"/>
<path d="M282.444 361.766L355.783 342.115L359.044 354.286L285.706 373.937L282.444 361.766Z" fill="#FFCC5D"/>
<path d="M70.5088 418.226C70.2953 418.291 70.0696 418.307 69.849 418.272C69.6284 418.237 69.4187 418.152 69.236 418.023C69.2176 418.012 69.1998 417.999 69.1825 417.986C67.9579 417.098 68.5805 415.128 69.3682 412.64C70.4404 409.254 72.2335 403.59 77.5464 400.324C79.4465 399.159 82.1456 397.765 83.7402 399.045C85.1124 400.151 84.9592 402.671 83.2731 406.748C82.8243 407.726 82.2242 408.628 81.4949 409.419C82.8961 408.875 84.3487 408.474 85.8306 408.221C87.0993 408.011 88.383 407.905 89.669 407.903C90.7912 408.013 91.9198 407.77 92.8968 407.207C93.1173 407.07 93.3294 406.919 93.5318 406.756C93.1894 406.414 92.9226 406.004 92.7486 405.553C92.3718 404.499 92.4168 403.341 92.8742 402.32C93.0073 401.998 93.2048 401.707 93.4546 401.465C93.7044 401.222 94.0012 401.034 94.3268 400.91C94.8948 400.744 95.5016 400.768 96.0548 400.978C96.6079 401.189 97.0769 401.575 97.3902 402.077C98.0143 403.185 97.6284 404.732 96.7208 406.147C97.1529 406.229 97.5931 406.262 98.0328 406.245C98.6101 406.205 99.1736 406.05 99.6904 405.79C100.207 405.53 100.667 405.169 101.043 404.729C101.216 404.531 101.459 404.409 101.721 404.39C101.983 404.37 102.242 404.454 102.442 404.623C102.643 404.793 102.768 405.035 102.792 405.296C102.816 405.558 102.736 405.818 102.569 406.021C102.015 406.667 101.336 407.197 100.575 407.578C99.8131 407.959 98.983 408.185 98.1331 408.242C97.1785 408.284 96.2244 408.148 95.32 407.839C94.9015 408.24 94.4436 408.597 93.9534 408.905C92.671 409.66 91.1899 410.007 89.7058 409.903C88.52 409.903 87.3363 410 86.1665 410.194C83.7896 410.631 81.4937 411.43 79.3586 412.562C77.1164 413.675 75.0048 415.034 73.0624 416.613C72.3124 417.296 71.4481 417.842 70.5091 418.227L70.5088 418.226ZM81.4969 400.629C80.4714 400.959 79.4963 401.428 78.5991 402.024C73.9148 404.903 72.3274 409.921 71.2759 413.241C71.0843 413.848 70.7927 414.768 70.6226 415.501C77.4206 411.26 80.6907 407.759 81.4252 405.983C83.3069 401.434 82.494 400.61 82.4859 400.603C82.4702 400.591 82.2474 400.428 81.4969 400.629ZM94.99 402.798L94.9767 402.802C94.8412 402.886 94.739 403.014 94.6876 403.165C94.4593 403.693 94.4335 404.287 94.615 404.833C94.6809 405 94.7771 405.153 94.8986 405.285C95.5641 404.326 95.8421 403.405 95.6481 403.059C95.5688 402.965 95.467 402.891 95.3521 402.845C95.2372 402.8 95.1128 402.783 94.99 402.798Z" fill="#FFCC5D"/>
<path d="M90.6623 424.72L93.5321 423.951L94.7434 428.472L91.8736 429.24L90.6623 424.72Z" fill="#F39821"/>
<path d="M36.0613 426.304L103.174 408.322L120.225 471.957L53.1123 489.939L36.0613 426.304Z" fill="#F15B43"/>
<path d="M37.2746 430.825L104.387 412.842L107.648 425.013L40.5357 442.996L37.2746 430.825Z" fill="#CF2633"/>
<path d="M44.7129 458.585L111.824 440.602L112.601 443.5L45.4893 461.483L44.7129 458.585Z" fill="#FFCC5D"/>
<path d="M68.1707 417.701L71.0685 416.924L88.1198 480.56L85.222 481.337L68.1707 417.701Z" fill="#FFCC5D"/>
<path d="M69.3055 418.55C68.3001 418.687 67.2785 418.646 66.2873 418.429C63.8154 418.032 61.3069 417.911 58.8082 418.069C56.393 418.156 54.0054 418.613 51.728 419.421C50.6185 419.839 49.545 420.346 48.5184 420.939C47.2857 421.771 45.8296 422.211 44.3421 422.198C43.7625 422.177 43.1866 422.096 42.6233 421.958C41.9947 422.678 41.2368 423.274 40.3887 423.714C39.6246 424.091 38.7927 424.312 37.9421 424.362C37.0915 424.413 36.2394 424.292 35.436 424.008C35.1967 423.911 35.0042 423.725 34.8991 423.489C34.7939 423.253 34.7842 422.985 34.8719 422.742C34.9596 422.499 35.1381 422.3 35.3697 422.185C35.6014 422.071 35.8684 422.05 36.1147 422.128C36.6598 422.322 37.238 422.404 37.8154 422.371C38.3928 422.338 38.9578 422.189 39.4771 421.935C39.8665 421.73 40.231 421.482 40.5635 421.194C39.0705 420.421 37.9631 419.275 37.9504 418.003C37.9701 417.411 38.183 416.843 38.5567 416.384C38.9303 415.925 39.444 415.601 40.0192 415.462C40.3628 415.406 40.7141 415.421 41.0516 415.506C41.3892 415.591 41.7057 415.744 41.9819 415.956C42.8882 416.611 43.5064 417.591 43.7077 418.691C43.7832 419.17 43.7568 419.658 43.6305 420.126C43.8878 420.167 44.1475 420.191 44.4079 420.199C45.5352 420.198 46.6339 419.845 47.5504 419.189C48.6648 418.547 49.8294 417.998 51.0327 417.545C52.4427 417.024 53.9012 416.646 55.3865 416.415C54.3594 416.094 53.3893 415.613 52.5119 414.99C49.0106 412.305 47.6182 410.2 48.2549 408.554C48.9964 406.646 52.0337 406.506 54.2513 406.564C60.4943 406.735 64.8797 410.746 67.4988 413.14C69.4268 414.904 70.9518 416.298 70.3324 417.681L70.3069 417.736C70.213 417.939 70.0739 418.118 69.9004 418.259C69.7268 418.4 69.5233 418.5 69.3055 418.55ZM50.991 408.804C50.2395 409.006 50.1268 409.257 50.1206 409.277C50.1169 409.286 49.8236 410.409 53.7296 413.403C55.2537 414.575 59.8344 415.972 67.8436 416.247C67.3305 415.696 66.6178 415.045 66.149 414.617C63.5789 412.266 59.6953 408.714 54.2048 408.562C53.1275 408.495 52.046 408.576 50.991 408.804ZM40.3888 417.428C40.2754 417.477 40.1759 417.553 40.0994 417.65C40.0228 417.747 39.9716 417.861 39.9503 417.982C39.9533 418.38 40.6567 419.039 41.7125 419.536C41.7517 419.361 41.7583 419.18 41.7319 419.002C41.6159 418.439 41.2966 417.938 40.835 417.594C40.7152 417.49 40.5626 417.43 40.4035 417.425L40.3888 417.428Z" fill="#FFCC5D"/>
<path d="M71.4465 429.869L74.3153 429.1L75.5266 433.621L72.6578 434.389L71.4465 429.869ZM75.2449 450.342L76.8193 449.921L77.6173 452.899L76.0428 453.32L75.2449 450.342ZM94.4272 445.203L96.0026 444.78L96.8006 447.758L95.2252 448.181L94.4272 445.203Z" fill="#F39821"/>
<path d="M87.3874 412.551L90.2852 411.775L107.336 475.411L104.439 476.188L87.3874 412.551Z" fill="#FFCC5D"/>
<path d="M32.9503 427.138L106.288 407.487L109.55 419.659L36.2117 439.309L32.9503 427.138Z" fill="#FFCC5D"/>
<path d="M49.8508 182.308C53.5793 181.309 52.0332 175.511 48.2979 176.512C44.5685 177.511 46.1156 183.309 49.8508 182.308ZM-43.5071 298.467C-39.7787 297.467 -41.3248 291.67 -45.0601 292.671C-48.7885 293.67 -47.2424 299.467 -43.5071 298.467ZM6.36002 327.904C10.0885 326.905 8.54234 321.108 4.80711 322.108C1.07863 323.108 2.62479 328.905 6.36002 327.904ZM217.292 164.118C221.022 163.119 219.475 157.321 215.739 158.322C212.011 159.321 213.557 165.119 217.292 164.118ZM273.685 283.254C277.413 282.255 275.866 276.458 272.132 277.458C268.402 278.458 269.949 284.255 273.685 283.254ZM286.803 166.658C290.532 165.659 288.986 159.861 285.25 160.862C281.522 161.861 283.068 167.659 286.803 166.658ZM184.369 99.6928C188.098 98.6937 186.551 92.8964 182.816 93.8972C179.088 94.8963 180.634 100.694 184.369 99.6928ZM294.397 360.552C298.125 359.553 296.578 353.756 292.844 354.757C289.114 355.756 290.661 361.553 294.397 360.552Z" fill="#E4EBF1"/>
<path d="M149.415 166.099C155.008 164.601 152.688 155.905 147.086 157.406C141.492 158.905 143.812 167.601 149.415 166.099ZM73.7796 321.685C79.3723 320.186 77.0526 311.49 71.4502 312.991C65.8556 314.49 68.1763 323.186 73.7796 321.685ZM23.7104 439.446C29.3051 437.947 26.9854 429.251 21.3811 430.753C15.7884 432.251 18.1081 440.947 23.7104 439.446ZM15.959 226.91C21.5527 225.412 19.233 216.716 13.6296 218.217C8.03693 219.716 10.3566 228.412 15.959 226.91ZM4.48422 384.484C10.0779 382.986 7.75818 374.29 2.15484 375.791C-3.43787 377.29 -1.11815 385.986 4.48422 384.484ZM-26.6474 157.079C-21.0537 155.58 -23.3734 146.885 -28.9767 148.386C-34.5695 149.884 -32.2497 158.58 -26.6474 157.079ZM141.715 41.5772C147.308 40.0786 144.988 31.3827 139.386 32.8838C133.791 34.3829 136.111 43.0788 141.715 41.5772ZM102.16 107.789C107.754 106.29 105.434 97.5941 99.831 99.0955C94.2373 100.594 96.557 109.29 102.16 107.789ZM312.832 263.803C318.427 262.304 316.106 253.608 310.503 255.11C304.91 256.608 307.23 265.304 312.832 263.803ZM244.822 219.656C250.416 218.157 248.096 209.461 242.492 210.963C236.9 212.461 239.219 221.157 244.822 219.656ZM304.495 318.96C310.089 317.462 307.769 308.766 302.166 310.267C296.573 311.766 298.893 320.461 304.495 318.96Z" fill="#EFF6FF"/>
<path d="M324.466 225.237C328.194 224.238 326.648 218.44 322.913 219.441C319.185 220.44 320.731 226.238 324.466 225.237Z" fill="#E4EBF1"/>
<path d="M154.091 401.067L185.21 392.729L202.101 455.766L170.982 464.105L154.091 401.067Z" fill="#D27C2A"/>
<path d="M160.202 423.875C161.816 424.523 163.257 425.539 164.411 426.84C165.564 428.142 166.399 429.694 166.85 431.374C166.11 428.506 166.533 425.461 168.026 422.903C169.519 420.345 171.962 418.479 174.823 417.713C177.684 416.946 180.732 417.34 183.305 418.809C185.877 420.278 187.765 422.703 188.559 425.557C188.067 423.721 188.05 421.791 188.509 419.947C188.968 418.102 189.888 416.405 191.182 415.014L183.033 384.602L151.913 392.94L160.202 423.875Z" fill="#9F5325"/>
<path d="M279.633 374.697C276.754 375.469 274.3 377.352 272.81 379.933C271.319 382.513 270.916 385.58 271.687 388.459C270.915 385.58 269.032 383.126 266.451 381.635C263.87 380.145 260.802 379.741 257.923 380.513C255.045 381.284 252.59 383.167 251.1 385.749C249.61 388.33 249.206 391.397 249.977 394.276C249.206 391.397 247.323 388.943 244.742 387.453C242.161 385.962 239.094 385.559 236.215 386.33C233.336 387.101 230.882 388.985 229.392 391.566C227.902 394.147 227.498 397.214 228.269 400.093C227.498 397.214 225.615 394.759 223.034 393.269C220.453 391.779 217.385 391.375 214.507 392.147C211.628 392.918 209.174 394.801 207.684 397.382C206.193 399.963 205.79 403.031 206.561 405.909C205.79 403.031 203.906 400.576 201.325 399.086C198.744 397.596 195.677 397.192 192.798 397.963C189.92 398.735 187.465 400.618 185.975 403.199C184.485 405.78 184.081 408.847 184.853 411.726C184.471 410.301 183.812 408.964 182.914 407.794C182.015 406.623 180.895 405.641 179.617 404.903C178.339 404.165 176.928 403.686 175.465 403.493C174.002 403.301 172.516 403.398 171.09 403.78C169.665 404.162 168.329 404.821 167.158 405.719C165.987 406.618 165.005 407.738 164.267 409.016C163.529 410.294 163.05 411.704 162.858 413.168C162.665 414.631 162.763 416.117 163.144 417.543C162.373 414.664 160.49 412.21 157.909 410.719C155.328 409.229 152.261 408.826 149.382 409.597C146.503 410.368 144.049 412.251 142.559 414.832C141.069 417.413 140.665 420.481 141.436 423.359C140.643 420.505 138.754 418.08 136.182 416.611C133.61 415.142 130.562 414.748 127.701 415.515C124.839 416.282 122.396 418.147 120.903 420.705C119.41 423.264 118.987 426.308 119.727 429.176C118.956 426.298 117.073 423.843 114.492 422.353C111.911 420.863 108.844 420.46 105.965 421.231C103.087 422.002 100.632 423.885 99.1424 426.466C97.6523 429.047 97.2485 432.114 98.0198 434.993C97.2262 432.139 95.338 429.714 92.7657 428.245C90.1935 426.776 87.1453 426.382 84.2841 427.148C81.4229 427.915 78.9801 429.78 77.4869 432.339C75.9937 434.897 75.571 437.941 76.3107 440.81C75.5393 437.931 73.656 435.477 71.0751 433.986C68.4941 432.496 65.4269 432.093 62.5482 432.864C56.5537 434.47 53.8635 446.824 53.8635 446.824L107.166 172.874C107.166 172.874 296.848 383.855 294.876 382.245C294.872 382.229 285.627 373.091 279.633 374.697Z" fill="#82C56D"/>
<path d="M91.1391 367.377C92.5644 366.995 94.0511 366.897 95.5141 367.09C96.9772 367.282 98.3879 367.761 99.6659 368.499C100.944 369.237 102.064 370.219 102.962 371.39C103.861 372.561 104.52 373.897 104.902 375.322C104.52 373.897 104.422 372.41 104.615 370.947C104.807 369.484 105.286 368.073 106.024 366.796C106.762 365.518 107.744 364.397 108.915 363.499C110.086 362.601 111.422 361.942 112.847 361.56C114.273 361.178 115.759 361.081 117.222 361.273C118.685 361.466 120.096 361.945 121.374 362.682C122.652 363.42 123.772 364.403 124.671 365.573C125.569 366.744 126.228 368.08 126.61 369.506C125.838 366.627 126.242 363.56 127.732 360.978C129.223 358.397 131.677 356.514 134.556 355.743C137.435 354.971 140.502 355.375 143.083 356.865C145.664 358.355 147.548 360.81 148.319 363.689C147.921 362.258 147.811 360.763 147.994 359.29C148.178 357.817 148.651 356.395 149.387 355.106C150.123 353.816 151.108 352.686 152.283 351.779C153.459 350.873 154.803 350.208 156.237 349.824C157.671 349.44 159.167 349.343 160.638 349.541C162.11 349.738 163.527 350.225 164.809 350.973C166.092 351.722 167.213 352.717 168.108 353.901C169.004 355.085 169.655 356.435 170.026 357.872C169.287 355.004 169.709 351.96 171.202 349.401C172.696 346.843 175.138 344.978 178 344.211C180.861 343.444 183.909 343.838 186.481 345.307C189.053 346.776 190.942 349.201 191.735 352.055C190.964 349.177 191.368 346.11 192.858 343.529C194.348 340.948 196.802 339.065 199.681 338.293C202.559 337.522 205.626 337.926 208.207 339.416C210.788 340.906 212.671 343.36 213.443 346.239C212.703 343.371 213.126 340.326 214.619 337.768C216.112 335.21 218.555 333.344 221.416 332.578C224.277 331.811 227.325 332.205 229.898 333.674C232.47 335.143 234.358 337.568 235.152 340.422C234.77 338.997 234.672 337.51 234.865 336.047C235.057 334.584 235.536 333.173 236.274 331.895C237.012 330.617 237.994 329.497 239.165 328.598C240.336 327.7 241.672 327.041 243.098 326.659C243.766 326.488 244.46 326.439 245.146 326.514C189.53 264.486 107.166 172.874 107.166 172.874L67.984 374.25C78.19 369.387 81.7017 375.572 83.1933 381.139C82.422 378.26 82.8258 375.193 84.3159 372.612C85.806 370.031 88.2604 368.148 91.1391 367.377Z" fill="#4DA258"/>
<path d="M118.634 77.825L118.561 77.8447L118.363 77.1067L118.634 77.825ZM96.9291 83.641L96.8548 83.6609L96.657 82.9229L96.9291 83.641Z" fill="#0B1436"/>
<path d="M52.83 328.231C64.9592 321.086 68.9034 327.808 70.5096 333.803C69.7383 330.924 70.1421 327.857 71.6322 325.276C73.1223 322.695 75.5767 320.812 78.4554 320.04C81.3341 319.269 84.4013 319.673 86.9822 321.163C89.5632 322.653 91.4465 325.108 92.2178 327.986C91.4465 325.108 91.8503 322.04 93.3404 319.459C94.8305 316.878 97.2849 314.995 100.164 314.224C103.042 313.452 106.109 313.856 108.69 315.346C111.271 316.836 113.155 319.291 113.926 322.17C113.186 319.301 113.609 316.257 115.102 313.699C116.595 311.14 119.038 309.275 121.899 308.508C124.761 307.742 127.809 308.136 130.381 309.605C132.953 311.074 134.842 313.499 135.635 316.353C134.864 313.474 135.268 310.407 136.758 307.826C138.248 305.245 140.702 303.362 143.581 302.591C146.459 301.819 149.526 302.223 152.107 303.713C154.688 305.203 156.571 307.658 157.342 310.536C156.603 307.668 157.026 304.623 158.519 302.065C160.012 299.507 162.455 297.642 165.316 296.875C168.177 296.108 171.225 296.502 173.798 297.971C176.37 299.44 178.258 301.865 179.052 304.719C178.28 301.84 178.684 298.773 180.174 296.192C181.664 293.611 184.119 291.728 186.997 290.957C189.876 290.185 192.943 290.589 195.524 292.079C198.105 293.569 199.989 296.024 200.76 298.902C199.989 296.024 200.392 292.957 201.882 290.376C203.373 287.795 205.827 285.911 208.706 285.14C211.584 284.369 214.652 284.772 217.232 286.263C219.813 287.753 221.697 290.207 222.468 293.086C222.086 291.66 221.989 290.174 222.181 288.711C222.374 287.248 222.852 285.837 223.59 284.559C224.328 283.281 225.31 282.161 226.481 281.263C227.651 280.364 228.988 279.705 230.413 279.324C236.407 277.717 244.24 287.252 244.24 287.252C244.255 287.248 92.6762 114.114 92.6762 114.114L48.8004 339.62C48.8004 339.62 50.9282 329.351 52.83 328.231Z" fill="#82C56D"/>
<path d="M152.847 250.76C155.712 249.992 158.764 250.394 161.333 251.877C163.901 253.36 165.776 255.803 166.543 258.667C165.776 255.803 166.178 252.75 167.661 250.182C169.143 247.613 171.586 245.739 174.451 244.972C177.315 244.204 180.368 244.606 182.936 246.089C185.505 247.572 187.379 250.014 188.146 252.879C187.379 250.014 187.78 246.962 189.263 244.393C190.746 241.825 193.188 239.951 196.053 239.183C198.7 238.474 201.792 239.92 204.417 241.752C162.09 193.399 100.282 122.802 93.3238 114.854L77.2558 193.378L60.3688 280.166C61.6854 277.422 63.6573 274.658 66.4334 273.914C69.2983 273.147 72.3507 273.548 74.9193 275.031C77.4878 276.514 79.3621 278.957 80.1297 281.822C79.7338 280.398 79.624 278.911 79.8064 277.444C79.9889 275.978 80.46 274.563 81.1927 273.28C81.9254 271.997 82.905 270.872 84.0751 269.969C85.2451 269.067 86.5823 268.406 88.0094 268.023C89.4366 267.641 90.9253 267.545 92.3897 267.742C93.854 267.938 95.265 268.422 96.541 269.167C97.8171 269.912 98.9328 270.902 99.8239 272.081C100.715 273.259 101.364 274.603 101.733 276.033C100.965 273.169 101.367 270.116 102.85 267.548C104.333 264.979 106.775 263.105 109.64 262.338C112.505 261.57 115.557 261.972 118.125 263.455C120.694 264.938 122.568 267.38 123.336 270.245C122.568 267.38 122.97 264.328 124.453 261.759C125.936 259.191 128.378 257.317 131.243 256.549C134.108 255.782 137.16 256.183 139.728 257.666C142.297 259.149 144.171 261.592 144.939 264.456C144.171 261.591 144.573 258.539 146.056 255.97C147.539 253.402 149.982 251.527 152.847 250.76Z" fill="#4DA258"/>
<path d="M145.422 264.327L144.457 264.586C143.72 261.851 141.929 259.519 139.477 258.103C137.024 256.687 134.109 256.301 131.373 257.031L131.114 256.066C133.536 255.42 136.102 255.569 138.433 256.491C140.764 257.412 142.738 259.059 144.063 261.186C144.147 258.681 145.033 256.269 146.591 254.305C148.149 252.341 150.297 250.929 152.718 250.277L152.976 251.243C150.241 251.979 147.91 253.77 146.494 256.223C145.078 258.676 144.692 261.59 145.422 264.327Z" fill="#303443"/>
<path d="M200.143 209.181C201.376 210.186 83.3999 76.1172 83.3999 76.1172L48.0907 248.666C48.0907 248.666 50.346 237.741 56.3125 236.143C57.731 235.763 59.2105 235.666 60.6664 235.857C62.1224 236.049 63.5263 236.526 64.7981 237.26C66.0698 237.994 67.1845 238.972 68.0784 240.137C68.9723 241.302 69.6279 242.632 70.0079 244.051C69.2402 241.186 69.6421 238.133 71.1251 235.565C72.608 232.996 75.0506 231.122 77.9155 230.354C80.7803 229.587 83.8328 229.988 86.4013 231.471C88.9699 232.954 90.8441 235.397 91.6118 238.262C90.8442 235.397 91.246 232.345 92.7289 229.776C94.2118 227.208 96.6543 225.334 99.519 224.566C102.384 223.798 105.436 224.2 108.004 225.683C110.573 227.166 112.447 229.609 113.215 232.473C112.447 229.608 112.849 226.556 114.332 223.987C115.815 221.419 118.257 219.545 121.122 218.777C123.987 218.009 127.04 218.411 129.608 219.894C132.177 221.377 134.051 223.82 134.819 226.685C134.051 223.82 134.453 220.767 135.936 218.199C137.419 215.631 139.861 213.756 142.726 212.989C145.591 212.221 148.643 212.623 151.211 214.106C153.78 215.589 155.654 218.031 156.422 220.896C155.654 218.031 156.056 214.979 157.539 212.41C159.022 209.842 161.464 207.967 164.329 207.2C167.194 206.432 170.246 206.834 172.815 208.317C175.384 209.8 177.258 212.242 178.025 215.107C177.645 213.689 177.548 212.209 177.74 210.753C177.931 209.297 178.408 207.893 179.142 206.622C179.876 205.35 180.854 204.235 182.019 203.341C183.184 202.447 184.514 201.791 185.932 201.411C191.898 199.813 200.14 209.17 200.143 209.181Z" fill="#82C56D"/>
<path d="M150.761 154.455C151.223 154.345 151.699 154.306 152.173 154.34C129.259 128.257 106.335 102.182 83.4008 76.117L62.4811 178.347C62.9321 178.073 63.4184 177.863 63.9264 177.721C66.6574 176.989 69.5641 177.314 72.0659 178.632C74.5678 179.949 76.4806 182.162 77.4225 184.827C77.5198 185.102 77.6117 185.379 77.6889 185.667C77.6117 185.379 77.5497 185.094 77.4969 184.808C76.9814 182.028 77.5327 179.157 79.0409 176.766C80.549 174.376 82.9031 172.641 85.6334 171.91C88.3637 171.178 91.2695 171.503 93.771 172.819C96.2724 174.136 98.1856 176.347 99.1288 179.011C99.227 179.285 99.318 179.563 99.3952 179.851C99.318 179.563 99.256 179.277 99.2041 178.991C98.6884 176.211 99.2399 173.338 100.749 170.947C102.257 168.555 104.612 166.821 107.344 166.089C110.075 165.357 112.982 165.682 115.484 166.999C117.986 168.315 119.9 170.527 120.844 173.193C120.941 173.467 121.031 173.745 121.108 174.033C121.031 173.745 120.971 173.459 120.917 173.173C120.402 170.394 120.953 167.522 122.461 165.131C123.97 162.74 126.324 161.006 129.054 160.274C131.785 159.543 134.691 159.867 137.193 161.184C139.694 162.5 141.608 164.711 142.551 167.376C142.648 167.651 142.738 167.929 142.815 168.217C142.738 167.929 142.677 167.643 142.624 167.357C142.108 164.577 142.658 161.705 144.167 159.313C145.675 156.922 148.029 155.187 150.761 154.455Z" fill="#4DA258"/>
<path d="M156.872 135.856C156.242 134.868 148.14 130.071 144.489 131.049C141.758 131.781 139.403 133.515 137.895 135.907C136.386 138.299 135.836 141.171 136.353 143.951C136.407 144.237 136.466 144.521 136.544 144.81C136.467 144.522 136.377 144.244 136.279 143.97C135.337 141.304 133.424 139.091 130.922 137.774C128.42 136.456 125.513 136.131 122.782 136.863C120.05 137.594 117.696 139.33 116.188 141.722C114.679 144.114 114.129 146.987 114.646 149.767C114.699 150.053 114.759 150.339 114.837 150.627C114.759 150.339 114.67 150.06 114.572 149.786C113.629 147.121 111.715 144.909 109.212 143.592C106.71 142.275 103.803 141.95 101.072 142.682C98.3405 143.414 95.9856 145.149 94.4769 147.541C92.9682 149.932 92.4167 152.805 92.9324 155.585C92.9843 155.871 93.0463 156.157 93.1235 156.445C93.0463 156.157 92.9553 155.879 92.858 155.605C91.916 152.939 90.003 150.726 87.5009 149.408C84.9989 148.091 82.092 147.765 79.3606 148.497C76.6292 149.229 74.2743 150.964 72.7663 153.356C71.2582 155.748 70.7079 158.621 71.2252 161.401C71.278 161.687 71.3391 161.973 71.4162 162.261C71.3391 161.973 71.2481 161.695 71.1508 161.421C70.2087 158.755 68.2958 156.543 65.7941 155.226C63.2923 153.909 60.3858 153.584 57.655 154.316C51.9502 155.845 48.617 167.46 48.617 167.46L74.1694 42.5919L154.566 133.251C154.573 133.249 154.575 133.257 154.577 133.264L156.872 135.856Z" fill="#82C56D"/>
<path d="M156.872 135.856C156.242 134.868 148.14 130.071 144.489 131.049C141.758 131.781 139.403 133.515 137.895 135.907C136.386 138.299 135.836 141.171 136.353 143.951C136.407 144.237 136.466 144.521 136.544 144.81C136.467 144.522 136.377 144.244 136.279 143.97C135.337 141.304 133.424 139.091 130.922 137.774C128.42 136.456 125.513 136.131 122.782 136.863C120.05 137.594 117.696 139.33 116.188 141.722C114.679 144.114 114.129 146.987 114.646 149.767C114.699 150.053 114.759 150.339 114.837 150.627C114.759 150.339 114.67 150.06 114.572 149.786C113.629 147.121 111.715 144.909 109.212 143.592C106.71 142.275 103.803 141.95 101.072 142.682C98.3405 143.414 95.9856 145.149 94.4769 147.541C92.9682 149.932 92.4167 152.805 92.9324 155.585C92.9843 155.871 93.0463 156.157 93.1235 156.445C93.0463 156.157 92.9553 155.879 92.858 155.605C91.916 152.939 90.003 150.726 87.5009 149.408C84.9989 148.091 82.092 147.765 79.3606 148.497C76.6292 149.229 74.2743 150.964 72.7663 153.356C71.2582 155.748 70.7079 158.621 71.2252 161.401C71.278 161.687 71.3391 161.973 71.4162 162.261C71.3391 161.973 71.2481 161.695 71.1508 161.421C70.2087 158.755 68.2958 156.543 65.7941 155.226C63.2923 153.909 60.3858 153.584 57.655 154.316C51.9502 155.845 48.617 167.46 48.617 167.46L74.1694 42.5919L154.566 133.251C154.573 133.249 154.575 133.257 154.577 133.264L156.872 135.856Z" fill="#82C56D"/>
<path d="M93.6062 156.314L92.6403 156.573C92.5667 156.299 92.48 156.033 92.3871 155.771C91.4787 153.23 89.6494 151.122 87.2612 149.865C84.873 148.608 82.0999 148.293 79.4907 148.983L79.2319 148.017C81.6682 147.374 84.2463 147.529 86.5884 148.458C88.9306 149.387 90.9137 151.041 92.2474 153.179C92.3344 150.66 93.2259 148.235 94.7912 146.259C96.3564 144.283 98.5133 142.86 100.946 142.199L101.205 143.165C98.5989 143.871 96.3533 145.529 94.9124 147.812C93.4715 150.095 92.9404 152.836 93.4242 155.492C93.4735 155.769 93.5329 156.041 93.6062 156.314Z" fill="#303443"/>
<path d="M271.686 388.46C271.304 387.035 271.206 385.548 271.399 384.085C271.591 382.622 272.07 381.211 272.808 379.933C273.546 378.655 274.528 377.535 275.699 376.637C276.87 375.738 278.207 375.079 279.633 374.697C285.627 373.091 294.871 382.229 294.876 382.246C295.923 383.101 242.974 324.06 193.054 268.468C199.284 292.4 204.625 316.431 202.504 321.577C202.504 321.577 207.486 347.045 249.67 390.153C249.953 387.548 251.138 385.123 253.02 383.299C254.902 381.476 257.362 380.368 259.975 380.167C262.588 379.966 265.189 380.685 267.328 382.199C269.466 383.714 271.008 385.929 271.686 388.46ZM243.58 286.495L244.24 287.252C244.24 287.252 244.001 286.961 243.58 286.495Z" fill="#4DA258"/>
<path d="M243.58 286.495C237.32 279.335 187.692 222.644 147.029 176.198C154.426 191.256 165.001 204.531 178.025 215.107C178.025 215.107 193.044 264.649 199.777 296.462C200.199 297.234 200.529 298.053 200.76 298.902C199.989 296.024 200.392 292.957 201.882 290.376C203.373 287.795 205.827 285.911 208.706 285.14C211.584 284.369 214.652 284.772 217.232 286.263C219.813 287.753 221.697 290.207 222.468 293.086C222.086 291.66 221.989 290.174 222.181 288.711C222.374 287.248 222.853 285.836 223.591 284.558C224.329 283.28 225.311 282.16 226.482 281.262C227.653 280.364 228.989 279.705 230.415 279.323C235.369 277.996 241.576 284.276 243.58 286.495Z" fill="#4DA258"/>
<path d="M136.279 143.97C136.279 143.97 140.819 178.712 168.973 206.964C171.108 207.301 173.099 208.249 174.706 209.695C176.313 211.14 177.466 213.02 178.025 215.107C177.258 212.242 177.66 209.191 179.143 206.622C180.626 204.054 183.068 202.18 185.933 201.412C191.899 199.813 200.142 209.171 200.144 209.182C201.141 209.995 123.979 122.246 94.5812 88.8263C108.525 114.846 136.279 143.97 136.279 143.97Z" fill="#4DA258"/>
<path d="M136.353 143.951C135.836 141.171 136.386 138.299 137.895 135.907C139.403 133.515 141.758 131.781 144.489 131.049C148.14 130.071 156.242 134.868 156.872 135.856L154.578 133.264C154.576 133.256 154.574 133.249 154.566 133.251L75.6499 44.2616C77.8604 47.241 82.4222 55.1281 88.4768 74.7569C95.0641 96.1147 119.138 124.869 130.397 137.528C131.759 138.153 132.981 139.046 133.992 140.152C135.003 141.259 135.78 142.557 136.279 143.97C136.377 144.244 136.467 144.522 136.544 144.81C136.466 144.521 136.407 144.237 136.353 143.951ZM77.5 182.992L75.6934 174.92L74.2156 175.316L76.8485 184.316C77.1947 185.461 78.7224 191.081 78.874 192.265C78.9374 192.761 79.3548 193.349 79.8069 193.228C80.2077 193.12 80.2468 192.532 80.0766 192.074C79.4548 190.395 77.8918 184.74 77.5 182.992ZM122.16 175.337L119.912 165.297L118.073 165.79L121.35 176.985C121.78 178.409 123.679 185.402 123.87 186.878C123.948 187.492 124.469 188.225 125.031 188.074C125.528 187.941 125.577 187.208 125.365 186.639C124.591 184.55 122.646 177.512 122.16 175.337Z" fill="#4DA258"/>
<path d="M70.0875 155.328L68.2809 147.256L66.803 147.652L69.4359 156.652C69.7821 157.797 71.3098 163.417 71.4614 164.601C71.5245 165.096 71.9422 165.685 72.3943 165.563C72.7951 165.456 72.8342 164.868 72.664 164.41C72.0422 162.731 70.4793 157.076 70.0875 155.328ZM114.747 147.674L112.5 137.633L110.661 138.125L113.937 149.322C114.367 150.746 116.267 157.738 116.457 159.214C116.536 159.828 117.057 160.562 117.619 160.411C118.116 160.278 118.164 159.545 117.953 158.976C117.179 156.887 115.234 149.848 114.747 147.674ZM70.2491 240.94L68.0016 230.899L66.1625 231.391L69.439 242.588C69.8692 244.012 71.7688 251.005 71.959 252.48C72.0378 253.094 72.5583 253.828 73.1205 253.677C73.6179 253.544 73.665 252.811 73.4543 252.242C72.6803 250.153 70.7354 243.114 70.2491 240.94Z" fill="#82C56D"/>
<path d="M123.671 268.7L121.865 260.63L120.387 261.026L123.02 270.025C123.365 271.17 124.893 276.789 125.045 277.975C125.109 278.469 125.526 279.057 125.978 278.936C126.379 278.829 126.417 278.241 126.248 277.783C125.625 276.104 124.063 270.448 123.671 268.7ZM80.6682 280.223L78.8619 272.152L77.3841 272.548L80.0169 281.548C80.362 282.692 81.8913 288.311 82.0434 289.497C82.1056 289.992 82.523 290.58 82.9751 290.459C83.3749 290.352 83.414 289.763 83.2458 289.305C82.622 287.627 81.0598 281.97 80.6682 280.223ZM168.331 261.047L166.084 251.005L164.244 251.498L167.521 262.695C167.95 264.119 169.851 271.11 170.04 272.587C170.12 273.201 170.64 273.933 171.201 273.783C171.7 273.649 171.748 272.918 171.536 272.347C170.762 270.258 168.817 263.22 168.331 261.047ZM103.198 278.499L100.95 268.458L99.1112 268.95L102.387 280.147C102.817 281.571 104.717 288.563 104.907 290.039C104.985 290.654 105.507 291.386 106.068 291.235C106.566 291.102 106.615 290.37 106.403 289.8C105.629 287.711 103.684 280.672 103.199 278.499" fill="#4DA258"/>
<path d="M113.313 230.042L111.506 221.972L110.029 222.368L112.661 231.366C113.006 232.511 114.535 238.13 114.687 239.316C114.75 239.811 115.168 240.399 115.62 240.278C116.02 240.17 116.059 239.582 115.889 239.125C115.267 237.446 113.704 231.789 113.313 230.042ZM157.973 222.388L155.725 212.346L153.886 212.839L157.163 224.036C157.592 225.461 159.492 232.452 159.682 233.928C159.761 234.543 160.282 235.275 160.843 235.125C161.341 234.991 161.39 234.26 161.178 233.69C160.404 231.6 158.459 224.563 157.973 222.388ZM92.8393 239.841L90.5916 229.798L88.7524 230.291L92.0282 241.489C92.4585 242.913 94.3587 249.904 94.5483 251.381C94.627 251.995 95.1483 252.727 95.7095 252.577C96.2079 252.443 96.2562 251.712 96.0446 251.142C95.2703 249.053 93.3256 242.015 92.8403 239.841" fill="#82C56D"/>
<path d="M126.538 368.06L124.733 359.989L123.254 360.385L125.887 369.385C126.233 370.53 127.76 376.148 127.912 377.334C127.975 377.829 128.394 378.417 128.845 378.296C129.246 378.188 129.285 377.601 129.115 377.143C128.493 375.463 126.93 369.808 126.538 368.06ZM192.005 350.518L190.198 342.448L188.72 342.844L191.353 351.843C191.7 352.988 193.227 358.607 193.379 359.793C193.442 360.287 193.859 360.875 194.311 360.754C194.712 360.647 194.751 360.06 194.581 359.601C193.959 357.922 192.396 352.266 192.005 350.518ZM83.5351 379.583L81.7287 371.512L80.2509 371.908L82.8838 380.907C83.23 382.053 84.7581 387.671 84.9103 388.857C84.9724 389.351 85.3898 389.939 85.8419 389.818C86.2428 389.711 86.2821 389.124 86.1126 388.665C85.4898 386.986 83.9269 381.331 83.5351 379.583ZM171.198 360.406L168.951 350.366L167.112 350.859L170.388 362.054C170.818 363.478 172.718 370.47 172.908 371.946C172.987 372.561 173.507 373.293 174.069 373.142C174.567 373.009 174.614 372.278 174.404 371.708C173.63 369.618 171.685 362.582 171.198 360.406Z" fill="#4DA258"/>
<path d="M187.254 418.961L185.447 410.889L183.97 411.285L186.602 420.285C186.949 421.43 188.477 427.05 188.629 428.234C188.691 428.729 189.109 429.318 189.561 429.197C189.962 429.089 190 428.501 189.831 428.042C189.209 426.364 187.646 420.708 187.254 418.961ZM166.447 428.848L164.2 418.808L162.361 419.3L165.637 430.496C166.067 431.92 167.968 438.911 168.157 440.388C168.236 441.002 168.756 441.736 169.318 441.585C169.816 441.452 169.864 440.719 169.653 440.149C168.879 438.059 166.934 431.023 166.447 428.848Z" fill="#9F5325"/>
<path d="M182.528 401.323L180.721 393.252L179.244 393.648L181.876 402.647C182.223 403.792 183.751 409.412 183.903 410.596C183.965 411.092 184.383 411.68 184.835 411.559C185.236 411.451 185.274 410.863 185.106 410.405C184.483 408.726 182.92 403.071 182.528 401.323ZM161.721 411.21L159.474 401.17L157.635 401.663L160.911 412.858C161.341 414.282 163.242 421.275 163.431 422.751C163.51 423.364 164.03 424.098 164.592 423.947C165.09 423.814 165.138 423.081 164.927 422.511C164.153 420.423 162.208 413.385 161.721 411.21Z" fill="#82C56D"/>
<path d="M106.065 377.859L103.817 367.818L101.978 368.311L105.254 379.507C105.685 380.931 107.584 387.922 107.775 389.398C107.853 390.013 108.374 390.745 108.936 390.595C109.433 390.461 109.482 389.73 109.27 389.16C108.496 387.07 106.551 380.034 106.066 377.859" fill="#4DA258"/>
<path d="M140.651 420.73L138.846 412.659L137.367 413.055L140 422.055C140.346 423.2 141.873 428.818 142.025 430.004C142.088 430.499 142.507 431.087 142.958 430.966C143.359 430.858 143.398 430.271 143.228 429.813C142.606 428.134 141.043 422.478 140.651 420.73ZM97.648 432.253L95.8416 424.182L94.3638 424.578L96.9967 433.577C97.3429 434.723 98.871 440.341 99.0232 441.527C99.0853 442.021 99.5027 442.609 99.9548 442.488C100.356 442.381 100.395 441.794 100.226 441.335C99.603 439.657 98.0398 434.001 97.648 432.253ZM120.178 430.529L117.93 420.487L116.091 420.98L119.367 432.177C119.798 433.601 121.697 440.592 121.887 442.068C121.966 442.683 122.486 443.415 123.049 443.265C123.546 443.131 123.594 442.4 123.383 441.829C122.608 439.74 120.664 432.704 120.178 430.528M76.7157 442.174L74.4682 432.133L72.629 432.626L75.9055 443.822C76.3358 445.246 78.2361 452.238 78.4256 453.714C78.5044 454.329 79.0246 455.061 79.5868 454.91C80.0842 454.777 80.1326 454.045 79.9207 453.475C79.1467 451.386 77.2022 444.349 76.7157 442.174Z" fill="#82C56D"/>
<path d="M271.7 385.615L269.894 377.545L268.416 377.941L271.049 386.94C271.394 388.086 272.923 393.704 273.075 394.89C273.137 395.384 273.555 395.972 274.007 395.851C274.407 395.744 274.446 395.157 274.278 394.698C273.654 393.02 272.092 387.364 271.7 385.615Z" fill="#4DA258"/>
<path d="M227.958 397.336L226.153 389.265L224.675 389.661L227.307 398.661C227.653 399.806 229.181 405.424 229.333 406.61C229.395 407.105 229.814 407.693 230.265 407.572C230.666 407.464 230.705 406.877 230.536 406.418C229.913 404.74 228.35 399.084 227.958 397.336Z" fill="#82C56D"/>
<path d="M251.227 395.414L248.98 385.373L247.14 385.866L250.416 397.062C250.847 398.486 252.747 405.478 252.937 406.954C253.015 407.568 253.536 408.301 254.098 408.15C254.596 408.017 254.643 407.286 254.433 406.715C253.659 404.626 251.714 397.589 251.228 395.414" fill="#4DA258"/>
<path d="M112.981 317.465L111.176 309.394L109.697 309.79L112.33 318.788C112.676 319.934 114.203 325.554 114.355 326.739C114.418 327.234 114.837 327.821 115.288 327.7C115.689 327.593 115.728 327.005 115.558 326.547C114.936 324.868 113.373 319.213 112.981 317.465ZM178.448 299.923L176.641 291.853L175.164 292.249L177.796 301.247C178.142 302.392 179.67 308.012 179.822 309.197C179.885 309.692 180.303 310.28 180.755 310.159C181.155 310.051 181.194 309.463 181.024 309.006C180.402 307.326 178.84 301.671 178.448 299.923ZM69.9782 328.987L68.1718 320.917L66.6939 321.313L69.3266 330.311C69.6728 331.457 71.2014 337.076 71.3533 338.261C71.4155 338.756 71.8329 339.344 72.285 339.223C72.6858 339.116 72.7249 338.528 72.5557 338.07C71.9329 336.391 70.37 330.736 69.9782 328.987ZM157.641 309.811L155.393 299.769L153.554 300.261L156.831 311.459C157.261 312.883 159.161 319.875 159.351 321.351C159.429 321.964 159.95 322.698 160.512 322.547C161.01 322.414 161.057 321.682 160.847 321.112C160.073 319.023 158.127 311.985 157.641 309.811ZM92.5077 327.264L90.2599 317.221L88.4208 317.714L91.6975 328.911C92.1278 330.336 94.0271 337.327 94.2176 338.803C94.2961 339.417 94.8166 340.15 95.3788 339.999C95.8762 339.866 95.9243 339.134 95.7129 338.565C94.9387 336.475 92.994 329.438 92.5087 327.263" fill="#82C56D"/>
<path d="M66.4889 16.7523L65.3712 36.4663L46.0242 42.2901L64.6039 50.3251L64.7877 70.117L76.6227 54.5722L95.9707 60.6952L85.8406 43.5871L96.9674 27.7869L78.2564 32.8005L66.4889 16.7523Z" fill="#FFCC5D"/>
<path d="M46.0252 42.2899L73.7897 43.5974L64.6049 50.3249L46.0252 42.2899ZM64.7877 70.117L73.7897 43.5974L76.6227 54.5722L64.7877 70.117ZM95.9719 60.6959L73.7897 43.5974L85.8418 43.5878L95.9719 60.6959ZM96.9674 27.7869L73.7897 43.5974L78.2564 32.8005L96.9674 27.7869ZM66.4889 16.7523L73.7897 43.5974L65.3712 36.4663L66.4889 16.7523Z" fill="#F39821"/>
<path d="M91.9984 209.691C92.4494 211.375 92.3912 213.154 91.831 214.804C91.2708 216.455 90.2337 217.902 88.851 218.963C87.4683 220.024 85.8021 220.651 84.063 220.765C82.3238 220.879 80.59 220.475 79.0806 219.603C77.5713 218.732 76.3542 217.432 75.5834 215.869C74.8125 214.306 74.5225 212.55 74.75 210.822C74.9775 209.094 75.7123 207.472 76.8614 206.162C78.0106 204.851 79.5225 203.911 81.2059 203.46C83.4634 202.855 85.8687 203.172 87.8926 204.34C89.9166 205.509 91.3935 207.434 91.9984 209.691Z" fill="#CF2633"/>
<path d="M85.8967 220.967L85.6379 220.001C87.766 219.428 89.5799 218.035 90.6818 216.126C91.7837 214.218 92.0835 211.95 91.5154 209.821L92.4813 209.562C93.1175 211.947 92.7815 214.488 91.5471 216.626C90.3127 218.764 88.2807 220.325 85.8967 220.967Z" fill="#303443"/>
<path d="M74.9759 214.252C75.2099 215.128 75.5779 215.961 76.0668 216.724C77.6646 216.762 79.2425 216.364 80.6314 215.573C82.0204 214.782 83.168 213.629 83.9516 212.236C84.7351 210.843 85.1249 209.263 85.0793 207.665C85.0337 206.068 84.5544 204.513 83.6927 203.167C82.3235 203.132 80.9652 203.417 79.7258 204C78.4864 204.583 77.4002 205.447 76.5536 206.523C75.707 207.6 75.1234 208.859 74.8493 210.201C74.5753 211.543 74.6183 212.93 74.9749 214.253" fill="#F15B43"/>
<path d="M123.904 115.783C124.355 117.466 124.297 119.245 123.737 120.896C123.176 122.546 122.139 123.993 120.757 125.054C119.374 126.115 117.708 126.742 115.968 126.856C114.229 126.97 112.495 126.566 110.986 125.694C109.477 124.823 108.26 123.523 107.489 121.96C106.718 120.397 106.428 118.64 106.656 116.912C106.884 115.184 107.618 113.563 108.768 112.252C109.917 110.942 111.429 110.002 113.113 109.551C115.37 108.946 117.775 109.263 119.799 110.432C121.823 111.6 123.3 113.525 123.905 115.782" fill="#CF2633"/>
<path d="M106.883 120.343C107.117 121.218 107.485 122.052 107.973 122.814C109.571 122.852 111.149 122.454 112.538 121.663C113.927 120.872 115.075 119.719 115.858 118.326C116.642 116.933 117.031 115.353 116.986 113.755C116.94 112.158 116.461 110.603 115.599 109.257C114.23 109.222 112.872 109.508 111.633 110.091C110.393 110.674 109.307 111.538 108.461 112.615C107.614 113.691 107.031 114.95 106.757 116.292C106.482 117.634 106.525 119.021 106.882 120.344" fill="#F15B43"/>
<path d="M107.552 123.084C106.401 121.286 105.903 119.147 106.14 117.026C106.378 114.905 107.336 112.929 108.856 111.43L109.558 112.142C108.202 113.481 107.347 115.244 107.135 117.138C106.923 119.031 107.367 120.94 108.394 122.545L107.552 123.084Z" fill="#303443"/>
<path d="M83.5015 90.8385C83.8008 91.9563 83.7619 93.1376 83.3899 94.2333C83.0178 95.3289 82.3293 96.2896 81.4113 96.994C80.4933 97.6984 79.387 98.1147 78.2324 98.1904C77.0778 98.2661 75.9266 97.9978 74.9245 97.4193C73.9224 96.8408 73.1143 95.9782 72.6024 94.9405C72.0904 93.9029 71.8977 92.7367 72.0485 91.5895C72.1993 90.4422 72.6868 89.3655 73.4495 88.4953C74.2122 87.6252 75.2158 87.0007 76.3333 86.7008C77.8325 86.2994 79.4297 86.5098 80.7737 87.2858C82.1178 88.0618 83.0986 89.3398 83.5005 90.8388" fill="#F39821"/>
<path d="M72.1963 93.8678C72.3521 94.4485 72.5964 95.0018 72.9205 95.5082C73.9814 95.5328 75.0291 95.2685 75.9513 94.7435C76.8735 94.2184 77.6355 93.4524 78.1559 92.5276C78.6762 91.6027 78.9351 90.5537 78.9051 89.4929C78.875 88.4322 78.557 87.3996 77.9851 86.5057C77.076 86.4827 76.174 86.6724 75.3511 87.0594C74.5281 87.4465 73.8069 88.0203 73.2447 88.7352C72.6826 89.4501 72.2951 90.2864 72.1131 91.1774C71.9311 92.0685 71.9596 92.9897 72.1963 93.8678Z" fill="#FFCC5D"/>
<path d="M154.606 192.916C154.905 194.033 154.866 195.215 154.494 196.31C154.122 197.406 153.433 198.367 152.515 199.071C151.597 199.776 150.491 200.192 149.336 200.267C148.182 200.343 147.031 200.075 146.028 199.496C145.026 198.917 144.218 198.055 143.706 197.017C143.195 195.979 143.002 194.813 143.153 193.666C143.304 192.518 143.792 191.442 144.554 190.572C145.317 189.702 146.321 189.077 147.439 188.778C148.938 188.376 150.535 188.587 151.879 189.363C153.223 190.139 154.204 191.417 154.606 192.916Z" fill="#F39821"/>
<path d="M143.302 195.945C143.457 196.526 143.702 197.079 144.026 197.586C145.087 197.611 146.134 197.346 147.056 196.821C147.978 196.296 148.74 195.53 149.26 194.605C149.781 193.68 150.039 192.631 150.009 191.571C149.979 190.51 149.661 189.478 149.089 188.584C148.533 188.569 147.976 188.634 147.439 188.778C145.94 189.18 144.663 190.16 143.887 191.504C143.111 192.848 142.9 194.445 143.302 195.945Z" fill="#FFCC5D"/>
<path d="M111.659 294.501C111.958 295.618 111.919 296.8 111.547 297.895C111.175 298.991 110.486 299.952 109.568 300.656C108.65 301.361 107.544 301.777 106.389 301.852C105.234 301.928 104.083 301.66 103.081 301.081C102.079 300.503 101.271 299.64 100.759 298.602C100.247 297.564 100.055 296.398 100.206 295.251C100.357 294.103 100.844 293.027 101.607 292.157C102.37 291.287 103.374 290.662 104.491 290.363C105.991 289.961 107.588 290.172 108.932 290.948C110.276 291.724 111.257 293.002 111.659 294.501Z" fill="#F39821"/>
<path d="M100.354 297.53C100.51 298.111 100.755 298.664 101.079 299.171C102.14 299.196 103.187 298.931 104.11 298.406C105.032 297.881 105.794 297.115 106.314 296.19C106.834 295.265 107.093 294.216 107.063 293.156C107.033 292.095 106.715 291.062 106.143 290.168C105.234 290.145 104.332 290.334 103.509 290.721C102.685 291.108 101.964 291.681 101.402 292.396C100.839 293.111 100.452 293.948 100.27 294.839C100.088 295.73 100.117 296.651 100.354 297.53Z" fill="#FFCC5D"/>
<path d="M184.46 326.943C184.759 328.061 184.721 329.242 184.349 330.338C183.977 331.434 183.288 332.395 182.37 333.1C181.451 333.805 180.345 334.221 179.19 334.297C178.035 334.372 176.884 334.104 175.881 333.525C174.879 332.947 174.071 332.084 173.559 331.046C173.047 330.008 172.854 328.841 173.005 327.693C173.156 326.546 173.644 325.469 174.407 324.599C175.171 323.729 176.175 323.104 177.293 322.805C178.792 322.403 180.389 322.614 181.733 323.39C183.077 324.166 184.058 325.444 184.46 326.943Z" fill="#F39821"/>
<path d="M173.156 329.972C173.312 330.553 173.556 331.106 173.88 331.613C174.941 331.638 175.989 331.374 176.911 330.849C177.833 330.323 178.595 329.558 179.115 328.633C179.636 327.708 179.895 326.659 179.864 325.598C179.834 324.537 179.516 323.505 178.944 322.611C178.387 322.596 177.83 322.661 177.293 322.805C175.794 323.207 174.517 324.187 173.741 325.531C172.965 326.875 172.754 328.472 173.156 329.972Z" fill="#FFCC5D"/>
<path d="M194.523 255.458C194.974 257.142 194.916 258.921 194.356 260.571C193.796 262.222 192.759 263.669 191.376 264.73C189.993 265.791 188.327 266.418 186.588 266.532C184.849 266.646 183.115 266.242 181.606 265.371C180.097 264.499 178.879 263.2 178.109 261.637C177.338 260.074 177.047 258.317 177.275 256.59C177.502 254.862 178.237 253.24 179.386 251.93C180.535 250.619 182.046 249.679 183.73 249.228C185.987 248.623 188.393 248.939 190.417 250.108C192.441 251.276 193.918 253.201 194.523 255.458Z" fill="#CF2633"/>
<path d="M177.5 260.02C177.734 260.895 178.102 261.729 178.591 262.492C180.188 262.529 181.766 262.131 183.155 261.34C184.544 260.55 185.692 259.396 186.475 258.003C187.259 256.61 187.649 255.03 187.603 253.433C187.558 251.835 187.078 250.28 186.217 248.934C184.848 248.899 183.489 249.185 182.25 249.768C181.011 250.35 179.925 251.214 179.078 252.291C178.232 253.368 177.648 254.627 177.374 255.969C177.1 257.31 177.143 258.698 177.5 260.02Z" fill="#F15B43"/>
<path d="M99.6215 364.855C100.073 366.539 100.014 368.318 99.4541 369.969C98.8939 371.619 97.8569 373.066 96.4742 374.127C95.0915 375.188 93.4253 375.815 91.6861 375.929C89.947 376.043 88.2131 375.639 86.7038 374.767C85.1944 373.896 83.9774 372.597 83.2066 371.033C82.4357 369.47 82.1457 367.714 82.3732 365.986C82.6007 364.258 83.3354 362.636 84.4846 361.326C85.6337 360.016 87.1456 359.075 88.8291 358.624C89.9469 358.325 91.1127 358.248 92.2601 358.399C93.4074 358.55 94.5138 358.926 95.516 359.504C96.5182 360.083 97.3966 360.853 98.1011 361.771C98.8055 362.689 99.3222 363.737 99.6215 364.855Z" fill="#CF2633"/>
<path d="M82.599 369.416C82.8331 370.292 83.2011 371.125 83.6899 371.888C85.2877 371.926 86.8656 371.528 88.2545 370.737C89.6435 369.946 90.7912 368.793 91.5747 367.4C92.3582 366.007 92.7481 364.427 92.7025 362.829C92.6569 361.232 92.1775 359.677 91.3158 358.331C89.9467 358.296 88.5884 358.581 87.349 359.164C86.1096 359.747 85.0233 360.611 84.1767 361.687C83.3301 362.764 82.7466 364.023 82.4725 365.365C82.1984 366.707 82.2424 368.094 82.599 369.416Z" fill="#F15B43"/>
<path d="M225.814 372.239C226.266 373.922 226.207 375.702 225.647 377.352C225.087 379.002 224.05 380.45 222.667 381.51C221.284 382.571 219.618 383.199 217.879 383.313C216.14 383.427 214.406 383.022 212.897 382.151C211.387 381.279 210.17 379.98 209.399 378.417C208.629 376.854 208.339 375.097 208.566 373.369C208.794 371.641 209.528 370.02 210.677 368.709C211.827 367.399 213.338 366.459 215.022 366.008C217.279 365.403 219.685 365.72 221.709 366.888C223.733 368.057 225.21 369.981 225.814 372.239Z" fill="#CF2633"/>
<path d="M208.791 376.8C209.026 377.675 209.394 378.509 209.882 379.272C211.48 379.309 213.058 378.911 214.446 378.121C215.835 377.33 216.983 376.176 217.767 374.783C218.55 373.391 218.94 371.811 218.894 370.213C218.849 368.615 218.369 367.06 217.508 365.714C216.139 365.68 214.781 365.965 213.541 366.548C212.302 367.131 211.216 367.995 210.369 369.071C209.523 370.148 208.94 371.407 208.666 372.749C208.391 374.091 208.434 375.478 208.791 376.8Z" fill="#F15B43"/>
<path d="M62.0629 143.454C66.3419 142.308 64.5667 135.655 60.2809 136.804C56.0019 137.95 57.7771 144.602 62.0629 143.454ZM77.8427 128.695C82.1217 127.549 80.3465 120.896 76.0607 122.045C71.7816 123.191 73.5568 129.843 77.8427 128.695ZM91.9815 111.49C96.2606 110.344 94.4856 103.693 90.1998 104.841C85.9208 105.988 87.6957 112.639 91.9815 111.49Z" fill="#FDEBA9"/>
<path d="M101.674 93.6892C105.954 92.5426 104.178 85.8904 99.8925 87.0388C95.6135 88.1853 97.3887 94.8375 101.674 93.6892Z" fill="#E9D495"/>
<path d="M68.44 180.135C72.7191 178.989 70.9429 172.337 66.6581 173.485C62.379 174.632 64.1533 181.284 68.44 180.135Z" fill="#FDEBA9"/>
<path d="M66.6581 173.485C66.2244 173.59 65.8171 173.784 65.4615 174.054C65.106 174.324 64.8098 174.664 64.5914 175.053C64.3731 175.442 64.2372 175.872 64.1923 176.316C64.1474 176.76 64.1945 177.209 64.3305 177.634C66.4533 177.144 68.6731 177.286 70.716 178.043C71.4512 175.76 69.6891 172.673 66.6581 173.485Z" fill="#E9D495"/>
<path d="M97.68 187.124C101.959 185.977 100.184 179.326 95.8983 180.474C91.6193 181.621 93.3942 188.272 97.68 187.124ZM132.327 187.343C136.606 186.196 134.831 179.545 130.546 180.693C126.267 181.84 128.042 188.491 132.327 187.343Z" fill="#FDEBA9"/>
<path d="M167.096 189.429C171.374 188.283 169.6 181.631 165.314 182.78C161.035 183.926 162.81 190.577 167.096 189.429Z" fill="#E9D495"/>
<path d="M62.2222 310.845C66.5012 309.698 64.7263 303.047 60.4405 304.195C56.1614 305.342 57.9364 311.993 62.2222 310.845ZM94.0155 286.932C98.2945 285.786 96.5196 279.134 92.2338 280.283C87.9547 281.429 89.7297 288.08 94.0155 286.932Z" fill="#FDEBA9"/>
<path d="M121.514 261.89C125.793 260.743 124.018 254.091 119.732 255.239C115.453 256.386 117.228 263.038 121.514 261.89ZM147.074 242.377C151.353 241.231 149.578 234.579 145.292 235.727C141.013 236.874 142.788 243.526 147.074 242.377ZM168.038 216.355C172.317 215.208 170.542 208.556 166.256 209.704C161.977 210.851 163.752 217.502 168.038 216.354M82.4499 345.906C86.728 344.76 84.954 338.108 80.6682 339.256C76.3892 340.403 78.1641 347.054 82.4499 345.906ZM113.466 355.269C117.745 354.123 115.97 347.472 111.685 348.62C107.405 349.767 109.18 356.418 113.466 355.269Z" fill="#E9D495"/>
<path d="M149.84 365.478C154.119 364.331 152.344 357.68 148.058 358.829C143.779 359.975 145.554 366.626 149.84 365.478ZM188.304 372.848C192.583 371.701 190.808 365.049 186.522 366.198C182.244 367.344 184.018 373.996 188.304 372.848ZM234.292 382.76C238.571 381.613 236.797 374.962 232.511 376.111C228.232 377.257 230.007 383.908 234.292 382.76Z" fill="#FDEBA9"/>
<path d="M267.778 380.06C272.057 378.914 270.282 372.262 265.996 373.41C261.718 374.556 263.492 381.209 267.778 380.06Z" fill="#E9D495"/>
<path d="M235.635 340.293L234.669 340.551C233.91 337.825 232.106 335.508 229.648 334.105C227.19 332.702 224.278 332.326 221.545 333.058C218.811 333.791 216.477 335.573 215.051 338.017C213.624 340.461 213.22 343.369 213.926 346.109L212.96 346.368C212.22 343.62 210.42 341.277 207.955 339.853C205.49 338.43 202.561 338.042 199.811 338.776L199.552 337.81C201.986 337.161 204.565 337.311 206.908 338.238C209.25 339.166 211.233 340.821 212.564 342.961C212.654 340.147 213.752 337.459 215.659 335.387C217.565 333.316 220.152 331.998 222.949 331.675C225.745 331.351 228.565 332.044 230.893 333.626C233.222 335.208 234.905 337.574 235.635 340.293Z" fill="#303443"/>
<path d="M235.635 340.293L234.669 340.551C233.867 337.545 234.291 334.343 235.846 331.648C237.402 328.954 239.964 326.986 242.968 326.177C243.694 325.991 244.448 325.936 245.193 326.016L245.098 327.012C244.471 326.942 243.838 326.987 243.227 327.143C240.479 327.883 238.136 329.683 236.712 332.148C235.289 334.613 234.901 337.542 235.635 340.293ZM100.334 368.416L99.3448 368.277C99.5325 366.919 99.3812 365.534 98.9042 364.248C98.4272 362.962 97.6394 361.814 96.611 360.906C95.5827 359.998 94.3457 359.359 93.0103 359.045C91.6749 358.731 90.2826 358.753 88.9575 359.107L88.6987 358.142C90.1833 357.744 91.7432 357.72 93.2393 358.071C94.7355 358.423 96.1214 359.139 97.2734 360.157C98.4255 361.174 99.3079 362.461 99.842 363.902C100.376 365.343 100.545 366.894 100.334 368.416ZM73.9191 44.0804C73.829 44.1044 73.734 44.1027 73.6449 44.0755C73.5557 44.0483 73.4759 43.9968 73.4145 43.9267C73.3531 43.8566 73.3125 43.7707 73.2973 43.6788C73.2821 43.5868 73.2929 43.4924 73.3285 43.4063L77.7962 32.6091L78.7186 32.9914L74.8929 42.2397L96.6861 27.3746L97.2489 28.2001L74.0712 44.0107C74.0248 44.0424 73.9734 44.066 73.9191 44.0804Z" fill="#303443"/>
<path d="M232.209 375.103L299.32 357.121L316.371 420.756L249.26 438.739L232.209 375.103Z" fill="#FFCC5D"/>
<path d="M233 378.06L300.113 360.078L303.374 372.248L236.261 390.231L233 378.06Z" fill="#F39821"/>
<path d="M268.216 408.876C268.6 408.773 268.927 408.522 269.126 408.177C269.325 407.832 269.379 407.423 269.276 407.039C269.173 406.655 268.922 406.327 268.577 406.128C268.233 405.929 267.823 405.875 267.439 405.978C267.055 406.081 266.727 406.332 266.528 406.677C266.329 407.022 266.276 407.431 266.378 407.815C266.481 408.2 266.733 408.527 267.077 408.726C267.422 408.925 267.831 408.979 268.216 408.876ZM295.451 404.809C295.835 404.706 296.163 404.455 296.362 404.11C296.561 403.766 296.615 403.356 296.512 402.972C296.409 402.588 296.157 402.26 295.813 402.061C295.468 401.862 295.059 401.809 294.675 401.911C294.29 402.014 293.963 402.266 293.764 402.61C293.565 402.955 293.511 403.364 293.614 403.749C293.717 404.133 293.968 404.46 294.313 404.659C294.657 404.858 295.067 404.912 295.451 404.809ZM299.957 385.463C300.342 385.36 300.669 385.108 300.868 384.764C301.067 384.419 301.121 384.01 301.018 383.626C300.915 383.241 300.664 382.914 300.319 382.715C299.975 382.516 299.565 382.462 299.181 382.565C298.797 382.668 298.469 382.919 298.27 383.264C298.071 383.608 298.017 384.018 298.12 384.402C298.223 384.786 298.475 385.114 298.819 385.313C299.164 385.512 299.573 385.566 299.957 385.463ZM262.6 431.499C262.984 431.396 263.312 431.145 263.51 430.8C263.709 430.456 263.763 430.046 263.66 429.662C263.557 429.278 263.306 428.95 262.961 428.751C262.617 428.552 262.207 428.499 261.823 428.602C261.439 428.704 261.111 428.956 260.912 429.3C260.713 429.645 260.66 430.054 260.762 430.439C260.865 430.823 261.117 431.151 261.461 431.349C261.806 431.548 262.215 431.602 262.6 431.499ZM249.313 393.038C249.506 392.987 249.669 392.861 249.769 392.689C249.868 392.517 249.895 392.312 249.844 392.12C249.792 391.928 249.667 391.764 249.494 391.664C249.322 391.565 249.117 391.538 248.925 391.59C248.733 391.641 248.569 391.767 248.47 391.939C248.37 392.111 248.343 392.316 248.395 392.508C248.446 392.7 248.572 392.864 248.744 392.964C248.917 393.063 249.121 393.09 249.313 393.038ZM256.054 406.14C256.246 406.089 256.41 405.963 256.51 405.791C256.609 405.619 256.636 405.414 256.585 405.222C256.533 405.03 256.407 404.866 256.235 404.766C256.063 404.667 255.858 404.64 255.666 404.691C255.474 404.743 255.31 404.869 255.211 405.041C255.111 405.213 255.084 405.418 255.136 405.61C255.187 405.802 255.313 405.966 255.485 406.065C255.657 406.165 255.862 406.192 256.054 406.14ZM254.03 420.845C254.222 420.794 254.386 420.668 254.486 420.496C254.585 420.323 254.612 420.119 254.56 419.927C254.509 419.734 254.383 419.571 254.211 419.471C254.039 419.372 253.834 419.345 253.642 419.396C253.45 419.448 253.286 419.573 253.186 419.746C253.087 419.918 253.06 420.123 253.112 420.315C253.163 420.507 253.289 420.671 253.461 420.77C253.633 420.87 253.838 420.897 254.03 420.845ZM276.668 385.709C276.86 385.657 277.024 385.532 277.123 385.36C277.222 385.187 277.249 384.983 277.198 384.79C277.146 384.598 277.021 384.434 276.848 384.335C276.676 384.236 276.471 384.209 276.279 384.26C276.087 384.312 275.923 384.437 275.824 384.61C275.724 384.782 275.698 384.987 275.749 385.179C275.8 385.371 275.926 385.535 276.098 385.634C276.271 385.734 276.475 385.76 276.668 385.709ZM280.27 399.154C280.462 399.102 280.626 398.976 280.725 398.804C280.825 398.632 280.852 398.427 280.8 398.235C280.749 398.043 280.623 397.879 280.451 397.78C280.279 397.68 280.074 397.653 279.882 397.705C279.69 397.756 279.526 397.882 279.426 398.054C279.327 398.227 279.3 398.431 279.351 398.623C279.403 398.815 279.529 398.979 279.701 399.079C279.873 399.178 280.078 399.205 280.27 399.154ZM286.921 413.772C287.113 413.721 287.277 413.595 287.377 413.423C287.476 413.251 287.503 413.046 287.452 412.854C287.4 412.662 287.274 412.498 287.102 412.398C286.93 412.299 286.725 412.272 286.533 412.323C286.341 412.375 286.177 412.501 286.078 412.673C285.978 412.845 285.951 413.05 286.003 413.242C286.054 413.434 286.18 413.598 286.352 413.697C286.524 413.797 286.729 413.824 286.921 413.772ZM275.491 423.047C275.683 422.995 275.847 422.87 275.947 422.697C276.046 422.525 276.073 422.32 276.022 422.128C275.97 421.936 275.844 421.772 275.672 421.673C275.5 421.573 275.295 421.546 275.103 421.598C274.911 421.649 274.747 421.775 274.648 421.947C274.548 422.119 274.521 422.324 274.573 422.516C274.624 422.708 274.75 422.872 274.922 422.972C275.094 423.071 275.299 423.098 275.491 423.047ZM302.462 417.06C302.654 417.009 302.818 416.883 302.917 416.711C303.017 416.538 303.044 416.334 302.992 416.142C302.941 415.949 302.815 415.786 302.643 415.686C302.47 415.587 302.266 415.56 302.074 415.611C301.881 415.663 301.718 415.788 301.618 415.961C301.519 416.133 301.492 416.338 301.543 416.53C301.595 416.722 301.72 416.886 301.893 416.985C302.065 417.085 302.27 417.112 302.462 417.06ZM267.125 401.094C272.718 399.595 270.398 390.899 264.796 392.401C259.201 393.9 261.522 402.595 267.125 401.094ZM265.699 423.589C271.292 422.09 268.972 413.394 263.369 414.895C257.776 416.394 260.095 425.09 265.699 423.589ZM287.938 392.535C293.532 391.037 291.212 382.341 285.609 383.842C280.015 385.341 282.335 394.037 287.938 392.535ZM305.999 402.603C311.592 401.104 309.272 392.408 303.67 393.91C298.076 395.408 300.396 404.104 305.999 402.603ZM293.956 426.122C299.55 424.624 297.23 415.928 291.627 417.429C286.034 418.928 288.354 427.623 293.956 426.122ZM246.947 407.079C252.54 405.581 250.22 396.885 244.618 398.386C239.023 399.885 241.344 408.581 246.947 407.079ZM264.315 366.5L267.213 365.724L284.264 429.36L281.366 430.137L264.315 366.5Z" fill="#F15B43"/>
<path d="M229.471 375.837L302.057 356.388L305.318 368.559L232.733 388.008L229.471 375.837Z" fill="#F15B43"/>
<path d="M265.992 367.206C264.985 367.342 263.963 367.301 262.97 367.084C260.499 366.689 257.992 366.568 255.494 366.724C253.08 366.811 250.692 367.267 248.415 368.075C247.305 368.493 246.232 369 245.205 369.593C243.973 370.427 242.516 370.867 241.028 370.855C240.448 370.833 239.873 370.752 239.31 370.614C238.681 371.333 237.923 371.928 237.076 372.369C236.312 372.746 235.48 372.966 234.63 373.017C233.78 373.068 232.928 372.949 232.124 372.666C231.878 372.574 231.679 372.388 231.569 372.15C231.459 371.912 231.447 371.639 231.535 371.392C231.624 371.145 231.806 370.943 232.043 370.829C232.28 370.715 232.552 370.699 232.8 370.784C233.346 370.976 233.924 371.057 234.502 371.024C235.079 370.991 235.644 370.843 236.164 370.59C236.553 370.385 236.917 370.137 237.25 369.85C235.757 369.077 234.649 367.929 234.638 366.659C234.66 366.068 234.874 365.5 235.248 365.042C235.622 364.583 236.136 364.259 236.71 364.119C237.052 364.063 237.402 364.078 237.739 364.162C238.075 364.246 238.391 364.399 238.666 364.61C239.574 365.264 240.193 366.245 240.394 367.347C240.47 367.825 240.444 368.314 240.318 368.781C240.575 368.822 240.834 368.847 241.094 368.856C242.221 368.856 243.321 368.502 244.237 367.844C245.351 367.202 246.516 366.652 247.72 366.199C249.129 365.677 250.587 365.299 252.073 365.07C251.046 364.75 250.075 364.269 249.198 363.646C245.699 360.958 244.307 358.853 244.942 357.21C245.683 355.297 248.723 355.158 250.945 355.219C257.182 355.39 261.566 359.4 264.185 361.796C266.113 363.558 267.639 364.953 267.019 366.335L266.994 366.388C266.901 366.592 266.762 366.772 266.588 366.914C266.414 367.055 266.21 367.155 265.992 367.206ZM247.68 357.457C246.926 357.659 246.815 357.913 246.807 357.933C246.803 357.941 246.512 359.061 250.418 362.059C251.94 363.232 256.521 364.628 264.531 364.901C264.017 364.351 263.304 363.699 262.836 363.271C260.266 360.921 256.382 357.368 250.891 357.219C249.815 357.15 248.734 357.23 247.68 357.458L247.68 357.457ZM237.077 366.085C236.963 366.133 236.863 366.209 236.787 366.305C236.71 366.402 236.659 366.516 236.638 366.638C236.641 367.036 237.343 367.694 238.4 368.191C238.439 368.016 238.446 367.836 238.419 367.658C238.303 367.094 237.983 366.592 237.52 366.249C237.401 366.145 237.249 366.086 237.091 366.082L237.077 366.085Z" fill="#F15B43"/>
<path d="M267.196 366.882C266.982 366.947 266.756 366.963 266.535 366.928C266.314 366.893 266.104 366.807 265.921 366.679L265.87 366.643C264.644 365.758 265.268 363.786 266.055 361.295C267.126 357.91 268.92 352.244 274.234 348.98C276.129 347.813 278.831 346.416 280.427 347.702C281.797 348.805 281.643 351.323 279.96 355.401C279.512 356.38 278.911 357.282 278.182 358.074C279.583 357.529 281.035 357.128 282.517 356.875C283.786 356.666 285.07 356.56 286.356 356.558C287.478 356.669 288.607 356.426 289.584 355.863C289.804 355.725 290.016 355.574 290.218 355.41C289.876 355.069 289.609 354.659 289.436 354.208C289.058 353.154 289.103 351.994 289.563 350.973C289.696 350.652 289.894 350.361 290.143 350.12C290.393 349.878 290.69 349.69 291.015 349.567C291.583 349.401 292.189 349.426 292.742 349.636C293.295 349.847 293.764 350.232 294.077 350.733C294.701 351.84 294.315 353.387 293.408 354.802C293.84 354.885 294.281 354.917 294.721 354.9C295.298 354.859 295.861 354.704 296.378 354.444C296.895 354.184 297.355 353.824 297.731 353.385C297.815 353.28 297.918 353.192 298.036 353.128C298.154 353.064 298.283 353.024 298.417 353.011C298.55 352.998 298.685 353.012 298.813 353.052C298.941 353.092 299.06 353.157 299.162 353.244C299.264 353.331 299.348 353.437 299.408 353.557C299.468 353.677 299.504 353.808 299.513 353.942C299.521 354.075 299.503 354.21 299.459 354.336C299.414 354.463 299.345 354.579 299.255 354.679C298.7 355.325 298.022 355.854 297.261 356.234C296.499 356.615 295.67 356.841 294.82 356.897C293.865 356.939 292.911 356.802 292.007 356.493C291.588 356.895 291.131 357.252 290.641 357.561C289.358 358.315 287.877 358.663 286.394 358.557C285.207 358.557 284.023 358.654 282.852 358.848C280.478 359.287 278.185 360.085 276.052 361.215C273.809 362.328 271.696 363.687 269.753 365.267C269.002 365.951 268.136 366.498 267.196 366.882ZM278.181 349.284C277.155 349.614 276.179 350.085 275.282 350.682C270.602 353.558 269.013 358.578 267.961 361.899C267.771 362.502 267.48 363.424 267.31 364.157C274.108 359.917 277.377 356.416 278.111 354.639C279.99 350.088 279.181 349.266 279.172 349.26C279.156 349.247 278.932 349.083 278.181 349.284ZM291.68 351.454L291.666 351.458C291.53 351.541 291.426 351.668 291.374 351.819C291.145 352.347 291.119 352.942 291.301 353.489C291.367 353.656 291.463 353.809 291.585 353.941C292.249 352.983 292.529 352.061 292.334 351.716C292.256 351.621 292.155 351.548 292.041 351.502C291.926 351.456 291.802 351.44 291.68 351.454Z" fill="#F15B43"/>
<path d="M267.553 378.678L270.422 377.91L271.214 380.865L268.345 381.634L267.553 378.678Z" fill="#CF2633"/>
<path d="M204.137 459.651L170.946 468.544C170.012 468.795 169.02 468.699 168.152 468.274C167.285 467.85 166.6 467.126 166.224 466.236L153.385 435.796L202.969 422.51L207.07 455.291C207.19 456.249 206.959 457.219 206.42 458.02C205.881 458.822 205.07 459.401 204.137 459.651Z" fill="#1B5490"/>
<path d="M208.053 433.755L154.605 448.076C154.093 448.213 153.547 448.142 153.088 447.876C152.628 447.611 152.293 447.174 152.156 446.662L150.039 438.764C149.902 438.251 149.974 437.705 150.239 437.246C150.504 436.787 150.941 436.451 151.454 436.314L204.901 421.993C205.413 421.856 205.959 421.927 206.419 422.193C206.878 422.458 207.213 422.895 207.351 423.407L209.467 431.305C209.604 431.818 209.532 432.364 209.267 432.823C209.002 433.282 208.565 433.618 208.053 433.755Z" fill="#0E395C"/>
</svg>
