<svg width="1230" height="125" viewBox="0 0 1230 125" fill="none" xmlns="http://www.w3.org/2000/svg">
<path d="M575.066 1.00034L568 84.9404L677.506 94.159L684.572 10.2189L575.066 1.00034Z" fill="#82C56D"/>
<path d="M670.785 9.05664C670.785 9.05664 634.06 88.7526 569.007 72.9776L568 84.9396L677.507 94.1586L684.573 10.2176L670.785 9.05664Z" fill="#4DA258"/>
<path d="M584.575 15.7973C582.845 14.8092 581.431 13.3512 580.495 11.5923C579.75 10.1733 578.809 8.38426 579.576 7.22326C580.479 5.85526 583.176 6.23426 584.489 6.63626C585.615 6.99236 586.636 7.61923 587.463 8.46187C588.289 9.30451 588.897 10.3372 589.231 11.4693C589.734 13.2173 589.791 16.0813 588.35 16.8303C587.322 17.3653 585.97 16.5933 584.575 15.7973ZM577.831 16.3598C578.064 18.0088 578.36 19.6464 578.72 21.2728C579.214 23.5048 582.721 22.8648 582.224 20.6168C581.863 18.9908 581.567 17.3531 581.335 15.7038C581.015 13.4338 577.511 14.0888 577.831 16.3598Z" fill="#BCDA86"/>
<path d="M681.19 50.413L631.803 46.255C637.147 44.8957 642.115 42.3477 646.337 38.801C648.126 37.233 652.315 33.561 651.252 30.175C650.741 28.548 649.133 27.31 646.603 26.597C644.894 26.115 642.268 25.876 637.112 28.336C634.136 29.756 631.558 31.442 624.948 37.187C623.424 38.512 622.184 39.593 621.162 40.502L624.14 5.13001C624.18 4.65925 624.031 4.19202 623.726 3.83111C623.421 3.47019 622.986 3.24516 622.515 3.20551C622.044 3.16586 621.577 3.31484 621.216 3.61968C620.855 3.92452 620.63 4.36025 620.59 4.83101L617.721 38.893C617.327 38.135 616.893 37.306 616.414 36.39C612.349 28.631 610.562 26.121 608.308 23.716C604.404 19.55 601.872 18.815 600.101 18.64C597.476 18.389 595.538 18.95 594.469 20.279C592.247 23.046 594.81 27.991 595.906 30.103C599.182 36.0191 603.976 40.9549 609.794 44.402L571.683 41.193C571.214 41.1555 570.748 41.3056 570.389 41.6105C570.03 41.9153 569.806 42.3501 569.766 42.8197C569.727 43.2892 569.875 43.7553 570.178 44.1159C570.481 44.4766 570.915 44.7024 571.384 44.744L615.086 48.424C609.68 53.19 609.063 60.558 609.035 60.939C609.018 61.1731 609.094 61.4044 609.246 61.5829C609.399 61.7613 609.615 61.8724 609.849 61.892H609.857C610.093 61.9099 610.325 61.8335 610.505 61.6797C610.684 61.526 610.794 61.3074 610.812 61.072C610.819 60.984 611.456 53.603 616.845 49.304L613.522 88.771C613.485 89.2407 613.635 89.7062 613.94 90.0655C614.245 90.4248 614.679 90.6487 615.149 90.6883C615.619 90.7278 616.085 90.5797 616.445 90.2764C616.806 89.9732 617.032 89.5394 617.073 89.07L620.457 48.876L624.88 49.248C628.546 51.256 632.752 55.244 632.186 62.888C632.169 63.1222 632.244 63.3539 632.397 63.5326C632.549 63.7113 632.766 63.8225 633 63.842L633.008 63.843C633.125 63.8517 633.243 63.8372 633.354 63.8005C633.465 63.7637 633.568 63.7054 633.657 63.6289C633.745 63.5524 633.818 63.4591 633.871 63.3545C633.923 63.2498 633.955 63.1358 633.963 63.019C634.457 56.346 631.62 52.145 628.389 49.544L680.891 53.964C681.362 54.0037 681.83 53.8546 682.191 53.5497C682.552 53.2448 682.777 52.8089 682.816 52.338C682.856 51.8671 682.707 51.3998 682.402 51.0388C682.097 50.6777 681.661 50.4527 681.19 50.413ZM626.117 38.532C632.571 32.922 635.052 31.293 637.879 29.944C642.498 27.741 644.71 27.915 646.121 28.312C647.988 28.839 649.239 29.712 649.551 30.708C650.267 32.987 646.558 36.237 645.162 37.461C639.138 42.742 630.794 45.163 625.04 45.685L620.76 45.325L620.757 45.313L620.943 43.099C622.283 41.865 624.127 40.262 626.117 38.532ZM597.487 29.283C596.633 27.635 594.363 23.257 595.858 21.395C596.495 20.603 597.916 20.244 599.771 20.399L599.926 20.414C601.386 20.557 603.51 21.201 607.008 24.934C609.15 27.22 610.867 29.64 614.836 37.217C615.799 39.056 616.707 40.79 617.439 42.244L617.247 44.533C617.166 44.6838 617.109 44.8465 617.078 45.015L614.301 44.781C609.053 42.433 601.435 36.897 597.487 29.283Z" fill="white"/>
<path d="M560.355 64.8488C541.126 64.9135 522.082 67.6847 504.206 73.0197C482.062 54.1692 454.419 39.4341 423.443 29.9691C392.468 20.5041 359.001 16.5663 325.666 18.4643C292.33 20.3623 260.031 28.0445 231.3 40.9089C202.568 53.7734 178.185 71.4706 160.061 92.6139C141.513 88.1793 121.83 87.1245 102.635 89.5363C83.439 91.948 65.2791 97.7573 49.6504 106.486C34.0217 115.214 21.3714 126.612 12.7413 139.741C4.1111 152.87 -0.251996 167.354 0.0112419 182H716C716 166.616 711.975 151.382 704.153 137.169C696.332 122.955 684.867 110.041 670.414 99.1622C655.961 88.2836 638.803 79.6543 619.919 73.7668C601.035 67.8793 580.795 64.849 560.355 64.8488Z" fill="white"/>
<path d="M430.145 84.1965C448.014 78.8595 467.052 76.0885 486.275 76.0267C524.973 76.0295 562.281 86.8876 590.917 106.482C619.553 126.076 637.462 153.001 641.15 182H716C716 166.618 711.976 151.386 704.156 137.174C696.337 122.963 684.876 110.05 670.428 99.1731C655.979 88.2962 638.826 79.6682 619.948 73.7817C601.07 67.8952 580.837 64.8656 560.404 64.8658C541.181 64.9275 522.143 67.6985 504.274 73.0355C474.87 47.9979 435.954 30.3694 392.797 22.5383C349.64 14.7072 304.328 17.0518 263 29.2548C294.498 28.6777 325.782 33.2969 354.657 42.7882C383.531 52.2795 409.297 66.4128 430.145 84.1965Z" fill="#C0CEDD"/>
<path d="M761.427 51.9907C780.63 52.0629 799.648 55.1383 817.499 61.0585C839.612 40.139 867.216 23.7866 898.148 13.2828C929.08 2.77897 962.5 -1.59104 995.789 0.515256C1029.08 2.62155 1061.33 11.1469 1090.02 25.4233C1118.71 39.6997 1143.06 59.3393 1161.16 82.8032C1179.68 77.882 1199.34 76.7113 1218.51 79.3878C1237.68 82.0642 1255.81 88.5111 1271.42 98.1976C1287.03 107.884 1299.66 120.533 1308.28 135.103C1316.89 149.672 1321.25 165.746 1320.99 182H606C606 164.927 610.02 148.021 617.83 132.248C625.641 116.475 637.09 102.143 651.522 90.0703C665.955 77.9978 683.09 68.4212 701.947 61.8875C720.805 55.3538 741.016 51.9909 761.427 51.9907Z" fill="white"/>
<path d="M1197.25 77.983C1185.16 78.1257 1173.17 79.7453 1161.65 82.79C1137.41 51.4493 1102.13 27.1276 1060.66 13.1591C1019.19 -0.809382 973.549 -3.74111 930 4.76583C984.637 15.4953 1032.16 43.4613 1062.59 82.79C1081.18 77.8682 1100.9 76.6975 1120.13 79.3744C1139.36 82.0512 1157.55 88.4989 1173.21 98.1867C1188.87 107.874 1201.54 120.525 1210.19 135.097C1218.83 149.668 1223.21 165.744 1222.94 182H1322C1322 168.34 1318.77 154.814 1312.5 142.194C1306.23 129.573 1297.04 118.106 1285.46 108.448C1273.88 98.7886 1260.12 91.1267 1244.99 85.8996C1229.85 80.6725 1213.63 77.9825 1197.25 77.983Z" fill="#C0CEDD"/>
</svg>
