<svg width="54" height="54" viewBox="0 0 54 54" fill="none" xmlns="http://www.w3.org/2000/svg">
<path d="M35.3457 3.06306C35.0673 3.06306 34.7682 3.06286 34.4589 2.85662C34.2135 2.85662 33.9783 3.06306 33.7412 3.06306H33.537H33.2029C33.0049 3.26929 32.8069 3.26919 32.6172 3.47543H32.4501C32.3016 3.47543 32.1861 3.68157 32.0459 3.88781C31.9201 3.88781 31.7819 3.88801 31.6644 4.09424H31.6396C31.5303 4.30048 31.4231 4.30038 31.3179 4.50662C31.19 4.50662 31.0312 4.50657 30.9137 4.7128C30.6435 5.12528 30.3898 5.33152 30.163 5.74399C30.1279 5.74399 30.0681 5.95018 30.033 5.95018C29.6907 6.36265 29.4102 6.98146 29.1668 7.60018C28.907 8.21889 28.7358 8.83765 28.5543 9.45636C28.5378 9.45636 28.4986 9.66255 28.4842 9.66255C28.4698 9.66255 28.4862 9.86874 28.4718 9.86874C28.1109 11.3124 27.7995 12.7561 27.5107 13.9935C27.486 14.1997 27.4777 14.1999 27.453 14.4061C27.2777 15.2311 27.0838 16.0559 26.8302 16.8809C26.6342 17.4996 26.4383 18.3245 26.2424 18.9432C25.9537 18.1183 25.6443 17.087 25.3556 16.262C24.0872 12.5498 23.9573 8.63141 21.7726 5.33162C20.6034 3.68172 18.5831 2.03167 16.4222 2.85662C15.841 3.06286 15.3599 3.47553 15.0518 4.09424C13.7471 6.77533 14.7496 9.86889 16.1572 12.3437C18.2115 15.4373 20.0623 18.5308 21.912 21.8306C20.1219 20.7994 18.3233 19.7682 16.56 18.737H16.3438C16.1766 18.5308 15.9947 18.5307 15.8278 18.3244C14.7911 17.7057 13.7547 17.0872 12.6831 16.4685H12.5033C11.3519 15.8498 10.1802 15.4371 8.88216 15.0247H8.6188H7.4814H6.90703H5.96226C5.7917 15.2309 5.61165 15.2309 5.4479 15.2309H5.28085C5.08018 15.4371 4.87972 15.4373 4.69555 15.4373C4.58377 15.6435 4.47095 15.6435 4.36103 15.6435C4.10404 15.8497 3.88594 16.0558 3.69406 16.262C3.68131 16.262 3.68286 16.2622 3.67036 16.4685C3.49729 16.6747 3.32978 16.8808 3.24312 17.087C3.14157 17.2933 3.07865 17.7058 3.05563 17.912H3.03204C3.01576 18.3245 3.05441 18.5308 3.09537 18.737C3.10729 18.737 3.06751 18.9432 3.08434 18.9432C3.12495 18.9432 3.18218 19.1494 3.22959 19.1494C3.29703 19.3556 3.38522 19.562 3.4838 19.7682C3.51298 19.9745 3.52573 19.9744 3.55644 19.9744C3.64145 20.1807 3.78076 20.1805 3.88153 20.3868C3.97194 20.593 4.04736 20.5932 4.14671 20.7994C4.3798 21.0056 4.61037 21.2119 4.88054 21.6244C5.15009 21.8306 5.48028 22.0367 5.78159 22.243C5.85151 22.243 5.92823 22.4492 5.99773 22.4492C8.20942 23.8928 10.7729 24.3055 13.3214 24.718C13.5091 24.718 13.6976 24.9242 13.8849 24.9242C14.9111 25.1304 15.9435 25.3365 16.9281 25.5427C17.9735 25.9552 19.0218 26.1615 20.0679 26.3677C16.5346 27.6051 12.9919 28.6363 9.39487 29.4613C6.70203 30.2862 3.82419 31.9361 2.94604 34.6172C2.81277 35.2359 2.85042 36.0609 3.13425 36.4734C4.1086 38.742 6.83682 38.7421 8.81567 38.3296C12.595 37.5046 15.4223 34.6172 18.7825 32.761C19.6382 32.3485 20.5147 31.9362 21.3724 31.3175C21.0167 32.1424 20.6611 32.7611 20.3049 33.3798C19.8978 34.2048 19.501 34.8234 19.0832 35.6484C18.2851 36.8858 17.4756 38.3295 16.7449 39.567C16.7094 39.567 16.6496 39.7731 16.6139 39.7731C16.5848 39.7731 16.5718 39.9793 16.5432 39.9793C15.9465 41.0105 15.4283 42.2481 15.1845 43.4855C15.1738 43.6917 15.183 43.6917 15.1733 43.6917C15.1082 44.1042 15.0317 44.7228 15.024 44.9291C15.0203 45.3415 15.0983 45.5478 15.1362 45.9603C15.1562 46.1665 15.1764 46.3728 15.2107 46.5791C15.2455 46.5791 15.2342 46.7852 15.2849 46.9914C15.3016 46.9914 15.339 47.1976 15.3575 47.1976C15.4278 47.4039 15.5134 47.6102 15.6118 47.8164C15.6619 47.8164 15.6988 48.0226 15.757 48.0226C15.9199 48.4351 16.1513 48.6414 16.3945 48.8476C16.6166 48.8476 16.8971 49.0538 17.1866 49.26C17.4455 49.26 17.7268 49.2602 18.0132 49.4664C18.2799 49.4664 18.5342 49.4662 18.791 49.26C18.8572 49.26 18.93 49.4662 18.9945 49.26C19.3177 49.26 19.6248 49.0538 19.9141 49.0538C19.9661 48.8476 20.03 48.8476 20.0814 48.8476C20.2309 48.8476 20.346 48.6414 20.4866 48.6414C20.749 48.4352 20.9785 48.2289 21.2136 48.0226C21.3388 47.8164 21.5024 47.8165 21.6191 47.6103C21.9105 47.404 22.1386 46.9915 22.3681 46.5791C22.4071 46.5791 22.4612 46.5791 22.4989 46.3729C24.0562 43.898 24.446 41.0107 25.0214 38.3296C25.2359 37.2984 25.471 36.4734 25.702 35.4422C25.8979 34.8235 26.0918 33.9985 26.2897 33.3798C26.5785 34.2048 26.8878 35.236 27.1766 36.2672C28.4429 39.7732 28.5728 43.6916 30.7589 46.9914C31.9283 48.6413 33.9494 50.4976 36.1087 49.4664C36.6903 49.2602 37.1729 48.8477 37.4802 48.4353C38.7857 45.7542 37.7813 42.4542 36.3747 39.9793C34.3206 37.092 32.4686 33.7922 30.6207 30.6987C31.5756 31.1111 32.5202 31.73 33.475 32.1425C34.3309 32.5549 35.1559 32.9673 35.9726 33.586C36.2159 33.586 36.4614 33.7924 36.7047 33.9986C37.6843 34.6174 38.6846 35.2359 39.6931 35.6484C39.7508 35.6484 39.7921 35.8546 39.8478 35.8546H40.0293C40.6232 36.2671 41.2131 36.4733 41.84 36.6796C42.4257 36.8858 43.0218 37.0922 43.6487 37.2984H43.9127C44.3417 37.2984 44.8263 37.5046 45.2533 37.5046C45.707 37.5046 46.1298 37.2984 46.569 37.2984H46.8578C46.9877 37.0922 47.1259 37.0922 47.2517 37.0922C47.3796 37.0922 47.5177 37.092 47.6456 36.8858H47.8353C47.9488 36.6795 48.0601 36.6796 48.1715 36.6796C48.2272 36.6796 48.2478 36.4734 48.3014 36.4734C48.4932 36.4734 48.6809 36.2673 48.8377 36.061H48.8624C49.0274 35.8548 49.1759 35.4423 49.2893 35.236C49.411 35.0298 49.4461 34.6173 49.477 34.411C49.4997 34.2048 49.4811 33.9985 49.4357 33.586C49.4254 33.586 49.4646 33.5861 49.4481 33.3798C49.4069 33.3798 49.3491 33.1736 49.3017 33.1736C49.2192 32.9674 49.1511 32.7611 49.048 32.5548C49.0212 32.5548 49.0047 32.3486 48.9758 32.3486C48.9346 32.3486 48.8851 32.1425 48.8438 32.1425C48.7077 31.9362 48.5489 31.7299 48.386 31.5236H48.3262C48.2293 31.5236 48.1385 31.3175 48.0375 31.3175C47.9488 31.1112 47.8993 31.1113 47.8085 30.9051C47.757 30.9051 47.7034 30.9049 47.6518 30.6987C47.3136 30.4924 46.9197 30.2864 46.534 29.8739C45.9957 29.6677 45.443 29.2551 44.8655 29.0489C44.2509 28.8427 43.6054 28.6363 42.9599 28.4301H42.7805H42.5763C41.4667 28.0176 40.3448 27.8113 39.2105 27.6051C38.9341 27.6051 38.6599 27.3989 38.3835 27.3989C36.4119 26.9864 34.4237 26.3678 32.4645 25.9553C35.9973 24.9242 39.5405 23.6867 43.1373 22.8618C45.8307 22.0368 48.7077 20.3869 49.5863 17.7059C49.7183 17.0871 49.6812 16.4684 49.3986 15.8497C48.4231 13.7873 45.6946 13.581 43.7168 13.9935C39.9365 14.8184 37.1089 17.7059 33.7493 19.562C32.8935 19.9745 32.0169 20.3869 31.159 21.0056C31.5158 20.3869 31.8705 19.5619 32.2273 18.9432C32.6872 18.1183 33.1533 17.2934 33.6277 16.4685C34.3763 15.2311 35.1084 13.9935 35.787 12.7561C35.8488 12.5499 35.9293 12.55 35.9891 12.3437C36.2964 11.725 36.6119 11.3124 36.8408 10.6937C37.0574 10.075 37.2286 9.45626 37.3482 8.83755C37.3606 8.63131 37.3461 8.63136 37.3585 8.63136C37.4183 8.21889 37.5029 7.80646 37.507 7.39399C37.5111 7.18775 37.4431 6.98141 37.4327 6.77518C37.4162 6.56894 37.3853 6.15642 37.3214 5.95018C37.2884 5.74394 37.2946 5.53785 37.2471 5.33162C37.2286 5.33162 37.1935 5.33167 37.1749 5.12543C37.1089 4.91919 37.0079 4.71285 36.9192 4.50662C36.8697 4.50662 36.8326 4.30043 36.7748 4.30043C36.7398 4.30043 36.6594 4.09424 36.6181 4.09424C36.4737 3.88801 36.3273 3.68162 36.1376 3.68162H36.0778C35.8674 3.47538 35.6138 3.26929 35.3457 3.06306Z" fill="#C0392B"/>
<path d="M27.0017 2.2381C26.6945 2.21696 26.3954 2.27768 26.0984 2.367C25.8654 2.44217 25.6612 2.56406 25.455 2.68925C25.3972 2.72468 25.3147 2.71431 25.2611 2.7537C25.1662 2.83458 25.092 2.92595 25.0033 3.01149C24.8445 3.14668 24.6919 3.30183 24.5516 3.46264C24.5145 3.50906 24.4609 3.54414 24.4238 3.59154C24.3165 3.7252 24.2609 3.89695 24.166 4.04268C24.0814 4.17306 23.9824 4.2934 23.9082 4.42937C23.8979 4.44629 23.9164 4.47681 23.9082 4.49393C23.8401 4.62159 23.7741 4.74842 23.7143 4.88042C23.6401 5.04169 23.5205 5.16688 23.4565 5.33166C23.3163 5.70805 23.2214 6.15847 23.1348 6.5563C23.1204 6.61961 23.0832 6.68705 23.0709 6.74954C22.9492 7.37609 22.8914 7.99377 22.877 8.61867C22.8613 9.28688 22.9368 9.94973 23.0049 10.6165C23.0131 10.6784 22.9987 10.7483 23.0049 10.8097C23.0172 10.8764 23.0585 10.9368 23.0709 11.0032C23.242 12.4198 23.4668 13.8431 23.7143 15.2568C23.7308 15.3655 23.7638 15.4705 23.7803 15.5792C23.9206 16.4142 24.0443 17.2569 24.1021 18.0926C24.1866 18.8447 24.2732 19.5965 24.3598 20.3482C23.7432 19.5746 23.1059 18.8016 22.4903 18.028C20.0031 15.1762 18.4136 11.4996 15.2075 9.32751C13.5157 8.22393 10.9633 7.25916 9.27813 8.87647C8.81327 9.28152 8.53444 9.886 8.44039 10.4876C8.21106 13.4626 10.2969 16.0185 12.5008 17.7702C15.5383 19.873 18.4369 22.1788 21.3302 24.4725C19.3147 24.2416 17.2797 23.9838 15.272 23.6992C15.1852 23.6847 15.101 23.6517 15.0142 23.6352C14.8236 23.6084 14.6246 23.5981 14.4341 23.5713C13.2317 23.3485 12.0302 23.1258 10.8249 22.9897C10.7635 22.9835 10.6935 22.9979 10.6317 22.9897C9.34165 22.8581 8.06154 22.8059 6.76472 23.0557C6.68325 23.0722 6.58983 23.099 6.50692 23.1196C6.15157 23.2001 5.74962 23.3197 5.41118 23.4414C5.2266 23.5115 5.07605 23.6167 4.89559 23.6992C4.60459 23.8332 4.32658 23.9776 4.05785 24.1508C3.91213 24.2457 3.74037 24.3014 3.60671 24.4086C3.55932 24.4457 3.52423 24.4994 3.47781 24.5365C3.31701 24.6767 3.16185 24.8293 3.02667 24.9881C2.94114 25.0768 2.84976 25.1511 2.76887 25.2459C2.58944 25.4934 2.4715 25.7883 2.38218 26.0833C2.37605 26.1039 2.38794 26.1286 2.38218 26.1493C2.30568 26.4256 2.23362 26.6999 2.25328 26.9866C2.25928 27.2794 2.30572 27.5682 2.38218 27.8239C2.38793 27.8445 2.37592 27.8672 2.38218 27.8899C2.45734 28.1229 2.57923 28.3271 2.70442 28.5334C2.73985 28.5911 2.72948 28.6736 2.76887 28.7272C2.84976 28.8221 2.94114 28.8963 3.02667 28.985C3.16185 29.1438 3.31701 29.2964 3.47781 29.4367C3.52423 29.4738 3.55932 29.5274 3.60671 29.5645C3.74037 29.6718 3.91213 29.7275 4.05785 29.8223C4.18824 29.9069 4.30858 30.0059 4.44455 30.0801C4.76442 30.2554 5.07089 30.4039 5.41118 30.5318C5.74962 30.6535 6.15157 30.7731 6.50692 30.8535C6.58983 30.8741 6.68325 30.901 6.76472 30.9175C9.33732 31.4124 11.8813 30.8762 14.4341 30.4019C14.6246 30.3751 14.8236 30.3647 15.0142 30.3379C16.0444 30.1523 17.077 29.9564 18.1078 29.8863C19.1829 29.7646 20.2545 29.6243 21.3302 29.5006C18.4369 31.794 15.5383 34.0997 12.5008 36.2033C10.2969 37.9543 8.21106 40.5116 8.44039 43.4856C8.53444 44.0878 8.81327 44.692 9.27813 45.0963C10.9633 46.7132 13.5157 45.75 15.2075 44.6446C18.4136 42.4729 20.0031 38.7978 22.4903 35.9455C23.1059 35.1721 23.7432 34.3987 24.3598 33.6253C24.2732 34.3761 24.1866 35.1288 24.1021 35.8795C23.9927 36.7148 23.8999 37.5624 23.7803 38.3936C23.5225 39.9156 23.2544 41.4459 23.0709 42.97C23.0585 43.036 23.0172 43.0978 23.0049 43.1638C22.9987 43.2257 23.0131 43.2938 23.0049 43.3577C22.8733 44.6467 22.8211 45.9274 23.0709 47.2226C23.0832 47.2865 23.1204 47.3546 23.1348 47.4164C23.2214 47.8145 23.3163 48.2641 23.4565 48.6415C23.572 48.9447 23.7556 49.1942 23.9082 49.4788C23.9907 49.6335 24.0711 49.784 24.166 49.9305C24.2609 50.0769 24.3165 50.2481 24.4238 50.3821C24.4609 50.4296 24.5145 50.4646 24.5516 50.51C24.6919 50.6709 24.8445 50.8255 25.0033 50.9617C25.092 51.0462 25.1662 51.139 25.2611 51.2194C25.5086 51.3989 25.8035 51.5164 26.0984 51.6072C26.3727 51.6938 26.6883 51.7289 27.0017 51.735C27.2884 51.7557 27.5627 51.6835 27.8391 51.6072C28.0969 51.5288 28.3258 51.4195 28.5485 51.2834C28.6063 51.2483 28.6888 51.2586 28.7424 51.2194C29.0022 50.9967 29.2415 50.7657 29.4518 50.51C29.489 50.4667 29.5426 50.4275 29.5797 50.3821C29.687 50.2439 29.7447 50.0769 29.8375 49.9305C30.0128 49.6603 30.1531 49.3881 30.2892 49.0931C30.3614 48.9343 30.4851 48.8044 30.547 48.6415C30.6996 48.2373 30.778 47.8103 30.8687 47.4164C30.8831 47.3484 30.9203 47.2927 30.9326 47.2226C31.4812 44.3724 30.7862 41.5469 30.2892 38.7173C30.1489 37.7769 30.0252 36.822 29.9014 35.8795C29.8169 35.1288 29.7303 34.3761 29.6436 33.6253C30.2603 34.3987 30.8976 35.1721 31.5142 35.9455C34.0014 38.7978 35.5895 42.4729 38.7965 44.6446C40.4876 45.75 43.0408 46.7132 44.7258 45.0963C45.1898 44.692 45.4682 44.0878 45.5631 43.4856C45.792 40.5116 43.707 37.9543 41.5023 36.2033C38.4644 34.0997 35.5668 31.794 32.6733 29.5006C33.7498 29.6243 34.8202 29.7646 35.8947 29.8863C36.8393 29.9523 37.788 30.1069 38.7325 30.274C39.0089 30.3132 39.2935 30.3606 39.5698 30.4019C40.7062 30.6122 41.8467 30.7813 42.9851 30.9175C43.0511 30.9298 43.113 30.9711 43.179 30.9834C43.2429 30.9896 43.3089 30.9752 43.3729 30.9834C44.039 31.0515 44.701 31.1278 45.3692 31.1113C45.9941 31.0969 46.6128 31.0391 47.2377 30.9175C47.3202 30.901 47.413 30.8741 47.4976 30.8535C47.9204 30.7587 48.3885 30.6246 48.7845 30.4679C49.2052 30.2987 49.5703 30.0678 49.9456 29.8223C50.0261 29.7708 50.1251 29.7481 50.2034 29.6924C50.3127 29.614 50.4241 29.5233 50.5252 29.4367C50.6303 29.3501 50.7479 29.2717 50.8469 29.1768C50.9026 29.1211 50.9273 29.0428 50.9768 28.985C51.0614 28.8963 51.1542 28.8221 51.2346 28.7272C51.2738 28.6736 51.2635 28.5911 51.2986 28.5334C51.4244 28.3271 51.546 28.1229 51.6223 27.8899C51.6285 27.8672 51.6162 27.8445 51.6223 27.8239C51.6987 27.5682 51.744 27.2794 51.7502 26.9866C51.7708 26.6999 51.6987 26.4256 51.6223 26.1493C51.544 25.8915 51.4347 25.6625 51.2986 25.4398C51.2635 25.382 51.2738 25.2996 51.2346 25.2459C51.1542 25.1511 51.0614 25.0768 50.9768 24.9881C50.8263 24.8355 50.6881 24.6705 50.5252 24.5365C50.4819 24.4994 50.4427 24.4457 50.3973 24.4086C50.3354 24.3612 50.2674 24.324 50.2034 24.2807C49.9993 24.1302 49.7827 24.0168 49.56 23.893C49.5414 23.8827 49.5125 23.9013 49.494 23.893C49.3641 23.8229 49.2424 23.761 49.1083 23.6992C48.9928 23.6476 48.9021 23.5527 48.7845 23.5053C48.7206 23.4805 48.6567 23.4661 48.5927 23.4414C48.1679 23.2867 47.6894 23.1423 47.2377 23.0557C46.6128 22.934 45.9941 22.8763 45.3692 22.8618C44.701 22.8462 44.039 22.9216 43.3729 22.9897C43.3089 22.9979 43.2429 22.9835 43.179 22.9897C43.113 23.0021 43.0511 23.0433 42.9851 23.0557C41.8467 23.1918 40.7062 23.3609 39.5698 23.5713C39.2914 23.6228 39.0089 23.6517 38.7325 23.6992C36.7238 23.9838 34.6882 24.2416 32.6733 24.4725C35.5668 22.1786 38.4644 19.873 41.5023 17.7702C43.707 16.0185 45.792 13.4626 45.5631 10.4876C45.4682 9.886 45.1898 9.28152 44.7258 8.87647C43.0408 7.25916 40.4876 8.22393 38.7965 9.32751C35.5895 11.4996 34.0014 15.1762 31.5142 18.028C30.8976 18.8018 30.2603 19.5746 29.6436 20.3482C29.7303 19.5965 29.8169 18.8447 29.9014 18.0926C30.0252 17.1501 30.1489 16.196 30.2892 15.2568C30.5367 13.8431 30.7615 12.4198 30.9326 11.0032C30.9491 10.8735 30.9842 10.7462 30.9986 10.6165C31.0667 9.94973 31.143 9.28688 31.1265 8.61867C31.1121 7.99377 31.0543 7.37609 30.9326 6.74954C30.9203 6.68066 30.8831 6.62477 30.8687 6.5563C30.778 6.16218 30.6996 5.73548 30.547 5.33166C30.4851 5.16791 30.3614 5.03881 30.2892 4.88042C30.1531 4.58426 30.0128 4.31223 29.8375 4.04268C29.7447 3.89708 29.687 3.72936 29.5797 3.59154C29.5426 3.54548 29.489 3.50702 29.4518 3.46264C29.3178 3.2999 29.1528 3.16118 29.0002 3.01149C28.9115 2.92597 28.8373 2.83458 28.7424 2.7537C28.6888 2.71431 28.6063 2.72468 28.5485 2.68925C28.3423 2.56406 28.1381 2.44218 27.9051 2.367C27.8824 2.36075 27.8597 2.37276 27.8391 2.367C27.5833 2.29055 27.2946 2.24411 27.0017 2.2381Z" fill="#E74C3C"/>
<path d="M36 27.0001C36 29.3871 35.0518 31.6763 33.364 33.3641C31.6761 35.0519 29.3869 36.0001 27 36.0001C24.6131 36.0001 22.3239 35.0519 20.636 33.3641C18.9482 31.6763 18 29.3871 18 27.0001C18 24.6132 18.9482 22.324 20.636 20.6362C22.3239 18.9483 24.6131 18.0001 27 18.0001C29.3869 18.0001 31.6761 18.9483 33.364 20.6362C35.0518 22.324 36 24.6132 36 27.0001Z" fill="#C0392B"/>
<path d="M31.5 27C31.5 28.1935 31.0259 29.3381 30.182 30.182C29.3381 31.0259 28.1935 31.5 27 31.5C25.8065 31.5 24.6619 31.0259 23.818 30.182C22.9741 29.3381 22.5 28.1935 22.5 27C22.5 25.8065 22.9741 24.6619 23.818 23.818C24.6619 22.9741 25.8065 22.5 27 22.5C28.1935 22.5 29.3381 22.9741 30.182 23.818C31.0259 24.6619 31.5 25.8065 31.5 27Z" fill="#E67E22"/>
</svg>
