<svg width="391" height="129" viewBox="0 0 391 129" fill="none" xmlns="http://www.w3.org/2000/svg">
<path  d="M304.867 18.6315C294.411 18.7525 284.065 19.9038 274.364 22.0261C262.256 14.9532 247.173 9.4762 230.297 6.02416C213.42 2.57212 195.208 1.23885 177.088 2.12883C158.968 3.01881 141.432 6.10787 125.853 11.1539C110.275 16.2 97.0786 23.066 87.2972 31.214C77.1958 29.6168 66.4895 29.3133 56.0599 30.3283C45.6304 31.3434 35.7758 33.648 27.308 37.0524C18.8402 40.4568 12.0014 44.8636 7.35459 49.9099C2.70779 54.9562 0.386111 60.4976 0.58058 66.0777L389.913 62.4974C389.859 56.6347 387.617 50.8495 383.314 45.4722C379.011 40.0949 372.731 35.2307 364.834 31.1574C356.937 27.0841 347.576 23.8813 337.287 21.7321C326.998 19.583 315.982 18.5294 304.867 18.6315Z" fill="white"/>
<path  d="M85.621 109.944C96.0772 109.823 106.423 108.671 116.125 106.549C128.232 113.622 143.315 119.099 160.192 122.551C177.068 126.003 195.28 127.336 213.4 126.446C231.521 125.556 249.057 122.467 264.635 117.421C280.213 112.375 293.41 105.509 303.191 97.3612C313.292 98.9584 323.999 99.2619 334.428 98.2469C344.858 97.2318 354.712 94.9272 363.18 91.5228C371.648 88.1184 378.487 83.7115 383.134 78.6653C387.78 73.619 390.102 68.0776 389.908 62.4975L0.575656 66.0778C0.629355 71.9405 2.8717 77.7257 7.17469 83.103C11.4777 88.4803 17.7571 93.3445 25.6543 97.4178C33.5515 101.491 42.9118 104.694 53.2009 106.843C63.49 108.992 74.5064 110.046 85.621 109.944Z" fill="white"/>
</svg>
