<svg width="74" height="74" viewBox="0 0 74 74" fill="none" xmlns="http://www.w3.org/2000/svg">
<g clip-path="url(#clip0_1033_59)">
<path d="M57.3717 50.9849L62.6981 46.1691L60.0286 42.0588L64.1392 39.3887L61.2325 32.8222L54.1125 30.3084L52.7022 30.0094L53.4233 28.7604L56.3197 21.7872L53.3843 15.233L48.6503 16.501L28.0216 52.2309L28.1721 53.6667L29.928 61.0099L36.1534 64.5876L39.2384 60.778L43.049 63.8627L48.3942 59.0684L48.585 51.5208L48.4344 50.085L49.8453 50.386L57.3717 50.9849Z" fill="#EB9494"/>
<path d="M47.3814 11.7672L40.2376 12.5022L35.6468 18.4971L34.9257 19.7462L33.9612 18.6741L28.2233 13.7659L21.0841 14.5308L20.8273 19.4259L15.9327 19.1691L14.4253 26.1898L18.7078 32.4087L19.6739 33.4801L18.3554 34.0678L11.9135 38.0062L10.4356 45.0333L15.0115 46.7905L13.2535 51.3663L19.4655 54.9693L26.7029 52.8184L28.0216 52.2309L48.6503 16.5009L47.3814 11.7672Z" fill="#F1A4A4"/>
<path d="M47.1698 41.58C47.6646 40.7229 47.371 39.6291 46.5152 39.135C45.6582 38.6402 44.5654 38.9336 44.0706 39.7906C43.8168 40.2303 43.7702 40.7335 43.9029 41.1862C43.1588 41.7154 42.0717 42.2445 40.7909 42.5777C39.9619 42.7941 38.6684 43.0153 37.2129 42.8575C38.1644 42.4431 39.0866 41.8427 39.8733 41.2481C41.3077 40.166 42.7691 38.7259 43.8204 37.402C44.5656 37.5708 45.3663 37.2491 45.7687 36.5522C46.2631 35.6958 45.968 34.6019 45.1122 34.1078C44.2576 33.6144 43.1639 33.9065 42.6695 34.7629C42.3221 35.3645 42.3645 36.0824 42.7168 36.6287C41.8095 37.7605 40.4441 39.0631 39.0102 40.1471C37.2376 41.4866 35.6775 42.1294 34.5606 41.9759L39.5605 33.3159C40.6028 33.5985 41.3576 33.1423 41.8135 32.3526C42.384 31.3644 42.0732 30.1149 41.0838 29.5436C40.0945 28.9724 38.8272 29.3109 38.2567 30.2991C37.8044 31.0825 37.8964 32.0228 38.4787 32.6847L33.4782 41.346C32.7886 40.4556 32.63 38.8537 32.8856 36.6918C33.0927 34.9365 33.5876 33.1652 34.1046 31.8272C34.7517 31.8602 35.4001 31.5396 35.7471 30.9386C36.2415 30.0822 35.9505 28.9898 35.0947 28.4957C34.2377 28.0009 33.1448 28.2943 32.6504 29.1507C32.248 29.8476 32.3703 30.7039 32.8902 31.2629C32.2768 32.8223 31.7767 34.7853 31.5679 36.5437C31.4318 37.6961 31.4172 38.7183 31.522 39.5991C29.9054 37.4381 29.4329 34.7636 29.5747 33.0812C30.0312 32.9704 30.4422 32.6783 30.6957 32.2393C31.1894 31.3841 30.8974 30.2904 30.0416 29.7963C29.1858 29.3022 28.0918 29.5956 27.598 30.4508C27.1053 31.3042 27.3956 32.3944 28.2443 32.8893C28.1329 34.0304 28.277 35.4088 28.6704 36.7696C29.4571 39.4797 31.1156 41.6853 33.3453 42.9727L33.3614 42.982L33.3713 42.9877L33.4641 43.0412L33.4466 43.0715C35.6208 44.3153 38.3954 44.6276 41.1668 43.9086C42.557 43.5486 43.8215 42.9405 44.7598 42.2581C45.6139 42.7412 46.6789 42.4302 47.1698 41.58Z" fill="white"/>
</g>
<defs>
<clipPath id="clip0_1033_59">
<rect width="54" height="54" fill="white" transform="translate(27) rotate(30)"/>
</clipPath>
</defs>
</svg>
