<svg width="427" height="99" viewBox="0 0 427 99" fill="none" xmlns="http://www.w3.org/2000/svg">
<path  d="M92.8217 70.7193C104.29 70.6801 115.647 69.0072 126.308 65.7869C139.514 77.1662 155.999 86.0611 174.472 91.7747C192.944 97.4884 212.903 99.8655 232.783 98.7197C252.664 97.574 271.926 92.9366 289.06 85.1708C306.195 77.4051 320.736 66.722 331.545 53.9587C342.606 56.6356 354.344 57.2724 365.792 55.8165C377.24 54.3607 388.07 50.8538 397.39 45.5848C406.711 40.3158 414.255 33.4353 419.402 25.51C424.548 17.5847 427.15 8.84142 426.993 4.76837e-07H1.74237e-08C-0.000236156 9.28686 2.40046 18.4828 7.06507 27.0628C11.7297 35.6428 18.5669 43.4388 27.1862 50.0057C35.8055 56.5726 46.0381 61.7819 57.2998 65.3359C68.5616 68.89 80.632 70.7192 92.8217 70.7193Z" fill="white"/>
</svg>
