<svg width="74" height="74" viewBox="0 0 74 74" fill="none" xmlns="http://www.w3.org/2000/svg">
<g clip-path="url(#clip0_1033_33)">
<path d="M43.8741 18.9901C48.0161 26.1643 45.5575 35.3383 38.3827 39.4806C31.2085 43.6226 22.0347 41.1647 17.8927 33.9905C13.7507 26.8164 16.2087 17.6421 23.3828 13.5001C30.5576 9.35773 39.7322 11.816 43.8741 18.9901Z" fill="#E13C72"/>
<path d="M55.8735 39.7737C60.0158 46.9485 57.5575 56.1229 50.3827 60.2653C43.2085 64.4073 34.0344 61.9489 29.892 54.7741C25.7503 47.6005 28.2087 38.4268 35.3828 34.2847C42.5576 30.1424 51.7318 32.6001 55.8735 39.7737Z" fill="#E94E7D"/>
<path d="M18.9903 29.8917C26.1647 25.7495 35.3383 28.2075 39.4806 35.3823C43.6227 42.5565 41.1649 51.7306 33.9905 55.8728C26.8167 60.0147 17.6421 57.5563 13.5001 50.3821C9.35776 43.2074 11.8164 34.0335 18.9903 29.8917Z" fill="#E13C72"/>
<path d="M39.7735 17.8919C46.9483 13.7496 56.1225 16.2073 60.2648 23.382C64.4068 30.5562 61.9485 39.7307 54.7737 43.873C47.6002 48.0147 38.4262 45.556 34.2843 38.3819C30.1419 31.2072 32.6 22.0336 39.7735 17.8919Z" fill="#E94E7D"/>
<path d="M58.1514 41.2144C57.6644 39.8936 56.9737 38.6242 56.082 37.4394C51.1335 30.8698 41.8331 29.521 35.2251 34.3814C35.2795 34.35 35.3281 34.3164 35.3831 34.2847C42.5591 30.1416 51.7311 32.6038 55.871 39.7744C56.3392 40.5853 56.7241 41.4209 57.0266 42.2736L58.1514 41.2144Z" fill="#D33F79"/>
<path d="M42.2698 16.7367C41.4228 17.0368 40.5871 17.4216 39.7756 17.8902C32.5997 22.0332 30.1409 31.2095 34.284 38.3855C34.3127 38.4353 34.3491 38.4876 34.3809 38.5426C29.5245 31.9323 30.8713 22.6267 37.436 17.682C38.6213 16.79 39.8908 16.0992 41.211 15.6125L42.2698 16.7367Z" fill="#C6376F"/>
<path d="M16.7383 31.4908C17.0405 32.3421 17.4257 33.1783 17.8942 33.9898C22.0365 41.1646 31.2063 43.6225 38.3821 39.4796C38.4372 39.4478 38.488 39.4184 38.5426 39.3869C31.9319 44.2426 22.6314 42.8938 17.6829 36.3242C16.791 35.1396 16.1009 33.8697 15.6133 32.5493L16.7383 31.4908Z" fill="#C6376F"/>
<path d="M32.5526 58.1515C33.8735 57.6645 35.1427 56.9739 36.3273 56.0822C42.8923 51.1365 44.239 41.831 39.3853 35.2253C39.4144 35.2756 39.4508 35.328 39.483 35.3836C43.6225 42.5536 41.1645 51.7312 33.9886 55.8742C33.1765 56.3431 32.3414 56.7269 31.4941 57.0272L32.5526 58.1515Z" fill="#D33F79"/>
<path d="M43.6072 33.001C45.751 36.7143 44.4781 41.4635 40.7647 43.6074C37.0509 45.7516 32.302 44.4791 30.1581 40.7658C28.0139 37.052 29.2861 32.3025 32.9999 30.1584C36.7131 28.0144 41.4629 29.2871 43.6072 33.001Z" fill="#F4C09B"/>
<path d="M38.2821 29.2502C39.959 29.8466 41.4419 31.0155 42.4019 32.6783C44.5457 36.3916 43.2732 41.1405 39.56 43.2843C37.8978 44.244 36.0285 44.5153 34.2781 44.1932C36.3477 44.9289 38.7136 44.7918 40.7653 43.6073C44.4785 41.4634 45.7516 36.7142 43.6077 33.0009C42.4232 30.9492 40.4428 29.6475 38.2821 29.2502Z" fill="#E8AE74"/>
</g>
<defs>
<clipPath id="clip0_1033_33">
<rect width="54" height="54" fill="white" transform="translate(0 27) rotate(-30)"/>
</clipPath>
</defs>
</svg>
