<svg width="54" height="54" viewBox="0 0 54 54" fill="none" xmlns="http://www.w3.org/2000/svg">
<path d="M16.4051 34.0686C16.4051 34.0686 9.2069 38.2482 10.9187 50.0472C10.9187 50.0472 16.8587 50.0796 19.5857 52.3206C22.3127 54.5616 34.3925 46.8126 26.5139 35.8506C26.5139 35.8506 28.9979 46.413 38.6963 46.3482C38.6963 46.3482 42.1307 45.6084 43.9505 46.3482C45.7703 47.088 50.8517 31.9572 39.0149 29.2194C39.0149 29.2194 45.5651 28.1394 48.1949 21.9456C48.1949 21.9456 48.5999 19.6074 52.0343 18.5976C52.0343 18.5976 35.7263 3.72601 29.5325 18.4356C29.5325 18.4356 31.1147 11.0322 27.2267 7.74361C27.2267 7.74361 21.9239 2.47321 22.3289 0.637207C22.3289 0.637207 7.7489 7.91641 19.5857 21.9456C19.5857 21.9456 14.8499 15.5682 7.78131 18.1656C0.712705 20.763 4.3199 29.2842 1.1123 30.6072C1.1123 30.6072 8.4563 38.0214 16.4051 34.0686Z" fill="#797D63"/>
<path d="M23.5112 25.164C23.5112 25.164 20.7356 22.869 19.5854 24.624C18.4352 26.379 21.2054 27.378 21.2054 27.378C21.2054 27.378 18.2084 26.0064 17.8196 28.62C17.4308 31.2336 20.66 29.9754 20.66 29.9754C20.66 29.9754 17.6144 30.9798 19.58 32.589C21.5456 34.1982 22.523 31.698 22.523 31.698C22.523 31.698 21.983 35.0298 24.4184 34.1226C26.8538 33.2154 26.9186 30.6396 25.4984 30.5964C25.4984 30.5964 28.301 34.1226 29.2082 31.4712C30.1154 28.8198 26.573 28.62 26.573 28.62C26.573 28.62 30.488 29.8782 30.9416 27.9828C31.3952 26.0874 27.2048 24.7428 26.573 26.6598C26.573 26.6598 29.4242 23.6628 27.2264 23.1336C25.0286 22.6044 23.1224 22.869 23.5112 25.164Z" fill="#EDC06F"/>
</svg>
