<svg width="166" height="47" viewBox="0 0 166 47" fill="none" xmlns="http://www.w3.org/2000/svg">
<path d="M60.2161 17.7489V12.4907C60.2161 5.50041 56.0614 1.35571 49.0302 1.35571C42.063 1.35571 38.036 5.37669 38.036 12.4907V13.4186C38.036 19.6666 40.0175 22.8834 45.0033 24.8011L47.8157 25.7909C52.6736 27.7085 53.952 29.2551 53.952 32.5956V35.1937C53.952 38.5342 52.1623 40.5138 49.0941 40.5138C46.0899 40.5138 44.3002 38.5342 44.3002 35.1937V29.5025H37.9082V34.7607C37.9082 41.8129 41.9351 45.8957 49.0302 45.8957C56.1253 45.8957 60.344 41.751 60.344 34.7607V33.5854C60.344 27.2137 58.4264 24.1825 53.2489 22.2648L50.6921 21.3369C45.6425 19.3573 44.428 17.8108 44.428 14.4703V12.0577C44.428 8.71719 46.1538 6.73763 49.0941 6.73763C52.0344 6.73763 53.8242 8.71719 53.8242 12.0577V17.7489H60.2161ZM83.1911 1.97432H62.0977V7.35624H69.4484V45.2771H75.8404V7.35624H83.1911V1.97432ZM85.7885 1.97432V45.2771H96.463C102.983 45.2771 107.841 42.184 107.841 34.5751V12.6763C107.841 5.12924 102.983 1.97432 96.463 1.97432H85.7885ZM92.1804 7.35624H96.3991C99.0837 7.35624 101.385 8.59346 101.385 12.6144V34.637C101.385 38.658 99.0837 39.8952 96.3991 39.8952H92.1804V7.35624ZM117.584 1.91246H111.192V45.2771H117.584V26.3476H118.607L126.725 45.2771H133.564L123.849 23.6257L132.542 1.91246H125.702L118.607 20.9038H117.584V1.91246ZM135.786 1.97432V45.2771H142.178V1.97432H135.786ZM165.525 1.97432H144.432V7.35624H151.782V45.2771H158.174V7.35624H165.525V1.97432Z" fill="white"/>
<path d="M13.3303 44.344L12.9727 45.2772H14.0012H17.6967H18.1944L18.3675 44.8255L34.4681 2.81537L34.8256 1.88208H33.7972H30.1018H29.604L29.4308 2.33374L13.3303 44.344Z" fill="white" stroke="white" stroke-width="2"/>
<path d="M2.35768 44.344L2 45.2772H3.02854H6.72404H7.22178L7.39489 44.8255L23.4954 2.81537L23.8531 1.88208H22.8245H19.129H18.6313L18.4582 2.33374L2.35768 44.344Z" fill="white" stroke="white" stroke-width="2"/>
</svg>
