<svg width="112" height="31" viewBox="0 0 112 31" fill="none" xmlns="http://www.w3.org/2000/svg">
<path d="M40.7659 11.6514V8.11432C40.7659 3.41208 37.971 0.624023 33.2413 0.624023C28.5546 0.624023 25.8458 3.32885 25.8458 8.11432V8.73851C25.8458 12.9414 27.1787 15.1053 30.5325 16.3953L32.4244 17.0611C35.6922 18.351 36.5521 19.3914 36.5521 21.6385V23.3862C36.5521 25.6333 35.3482 26.9649 33.2843 26.9649C31.2634 26.9649 30.0595 25.6333 30.0595 23.3862V19.5578H25.7598V23.0949C25.7598 27.8388 28.4686 30.5852 33.2413 30.5852C38.014 30.5852 40.8519 27.7971 40.8519 23.0949V22.3043C40.8519 18.0182 39.5619 15.9791 36.0791 14.6891L34.3592 14.0649C30.9625 12.7333 30.1455 11.693 30.1455 9.44592V7.82303C30.1455 5.57594 31.3064 4.24433 33.2843 4.24433C35.2622 4.24433 36.4661 5.57594 36.4661 7.82303V11.6514H40.7659ZM56.2207 1.04015H42.0316V4.66046H46.9763V30.1691H51.276V4.66046H56.2207V1.04015ZM57.9679 1.04015V30.1691H65.1484C69.5342 30.1691 72.802 28.0884 72.802 22.9701V8.23916C72.802 3.1624 69.5342 1.04015 65.1484 1.04015H57.9679ZM62.2676 4.66046H65.1054C66.9113 4.66046 68.4592 5.49271 68.4592 8.19754V23.0117C68.4592 25.7165 66.9113 26.5488 65.1054 26.5488H62.2676V4.66046ZM79.3563 0.998538H75.0566V30.1691H79.3563V17.4356H80.0443L85.505 30.1691H90.1057L83.5701 15.6046L89.4177 0.998538H84.817L80.0443 13.7736H79.3563V0.998538ZM91.6005 1.04015V30.1691H95.9002V1.04015H91.6005ZM111.605 1.04015H97.4159V4.66046H102.361V30.1691H106.66V4.66046H111.605V1.04015Z" fill="white"/>
<path d="M9.22692 29.5418L8.98633 30.1695H9.6782H12.1641H12.4989L12.6154 29.8657L23.4459 1.60632L23.6864 0.978516H22.9946H20.5087H20.1739L20.0574 1.28234L9.22692 29.5418Z" fill="white" stroke="white" stroke-width="1.34536"/>
<path d="M1.84608 29.5418L1.60547 30.1695H2.29735H4.78324H5.11806L5.2345 29.8657L16.065 1.60632L16.3056 0.978516H15.6137H13.1278H12.793L12.6766 1.28234L1.84608 29.5418Z" fill="white" stroke="white" stroke-width="1.34536"/>
</svg>
